<svg
    width="21"
    height="20"
    viewBox="0 0 21 20"
    fill="none"
    xmlns="http://www.w3.org/2000/svg"
  >
    <path
      d="M5.29983 13.2403L4.90694 13.3791C4.95791 13.5234 4.88207 13.6824 4.73722 13.7336C4.37251 13.8626 4.07376 14.1355 3.86922 14.451C3.66347 14.7683 3.53385 15.1574 3.53385 15.5549C3.53385 16.551 4.34332 17.3605 5.33941 17.3605C6.3355 17.3605 7.14497 16.551 7.14497 15.5549V11.3882C7.14497 11.2348 7.2691 11.1105 7.42274 11.1105C7.57638 11.1105 7.70052 11.2348 7.70052 11.3882V15.5549C7.70052 16.8567 6.64124 17.916 5.33941 17.916C4.03758 17.916 2.9783 16.8567 2.9783 15.5549C2.9783 14.5094 3.65868 13.5253 4.55247 13.2096C4.6968 13.1586 4.85577 13.2345 4.90703 13.3793L5.29983 13.2403ZM5.29983 13.2403C5.4276 13.6021 5.23733 13.9987 4.87622 14.1264L5.29983 13.2403ZM15.6637 13.7336L15.6636 13.7335C15.5189 13.6825 15.4432 13.5242 15.4939 13.3796C15.5458 13.2337 15.7044 13.1587 15.8486 13.2096C16.7424 13.5253 17.4227 14.5094 17.4227 15.5549C17.4227 16.8567 16.3635 17.916 15.0616 17.916C13.7598 17.916 12.7005 16.8567 12.7005 15.5549V11.3882C12.7005 11.2348 12.8247 11.1105 12.9783 11.1105C13.1319 11.1105 13.2561 11.2348 13.2561 11.3882V15.5549C13.2561 16.551 14.0655 17.3605 15.0616 17.3605C16.0577 17.3605 16.8672 16.551 16.8672 15.5549C16.8672 15.1574 16.7376 14.7683 16.5318 14.451C16.3273 14.1354 16.0284 13.8625 15.6637 13.7336ZM5.33941 2.08268H15.0616C16.7461 2.08268 18.1172 3.45377 18.1172 5.13824V5.83268C18.1172 7.51715 16.7461 8.88824 15.0616 8.88824H5.33941C3.65495 8.88824 2.28385 7.51715 2.28385 5.83268V5.13824C2.28385 3.45377 3.65495 2.08268 5.33941 2.08268ZM5.33941 7.63824H15.0616C15.6761 7.63824 16.1727 7.14031 16.1727 6.52713C16.1727 5.91395 15.6761 5.41602 15.0616 5.41602H5.33941C4.72499 5.41602 4.2283 5.91395 4.2283 6.52713C4.2283 7.14031 4.72499 7.63824 5.33941 7.63824ZM10.4783 11.3882V17.6382C10.4783 17.7917 10.3542 17.916 10.2005 17.916C10.0469 17.916 9.92274 17.7917 9.92274 17.6382V11.3882C9.92274 11.2348 10.0469 11.1105 10.2005 11.1105C10.3542 11.1105 10.4783 11.2348 10.4783 11.3882Z"
      fill="#0066FF"
      stroke="#0066FF"
      stroke-width="0.833333"
    />
  </svg>
