<svg width="32" height="32" viewBox="0 0 32 32" fill="none" xmlns="http://www.w3.org/2000/svg">
<path d="M16.0423 13.2088C16.0423 13.2088 16.0242 13.2088 16.0162 13.2088C14.4357 13.2048 12.9175 13.4163 11.5059 13.8373C11.5783 14.4013 11.6407 15.0056 11.703 15.7368C11.703 15.7368 11.703 15.7368 11.703 15.7409C11.7553 16.9676 11.7774 18.7745 11.7714 21.2562C11.7834 21.9289 11.7693 22.644 11.7291 23.4417C11.7291 23.5142 11.6708 23.9433 11.5984 24.5174C11.5803 24.9344 11.5622 25.3473 11.5441 25.4742C11.5743 26.9306 13.2372 27.8008 15.99 27.8008L16.0383 27.8008C18.773 27.7947 20.4238 26.9266 20.454 25.4742C20.4379 25.3473 20.4178 24.9344 20.3997 24.5174C20.3273 23.9433 20.267 23.5142 20.269 23.4417C20.2288 22.644 20.2147 21.9289 20.2268 21.2562C20.2207 18.7745 20.2428 16.9676 20.2951 15.7409C20.2951 15.7409 20.2951 15.7409 20.2951 15.7368C20.3575 15.0056 20.4198 14.4013 20.4922 13.8373C19.0967 13.4203 17.5966 13.2088 16.0343 13.2088L16.0423 13.2088ZM16.0423 14.0246C14.5603 14.0367 13.2091 14.1676 12.1655 14.3792C12.642 13.9702 14.1883 13.6701 16.0423 13.652C17.8621 13.6782 19.3702 13.9763 19.8407 14.3792C18.8172 14.1717 17.4941 14.0428 16.0423 14.0246Z" fill="#00CC69"/>
<path d="M16.0432 27.9441L16.013 27.9441L15.9929 27.9441C13.4855 27.9441 11.8547 27.2249 11.4847 25.9942C11.4284 26.4857 11.3701 27.0658 11.3379 27.6077C11.344 28.0206 11.3902 28.3147 11.5048 28.3711C13.0109 29.0519 14.0807 29.0701 15.7295 29.066C15.8341 29.066 15.9366 29.066 16.0412 29.066C16.1196 29.066 16.196 29.066 16.2744 29.066C17.9233 29.0701 18.993 29.0519 20.4991 28.3711C20.6137 28.3127 20.66 28.0206 20.666 27.6077C20.6338 27.0658 20.5775 26.4857 20.5192 25.9942C20.1492 27.2209 18.5305 27.938 16.0412 27.942L16.0432 27.9441Z" fill="#364258"/>
<path d="M16.0425 27.8003L16.0123 27.8003L15.9922 27.8003C13.2394 27.8003 11.5785 26.9301 11.5463 25.4738C11.5624 25.3469 11.5825 24.9339 11.6006 24.5169C11.482 25.4516 11.3271 26.777 11.3392 27.607C11.3714 27.0651 11.4277 26.485 11.486 25.9935C11.856 27.2242 13.4867 27.9434 15.9942 27.9434L16.0425 27.9434C18.5338 27.9373 20.1525 27.2202 20.5205 25.9935C20.5768 26.485 20.6351 27.0651 20.6673 27.607C20.6794 26.777 20.5245 25.4516 20.4059 24.5169C20.424 24.9339 20.4421 25.3469 20.4602 25.4738C20.43 26.9261 18.7792 27.7923 16.0445 27.8003L16.0425 27.8003Z" fill="#1A1F29"/>
<path d="M20.8177 17.4875C20.8177 17.4875 20.8177 17.5037 20.8198 17.5117C21.0309 17.4775 21.6583 17.2881 22.1248 17.1471C22.348 17.0806 22.547 17.0182 22.6777 16.9819C22.6536 14.5406 22.6295 12.1294 22.6154 11.2088C22.4183 11.1343 22.2132 11.0598 22.0061 10.9892C22.0001 11.5271 22.0021 12.079 22.0061 12.6148C22.0142 13.9725 22.0202 15.3785 21.8875 16.71L21.8875 16.7281L21.8674 16.7362C21.5678 16.8913 21.2279 17.0645 20.8479 17.1673C20.7956 17.2599 20.8057 17.3747 20.8177 17.4875Z" fill="#00CC69"/>
<path d="M20.8577 22.2405C20.8577 22.2405 20.8577 22.2445 20.8577 22.2465C20.9905 22.3875 21.1031 22.5447 21.2096 22.6998C21.2981 22.8287 21.3906 22.9596 21.4952 23.0825C21.5495 23.0986 21.6158 23.0906 21.6782 23.0825C21.6882 22.8891 21.6962 22.6978 21.7063 22.5044C21.7847 20.9433 21.8652 19.3277 21.829 17.7686C21.8149 17.7686 21.8028 17.7686 21.7867 17.7706C21.4891 17.8633 21.1513 17.9278 20.8155 17.962L20.8155 21.2595C20.8155 21.2595 20.8155 21.2615 20.8155 21.2635C20.8215 21.3784 20.8195 21.4972 20.8155 21.612C20.8095 21.8235 20.8035 22.0411 20.8598 22.2425L20.8577 22.2405Z" fill="#364258"/>
<path d="M22.4442 24.1064C22.5387 23.9332 22.5809 23.7338 22.6231 23.5424C22.6573 23.3873 22.6935 23.2262 22.7559 23.0791C22.7398 23.065 22.7559 22.924 22.7559 22.9019C22.7518 21.9007 22.7056 19.5238 22.6815 17.0461C22.5528 17.0824 22.3617 17.1408 22.1486 17.2053C21.6499 17.3563 21.0386 17.5397 20.8255 17.5739C20.8154 17.6444 20.8154 17.7149 20.8175 17.7914C20.8175 17.8257 20.8175 17.8599 20.8175 17.8942C21.1452 17.8619 21.475 17.7975 21.7706 17.7068C21.7927 17.7028 21.8108 17.7008 21.8269 17.7008C21.8409 17.7008 21.855 17.7008 21.8691 17.7028L21.9013 17.7028L21.9013 17.735C21.9395 19.3062 21.859 20.9338 21.7806 22.507C21.7706 22.7105 21.7605 22.9119 21.7505 23.1134L21.7505 23.1416L21.7002 23.1476C21.6238 23.1577 21.5373 23.1678 21.4589 23.1416L21.4488 23.1375L21.4428 23.1295C21.3342 23.0026 21.2377 22.8656 21.1452 22.7347C21.0487 22.5977 20.9482 22.4567 20.8355 22.3298C20.8154 22.4506 20.8255 22.5836 20.8717 22.7044C20.8717 22.7085 20.8717 22.7105 20.8717 22.7145C20.8717 22.7145 20.8717 22.7186 20.8717 22.7206C21.2277 23.198 21.5132 23.6633 21.7223 24.1085C21.7223 24.1085 21.7344 24.1085 21.7505 24.1125L21.8007 24.1125C21.8007 24.1125 21.8068 24.1024 21.8108 24.0984C21.8108 24.0984 21.8329 24.1105 21.8651 24.1266C21.8832 24.1286 21.8972 24.1306 21.8972 24.1326C21.9395 24.1407 21.9817 24.1528 22.0239 24.1649C22.1406 24.1991 22.2511 24.2313 22.3617 24.181C22.3778 24.1689 22.3919 24.1548 22.408 24.1407C22.4201 24.1306 22.4321 24.1185 22.4462 24.1085L22.4442 24.1064Z" fill="#00CC69"/>
<path d="M20.846 17.0918C21.2019 16.9931 21.5256 16.8299 21.8112 16.6829C21.9439 15.3595 21.9358 13.9635 21.9278 12.6119C21.9258 12.068 21.9218 11.506 21.9278 10.9601C21.9077 10.9541 21.8876 10.946 21.8675 10.94C21.8011 11.1897 21.7348 11.4395 21.6664 11.6893C21.3145 12.9906 20.9505 14.3341 20.8701 15.6938C20.8701 15.6938 20.8721 15.6958 20.8721 15.6979C20.8862 15.8671 20.8721 16.0947 20.854 16.3364C20.8359 16.6104 20.8178 16.8924 20.844 17.0918L20.846 17.0918Z" fill="#364258"/>
<path d="M22.8146 23.1562C22.8026 23.1683 22.7885 23.1905 22.7724 23.2287C22.7382 23.3355 22.7141 23.4463 22.6899 23.553C22.6477 23.7505 22.6035 23.9559 22.5029 24.1392L22.4949 24.1493C22.4808 24.1614 22.4667 24.1735 22.4547 24.1856C22.4386 24.1997 22.4205 24.2158 22.4044 24.2299L22.3984 24.2339C22.2596 24.3004 22.1289 24.2621 22.0023 24.2238C21.96 24.2117 21.9198 24.2017 21.8816 24.1936C21.8695 24.1997 21.8374 24.1815 21.8153 24.1694C21.8052 24.1654 21.7992 24.1634 21.7972 24.1594L21.7409 24.1594C21.1638 23.6598 21.6323 27.8053 21.6303 27.8033C21.6262 27.8013 21.0672 24.9228 20.8702 23.4181C20.84 23.2267 20.8179 23.0333 20.8078 22.842C20.8058 22.8017 20.8038 22.7634 20.8018 22.7292C20.7455 22.5781 20.7375 22.4089 20.7737 22.2639C20.7737 22.2639 20.7737 22.2639 20.7716 22.2618C20.7133 22.0483 20.7194 21.8247 20.7254 21.6092C20.7294 21.4964 20.7314 21.3775 20.7254 21.2647C20.7254 21.2647 20.7234 21.2607 20.7234 21.2587L20.7234 17.933C20.7254 17.8867 20.7234 17.8403 20.7234 17.794C20.7234 17.7114 20.7194 17.6248 20.7355 17.5422C20.7355 17.5281 20.7334 17.514 20.7314 17.4979C20.7194 17.3791 20.7073 17.2461 20.7737 17.1313C20.7415 16.9238 20.7616 16.6277 20.7817 16.3376C20.7978 16.0979 20.8119 15.8723 20.7998 15.7092C20.7998 15.7071 20.8018 15.7031 20.8018 15.7011C20.8822 14.3334 21.2462 12.9837 21.6001 11.6784C21.6705 11.4206 21.7388 11.1648 21.8072 10.909C21.8032 10.8989 21.8012 10.8888 21.8072 10.8808C21.8112 10.8727 21.8173 10.8687 21.8253 10.8626C21.8776 10.5967 21.946 10.3228 22.0244 10.073L22.0284 10.0609L22.0405 10.0549C22.0565 10.0468 22.0807 10.0347 22.1068 10.0327L22.1289 10.0327L22.139 10.0488C22.2194 10.1999 22.4527 10.351 22.6598 10.357C22.6638 10.1435 22.6517 9.92797 22.6397 9.72049C22.6296 9.54927 22.6196 9.37201 22.6176 9.19475C22.5291 9.22698 22.4426 9.26726 22.3541 9.31158C22.1551 9.41028 21.948 9.50899 21.7026 9.50294C21.5458 10.0649 21.4111 10.6531 21.2804 11.2252C21.0833 12.0914 20.8782 12.9878 20.5907 13.8137C20.5907 13.8177 20.5947 13.8197 20.5947 13.8237C20.5203 14.3938 20.458 15.0041 20.3956 15.7434L20.3956 15.7454C20.3433 16.9701 20.3192 18.773 20.3273 21.2506C20.3273 21.2547 20.3313 21.2567 20.3313 21.2607C20.3192 21.9395 20.3333 22.6607 20.3755 23.4684C20.3755 23.4745 20.3715 23.4805 20.3675 23.4866C20.4137 23.8532 20.468 24.2299 20.5223 24.5925C20.647 25.4465 20.7777 26.3268 20.8099 27.193C20.8099 27.193 20.8099 27.193 20.8099 27.195C20.8099 27.197 20.8139 27.199 20.8139 27.201C20.8199 27.9625 20.6952 28.8689 20.5746 29.7431C20.5364 30.0231 20.5002 30.2911 20.468 30.5469L20.5022 30.5408C21.1638 30.4341 21.6282 30.2367 21.8132 29.9869C22.1068 29.586 22.1973 29.4511 22.322 29.2637C22.3562 29.2134 22.3923 29.157 22.4366 29.0925C22.4607 28.9515 22.4828 28.8125 22.5029 28.6735C22.5512 28.3573 22.6015 28.0289 22.6739 27.7147C22.6739 27.7066 22.6819 27.7026 22.6859 27.6966C22.694 27.6543 22.7 27.61 22.706 27.5656C22.7442 27.3038 22.7824 26.9412 22.8146 26.5363C22.889 25.4163 22.8669 24.0989 22.8227 23.1582L22.8146 23.1562Z" fill="#00CC69"/>
<path d="M20.7596 31.4158L20.7656 31.4078L20.7154 31.4219L20.7395 31.4178L20.7596 31.4158Z" fill="#00CC69"/>
<path d="M20.1903 30.9889C20.2547 30.9084 20.5 29.3251 20.5 28.5777C19.6917 29.0451 17.8618 29.2908 16.0421 29.2908C14.1961 29.3009 12.3261 29.0531 11.5057 28.5777C11.5057 29.3251 11.753 30.9104 11.8154 30.9889C12.0406 31.2709 13.3556 31.2931 14.4495 31.2709C14.55 31.2689 15.2056 31.2709 16.0421 31.2649C16.8403 31.2709 17.4597 31.2689 17.5562 31.2709C18.6481 31.2931 19.9631 31.2709 20.1903 30.9889Z" fill="#00CC69"/>
<path d="M19.4163 1.56641C19.4002 1.47173 19.366 1.3831 19.3278 1.28842C19.2896 1.19576 19.2514 1.09908 19.2353 0.998358L19.2353 0.992315L19.2353 0.986272C19.2413 0.970157 19.2474 0.954043 19.2574 0.9339L19.2634 0.923827L19.2755 0.919798C19.3077 0.909726 19.3398 0.905699 19.37 0.905699C19.4665 0.905699 19.553 0.948 19.6395 0.990301C19.6998 1.02052 19.7561 1.04872 19.8164 1.0608C19.6978 0.855338 19.4605 0.798938 19.2494 0.750593L19.2152 0.742537C18.2158 0.551174 17.2124 0.478655 16.0763 0.510884C16.0723 0.510884 16.0683 0.514914 16.0622 0.514914C16.0562 0.514914 16.0502 0.514914 16.0441 0.514914C16.0441 0.514914 16.0281 0.514914 16.02 0.514914C15.9959 0.514914 15.9718 0.514914 15.9476 0.514914C15.9416 0.514914 15.9396 0.512899 15.9336 0.510884C14.7954 0.478655 13.7921 0.553188 12.7947 0.742536L12.7605 0.750593C12.5474 0.798937 12.3121 0.853323 12.1935 1.0608C12.2518 1.0467 12.3101 1.0185 12.3704 0.990301C12.4549 0.947999 12.5434 0.905698 12.6399 0.905699C12.67 0.905699 12.7022 0.909726 12.7344 0.919797L12.7444 0.923827L12.7505 0.933899C12.7625 0.954043 12.7686 0.970157 12.7726 0.986271L12.7726 0.992314L12.7726 0.998357C12.7565 1.09907 12.7183 1.19576 12.6801 1.28842C12.6419 1.38108 12.6077 1.47173 12.5916 1.56641C13.6975 1.36094 14.8397 1.25418 15.9858 1.25418C15.9979 1.25418 16.008 1.25418 16.02 1.25418C16.0281 1.25418 16.0361 1.25418 16.0441 1.25418C17.1843 1.25418 18.3184 1.36094 19.4183 1.56641L19.4163 1.56641Z" fill="#00994F"/>
<path d="M23.9421 11.5962L24.0547 11.6445C24.0386 11.2255 23.6405 11.014 23.2182 10.7884C23.0412 10.6938 22.8563 10.5951 22.7054 10.4802L22.6511 10.4379L22.6511 10.4077C22.428 10.4017 22.1867 10.2506 22.0861 10.0874C22.0821 10.0874 22.0801 10.0895 22.0761 10.0915C22.0539 10.16 22.0358 10.2345 22.0157 10.305C21.9775 10.454 21.9433 10.6051 21.9172 10.7058C21.9112 10.734 21.9051 10.7602 21.8991 10.7884C21.8991 10.8529 22.7075 11.1087 22.7075 11.1087C22.7296 11.1087 22.7477 11.1168 22.7638 11.1268C22.7718 11.1309 22.7839 11.1349 22.7919 11.1389L22.8563 11.147C23.2886 11.3162 23.6807 11.4834 23.9401 11.5942L23.9421 11.5962Z" fill="#00CC69"/>
<path d="M20.3476 2.11569C20.5085 2.23453 20.6713 2.36144 20.8262 2.48633C20.788 2.45208 20.7498 2.41985 20.7116 2.38561C20.5929 2.29094 20.4723 2.20029 20.3476 2.11569Z" fill="#00CC69"/>
<path d="M20.7731 1.00801C19.3334 0.331186 17.594 0.270753 16.0739 0.266724L16.0437 0.266724L16.0135 0.266724L15.9351 0.266724C14.417 0.270753 12.6756 0.331185 11.2359 1.00801C9.86252 1.99705 9.18488 3.03041 9.21504 4.08392C9.34775 3.87241 9.44226 3.63673 9.53275 3.40508C9.59508 3.24595 9.65742 3.08077 9.73383 2.92567L9.73383 2.91962L9.74388 2.9156C9.78812 2.88538 9.84241 2.88135 9.88866 2.87934C10.2084 2.25892 10.8418 1.87418 11.4551 1.50354C11.6823 1.36455 11.8974 1.23361 12.0985 1.09261C12.0985 1.09261 12.0985 1.09261 12.0985 1.08858C12.2192 0.808585 12.5087 0.744127 12.742 0.689739L12.7782 0.68168C13.6328 0.518518 14.4874 0.437945 15.4264 0.437945C15.6194 0.437945 15.8185 0.441974 16.0196 0.450031C16.0276 0.450031 16.0357 0.450031 16.0437 0.450031C16.2267 0.443988 16.4077 0.439959 16.5826 0.439959C17.5216 0.439959 18.3762 0.51852 19.2308 0.683697L19.267 0.691753C19.5003 0.744126 19.7918 0.810602 19.9105 1.0906C19.9105 1.0906 19.9105 1.09261 19.9105 1.09462C20.1116 1.23764 20.3267 1.36858 20.5539 1.50555C21.1672 1.87619 21.8006 2.26094 22.1203 2.88136C22.1666 2.88337 22.2209 2.8874 22.2651 2.91761L22.2712 2.92164L22.2752 2.92769C22.3516 3.08279 22.4159 3.24595 22.4763 3.4071C22.5667 3.63875 22.6592 3.87644 22.794 4.08594C22.8241 3.03243 22.1465 1.99907 20.7731 1.01002L20.7731 1.00801Z" fill="#006635"/>
<path d="M22.0501 3.0511C22.0561 3.00275 22.0642 2.95441 22.0742 2.90606C21.7646 2.2937 21.1332 1.91098 20.5239 1.54235C20.3047 1.4094 20.0795 1.27243 19.8764 1.12941C19.8684 1.12941 19.8623 1.12739 19.8563 1.12336C19.7698 1.11531 19.6894 1.07905 19.613 1.04077C19.5105 0.990415 19.4139 0.944084 19.3074 0.970271C19.3013 0.980342 19.2993 0.9884 19.2953 0.998471C19.3114 1.09113 19.3476 1.18379 19.3838 1.27041C19.424 1.37113 19.4662 1.47587 19.4783 1.58666C19.4783 1.58666 19.4803 1.58868 19.4803 1.59069C19.5366 1.61285 19.5969 1.64105 19.6572 1.67328C20.0393 1.85659 20.3811 2.10032 20.7089 2.38636C20.7471 2.41859 20.7853 2.45283 20.8235 2.48708C21.3604 2.92419 21.8048 3.34922 21.8269 3.36936C21.8611 3.40361 21.8872 3.42375 21.9194 3.42174C21.9315 3.40965 21.9415 3.39757 21.9556 3.38548C22.0139 3.28678 22.032 3.16793 22.0481 3.05513L22.0501 3.0511ZM21.7203 3.07527C21.4971 2.93225 21.3121 2.69053 21.109 2.51729C20.8094 2.26147 20.3771 2.01371 20.164 1.69544C20.4435 1.69342 20.8215 2.00968 21.0286 2.16277C21.2981 2.36219 21.5977 2.6301 21.7585 2.91211L21.7384 2.89398C21.7907 2.96045 21.7907 3.03297 21.7183 3.07527L21.7203 3.07527Z" fill="#D7DEEB"/>
<path d="M22.7293 10.4423C22.7032 10.4423 22.6811 10.4282 22.669 10.408C22.665 10.408 22.6589 10.408 22.6549 10.408L22.6549 10.4382L22.7092 10.4805C22.86 10.5954 23.043 10.6941 23.222 10.7887C23.6442 11.0123 24.0424 11.2258 24.0585 11.6448L23.9458 11.5965C23.6865 11.4857 23.2944 11.3185 22.862 11.1493L22.7977 11.1412C23.0329 11.2379 23.6865 11.5401 23.9237 11.6408L24.0625 11.6992C24.0625 11.6992 24.0705 11.6992 24.0745 11.6992C24.0906 11.6992 24.1027 11.6952 24.1168 11.6932C24.1329 11.2117 23.6844 10.9741 23.2521 10.7444C23.0752 10.6497 22.8942 10.5531 22.7474 10.4402C22.7434 10.4402 22.7394 10.4402 22.7353 10.4402L22.7293 10.4423Z" fill="#1A1F29"/>
<path d="M22.7637 11.1309C22.7496 11.1188 22.7295 11.1127 22.7074 11.1127C22.7134 11.1127 22.7335 11.1188 22.7637 11.1309Z" fill="#1A1F29"/>
<path d="M22.7841 4.25814L22.7841 4.27023C22.768 4.78389 22.7861 5.31769 22.8062 5.83336C22.8444 6.91306 22.8847 8.03102 22.6011 9.06237L22.585 9.12079L22.5931 9.13086C22.5931 9.13086 22.6092 9.12482 22.6152 9.1228C22.6172 9.10266 22.6313 9.08654 22.6494 9.07446C22.9349 8.03707 22.8967 6.91709 22.8585 5.83135C22.8404 5.31366 22.8203 4.77785 22.8384 4.26217C22.8384 4.25814 22.8384 4.25411 22.8384 4.25008C22.8203 4.22793 22.8062 4.20375 22.7902 4.1816C22.7902 4.20577 22.7902 4.22994 22.7861 4.25411L22.7861 4.26217L22.7841 4.25814Z" fill="#1A1F29"/>
<path d="M22.6534 10.3516C22.6534 10.3516 22.6554 10.3516 22.6574 10.3516C22.6614 10.138 22.6494 9.9225 22.6353 9.71503C22.6252 9.54381 22.6152 9.36654 22.6132 9.18928C22.6132 9.18928 22.6112 9.18928 22.6092 9.18928C22.6092 9.36654 22.6212 9.54179 22.6313 9.71503C22.6433 9.92452 22.6554 10.1401 22.6514 10.3516L22.6534 10.3516Z" fill="#1A1F29"/>
<path d="M21.4459 7.65204C21.4238 7.73866 21.4841 7.82528 21.5806 7.84542C21.6771 7.86556 21.7716 7.81118 21.7937 7.72255C21.9868 6.95508 21.9285 6.13725 21.8661 5.27309C21.832 4.81382 21.4419 3.3232 21.4419 3.83888C21.4419 4.35455 21.476 4.82994 21.5102 5.29525L21.4479 7.65204L21.4459 7.65204Z" fill="#99FFCE"/>
<path d="M20.5796 30.6712C20.5635 30.7699 20.5635 30.9895 20.4891 31.207C20.8169 31.207 21.1145 31.0761 21.3719 30.8888C21.4161 30.7296 21.4523 30.5705 21.4805 30.4093C21.203 30.5403 20.8712 30.6209 20.5816 30.6712L20.5796 30.6712Z" fill="#F5222D"/>
<path d="M21.4808 30.4093C21.4526 30.5704 21.4164 30.7295 21.3722 30.8887C21.7824 30.5905 22.088 30.1494 22.2409 29.8755C22.2851 29.7949 22.2509 29.8573 22.2851 29.7828C22.3112 29.6821 22.3354 29.5793 22.3555 29.4746C22.263 29.6116 22.1564 29.7627 21.9372 30.0628C21.8327 30.2058 21.6698 30.3186 21.4788 30.4072L21.4808 30.4093Z" fill="#FAAD14"/>
<path d="M22.7148 29.0432C22.7088 29.0835 22.7008 29.1238 22.6947 29.1641C22.7048 29.1218 22.7108 29.0835 22.7148 29.0432Z" fill="#1A1F29"/>
<path d="M21.8066 29.9833C21.6216 30.2351 21.1571 30.4325 20.4955 30.5372L20.4613 30.5433C20.4453 30.6742 20.4292 30.8031 20.4171 30.928C20.4272 30.9401 20.4312 30.9542 20.4211 30.9683L20.4071 30.9864C20.3528 31.1516 20.4674 31.3369 20.3347 31.343C20.6685 31.3792 20.9761 31.2906 21.2435 31.1476C21.0666 31.2705 20.8856 31.3672 20.7167 31.4215L20.767 31.4095L20.763 31.4155L20.7408 31.4155L20.7167 31.4215C20.6886 31.4276 20.6624 31.4336 20.6363 31.4397L20.6262 31.4276L20.2381 31.5424C19.3474 31.629 18.4928 31.6774 17.6402 31.7015C17.1194 31.7176 16.5986 31.7237 16.0718 31.7257L15.9371 31.7257C15.4102 31.7237 14.8894 31.7176 14.3686 31.7015C13.5181 31.6774 12.6615 31.629 11.7707 31.5424L11.3826 31.4276L11.3705 31.4397C11.3464 31.4336 11.3182 31.4276 11.2921 31.4215L11.268 31.4175L11.2459 31.4175L11.2418 31.4095L11.2921 31.4215C11.1232 31.3692 10.9422 31.2725 10.7653 31.1476C11.0327 31.2906 11.3404 31.3792 11.6742 31.343C11.5414 31.3389 11.6561 31.1516 11.6018 30.9864L11.5877 30.9683C11.5776 30.9562 11.5817 30.9401 11.5917 30.928C11.5797 30.8031 11.5636 30.6742 11.5475 30.5433L11.5133 30.5372C10.8517 30.4305 10.3872 30.2331 10.2023 29.9833C9.90868 29.5824 9.81819 29.4475 9.69352 29.2601C9.65934 29.2098 9.62315 29.1534 9.57891 29.0889C9.60103 29.2178 9.62516 29.3447 9.6513 29.4737C9.74379 29.6106 9.85037 29.7617 10.0695 30.0618C10.1741 30.2049 10.337 30.3177 10.528 30.4063C10.8055 30.5372 11.1373 30.6178 11.4268 30.6682C11.4429 30.7669 11.4429 30.9864 11.5173 31.204C11.1896 31.204 10.892 31.0731 10.6346 30.8857C10.2244 30.5876 9.91873 30.1465 9.76591 29.8725C9.72168 29.7919 9.75586 29.8544 9.72168 29.7798C9.75184 29.8926 9.78401 30.0034 9.8202 30.1102C9.81819 30.1042 9.81618 30.1021 9.8202 30.1122L9.71162 30.1968C9.95091 30.787 10.5883 31.2624 11.1755 31.4437C11.1795 31.4437 11.1835 31.4397 11.1875 31.4397C11.1896 31.4397 11.1916 31.4397 11.1936 31.4397C11.3062 31.4659 11.4288 31.49 11.5555 31.5142C11.6038 31.5223 11.6802 31.5364 11.7506 31.5484C11.827 31.5625 11.9054 31.5746 11.9858 31.5867C13.1802 31.7015 14.435 31.7539 16.0195 31.7539L16.0396 31.7539C17.596 31.7539 18.8346 31.7015 20.015 31.5867C20.0954 31.5746 20.1738 31.5625 20.2502 31.5484C20.3226 31.5364 20.397 31.5223 20.4453 31.5142C20.5719 31.49 20.6946 31.4659 20.8072 31.4397C20.8092 31.4397 20.8112 31.4397 20.8132 31.4397C20.8173 31.4397 20.8213 31.4437 20.8253 31.4437C21.4125 31.2624 22.0499 30.787 22.2892 30.1968L22.1806 30.1122C22.1866 30.1001 22.1846 30.1042 22.1806 30.1102C22.2188 30.0014 22.251 29.8906 22.2791 29.7798C22.2449 29.8544 22.2791 29.7899 22.2349 29.8725C22.0841 30.1465 21.7764 30.5876 21.3662 30.8857C21.1088 31.0731 20.8112 31.204 20.4835 31.204C20.5559 30.9864 20.5579 30.7669 20.574 30.6682C20.8635 30.6178 21.1973 30.5372 21.4728 30.4063C21.6618 30.3157 21.8267 30.2029 21.9312 30.0619C22.1504 29.7617 22.257 29.6086 22.3495 29.4737C22.3756 29.3468 22.3998 29.2178 22.4219 29.0889C22.3776 29.1534 22.3414 29.2078 22.3073 29.2601C22.1826 29.4475 22.0921 29.5824 21.7985 29.9833L21.8066 29.9833Z" fill="#1A1F29"/>
<path d="M21.7623 2.91301C21.6035 2.631 21.3019 2.36309 21.0324 2.16367C20.8233 2.01058 20.4473 1.69433 20.1678 1.69634C20.3789 2.01461 20.8132 2.26238 21.1129 2.5182C21.3139 2.69143 21.4989 2.93315 21.7241 3.07617C21.7965 3.03387 21.7965 2.95934 21.7442 2.89488L21.7644 2.91301L21.7623 2.91301Z" fill="white"/>
<path d="M10.1419 16.7362L10.1238 16.7281L10.1238 16.71C9.98703 15.3765 9.99508 13.9725 10.0031 12.6148C10.0051 12.079 10.0092 11.5271 10.0031 10.9892C9.79601 11.0597 9.59091 11.1343 9.39385 11.2088C9.37977 12.1314 9.35363 14.5405 9.33151 16.9819C9.46222 17.0182 9.6633 17.0786 9.88448 17.1471C10.353 17.2881 10.9784 17.4775 11.1895 17.5117C11.1895 17.5037 11.1895 17.4956 11.1915 17.4875C11.2036 17.3747 11.2136 17.2599 11.1613 17.1673C10.7833 17.0665 10.4435 16.8913 10.1419 16.7362Z" fill="#00CC69"/>
<path d="M10.4731 8.92691C10.3987 9.02762 10.3966 9.1505 10.3946 9.28345C10.3946 9.34589 10.3946 9.41035 10.3826 9.4728C10.3826 9.4728 10.3806 9.47481 10.3806 9.47682C10.5374 10.0408 10.6721 10.6331 10.8028 11.2072C10.9979 12.0673 11.201 12.9536 11.4865 13.7734C12.884 13.3565 14.382 13.1429 15.9464 13.1409L15.9485 13.1409C15.9485 13.1409 15.9645 13.1409 15.9726 13.1409C15.9867 13.1409 16.0028 13.1409 16.0188 13.1409C16.0269 13.1409 16.0349 13.1409 16.043 13.1409C16.043 13.1409 16.053 13.1409 16.0591 13.1409L16.0611 13.1409C17.6255 13.1429 19.1255 13.3565 20.521 13.7734C20.8045 12.9556 21.0076 12.0673 21.2047 11.2072C21.3354 10.6331 21.4701 10.0408 21.627 9.47682C21.627 9.47682 21.6249 9.47481 21.6249 9.4728C21.6149 9.41035 21.6149 9.34589 21.6129 9.28345C21.6129 9.1505 21.6089 9.02561 21.5345 8.92691C21.5324 8.92489 21.5345 8.92086 21.5324 8.91683C20.0063 7.98822 18.0638 7.47657 16.043 7.47053C16.043 7.47053 16.0269 7.47053 16.0188 7.47053C13.9779 7.4665 12.0133 7.97815 10.4731 8.91683C10.4731 8.92086 10.4731 8.92288 10.471 8.92691L10.4731 8.92691ZM12.7392 12.0854C13.9336 12.2627 14.8425 12.2788 16.043 12.2526C17.2032 12.2768 18.1 12.2586 19.2683 12.0854C20.4788 11.9061 20.9151 10.0791 21.2952 9.34186C21.1444 9.96631 20.891 11.1991 20.6577 11.8074C20.5009 13.5438 18.5162 12.7119 16.043 12.7401C13.5335 12.6917 11.5086 13.5619 11.3498 11.8074C11.1165 11.2011 10.8632 9.96631 10.7123 9.34186C11.0924 10.0811 11.5307 11.9061 12.7392 12.0854Z" fill="#364258"/>
<path d="M11.1954 21.609C11.1914 21.4941 11.1894 21.3773 11.1954 21.2605C11.1954 21.2605 11.1954 21.2585 11.1954 21.2564L11.1954 17.9589C10.8596 17.9267 10.5218 17.8602 10.2242 17.7676C10.2101 17.7656 10.196 17.7656 10.182 17.7656C10.1458 19.3247 10.2262 20.9402 10.3046 22.5013C10.3147 22.6947 10.3247 22.8881 10.3328 23.0794C10.3971 23.0875 10.4615 23.0935 10.5158 23.0794C10.6203 22.9586 10.7128 22.8256 10.8013 22.6967C10.9099 22.5416 11.0225 22.3845 11.1532 22.2435C11.1532 22.2435 11.1532 22.2394 11.1532 22.2374C11.2095 22.036 11.2035 21.8164 11.1974 21.6069L11.1954 21.609Z" fill="#364258"/>
<path d="M11.1731 22.3298C11.0605 22.4567 10.9599 22.5978 10.8634 22.7347C10.7709 22.8677 10.6744 23.0046 10.5658 23.1295L10.5598 23.1376L10.5497 23.1416C10.4713 23.1678 10.3849 23.1577 10.3084 23.1477L10.2602 23.1416L10.2602 23.1134C10.2501 22.912 10.2381 22.7085 10.228 22.5071C10.1496 20.9339 10.0692 19.3063 10.1074 17.7351L10.1074 17.7049L10.1415 17.7029C10.1556 17.7029 10.1697 17.7009 10.1838 17.7009C10.2019 17.7009 10.22 17.7009 10.2401 17.7069C10.5357 17.7975 10.8654 17.862 11.1932 17.8942C11.1932 17.86 11.1932 17.8258 11.1932 17.7915C11.1932 17.717 11.1952 17.6445 11.1852 17.574C10.97 17.5417 10.3607 17.3564 9.86205 17.2053C9.6489 17.1409 9.45788 17.0825 9.32919 17.0462C9.30506 19.5238 9.25881 21.9008 9.25479 22.9019C9.25479 22.9241 9.27087 23.0651 9.25479 23.0792C9.31712 23.2262 9.35332 23.3874 9.3875 23.5425C9.42772 23.7338 9.47195 23.9333 9.56646 24.1065C9.57853 24.1166 9.5926 24.1287 9.60467 24.1387C9.61874 24.1528 9.63483 24.1649 9.65091 24.179C9.7595 24.2294 9.8721 24.1971 9.98873 24.1629C10.031 24.1508 10.0732 24.1387 10.1154 24.1307C10.1154 24.1307 10.1295 24.1287 10.1476 24.1246C10.1798 24.1085 10.1999 24.0964 10.2019 24.0964C10.2079 24.1005 10.2099 24.1065 10.2119 24.1105L10.2622 24.1105C10.2783 24.1105 10.2903 24.1065 10.2903 24.1065C10.4995 23.6613 10.785 23.194 11.1409 22.7186C11.1409 22.7186 11.1409 22.7146 11.1409 22.7126C11.1409 22.7085 11.1389 22.7065 11.1409 22.7025C11.1852 22.5796 11.1972 22.4487 11.1771 22.3278L11.1731 22.3298Z" fill="#00CC69"/>
<path d="M11.1366 15.6938C11.0562 14.3341 10.6922 12.9886 10.3403 11.6893C10.272 11.4395 10.2056 11.1897 10.1392 10.94C10.1191 10.946 10.099 10.9541 10.0789 10.9601C10.085 11.506 10.0829 12.068 10.0789 12.6119C10.0709 13.9635 10.0648 15.3595 10.1955 16.6829C10.4831 16.8319 10.8068 16.9931 11.1607 17.0918C11.1869 16.8924 11.1688 16.6104 11.1507 16.3364C11.1346 16.0947 11.1185 15.8651 11.1326 15.6979C11.1326 15.6979 11.1326 15.6959 11.1346 15.6938L11.1366 15.6938Z" fill="#364258"/>
<path d="M12.0545 7.53027C11.586 7.69947 11.0571 7.91098 10.7354 8.27759C10.7354 8.27759 10.7334 8.27759 10.7314 8.27759C10.7012 8.35414 10.661 8.42665 10.6208 8.49716C10.5544 8.61197 10.4961 8.72277 10.478 8.84766C12.0002 7.93113 13.9285 7.42552 15.9333 7.41344L15.9896 7.41344C15.9896 7.41344 15.9956 7.41344 15.9976 7.41344L16.0379 7.41344C16.0379 7.41344 16.0399 7.41344 16.0419 7.41344L16.072 7.41344C18.0768 7.42351 20.0052 7.93113 21.5273 8.84766C21.5092 8.72277 21.4509 8.61198 21.3846 8.49716C21.3444 8.42666 21.3041 8.35414 21.274 8.27759C21.274 8.27759 21.272 8.27759 21.27 8.27759C20.9482 7.91098 20.4194 7.69948 19.9509 7.53027C19.5548 7.38725 19.1385 7.27042 18.7142 7.17977C17.8757 7.00251 16.9749 6.91186 16.0399 6.91388C16.0399 6.91388 16.0238 6.91388 16.0157 6.91388C15.0606 6.90985 14.1417 7.00049 13.2871 7.18179C12.8628 7.27243 12.4466 7.38926 12.0505 7.53228L12.0545 7.53027Z" fill="#00994F"/>
<path d="M10.2045 29.983C10.3895 30.2348 10.8539 30.4322 11.5155 30.5369L11.5497 30.543C11.5175 30.2851 11.4813 30.0172 11.4431 29.7392C11.3225 28.863 11.1978 27.9586 11.2038 27.1971C11.2038 27.1951 11.2058 27.1931 11.2078 27.1911C11.2078 27.1911 11.2078 27.1911 11.2078 27.1891C11.242 26.3249 11.3707 25.4426 11.4954 24.5885C11.5497 24.226 11.604 23.8493 11.6502 23.4827C11.6462 23.4766 11.6422 23.4726 11.6422 23.4645C11.6844 22.6568 11.6985 21.9356 11.6864 21.2568C11.6864 21.2528 11.6904 21.2487 11.6904 21.2467C11.6965 18.7691 11.6744 16.9662 11.6221 15.7415C11.6221 15.7415 11.6221 15.7415 11.6221 15.7395C11.5597 15.0002 11.4954 14.3899 11.423 13.8198C11.423 13.8158 11.425 13.8138 11.427 13.8097C11.1395 12.9839 10.9344 12.0895 10.7373 11.2213C10.6066 10.6492 10.4739 10.059 10.3151 9.49903C10.0697 9.50508 9.86263 9.40638 9.66356 9.30767C9.57508 9.26336 9.48862 9.22508 9.40014 9.19084C9.40014 9.3681 9.38808 9.54335 9.37802 9.71658C9.36596 9.92608 9.35188 10.1416 9.3559 10.3531C9.56503 10.3471 9.79627 10.196 9.8767 10.0449L9.88675 10.0268L9.90887 10.0268C9.93501 10.0308 9.95914 10.0429 9.97523 10.051L9.98729 10.057L9.99132 10.0691C10.0697 10.3189 10.1381 10.5928 10.1904 10.8587C10.1964 10.8628 10.2045 10.8688 10.2085 10.8769C10.2125 10.8869 10.2105 10.897 10.2085 10.9051C10.2769 11.1609 10.3452 11.4187 10.4156 11.6745C10.7695 12.9798 11.1335 14.3295 11.2139 15.6972C11.2139 15.7012 11.2179 15.7032 11.2159 15.7053C11.2018 15.8684 11.2159 16.094 11.234 16.3337C11.2541 16.6238 11.2722 16.9219 11.242 17.1274C11.3084 17.2422 11.2963 17.3752 11.2843 17.494C11.2843 17.5081 11.2822 17.5222 11.2802 17.5383C11.2963 17.6229 11.2943 17.7075 11.2923 17.7901C11.2923 17.8364 11.2923 17.8828 11.2923 17.9291L11.2923 21.2548C11.2923 21.2548 11.2903 21.2588 11.2903 21.2608C11.2843 21.3736 11.2863 21.4925 11.2903 21.6053C11.2963 21.8228 11.3024 22.0464 11.244 22.2579C11.244 22.2579 11.244 22.2579 11.242 22.26C11.2782 22.405 11.2702 22.5742 11.2139 22.7253C11.2139 22.7595 11.2099 22.7978 11.2078 22.8381C11.1978 23.0294 11.1757 23.2228 11.1455 23.4142C10.9464 24.9189 10.3895 27.7954 10.3854 27.7994C10.3834 27.7994 10.8519 23.6559 10.2748 24.1555L10.2185 24.1555C10.2185 24.1575 10.2085 24.1615 10.2004 24.1655C10.1783 24.1776 10.1461 24.1937 10.1341 24.1897C10.0939 24.1978 10.0537 24.2078 10.0134 24.2199C9.88675 24.2562 9.75404 24.2965 9.61731 24.23L9.61128 24.226C9.59318 24.2119 9.57709 24.1978 9.56101 24.1816C9.54693 24.1696 9.53486 24.1575 9.52079 24.1454L9.51275 24.1353C9.41221 23.952 9.36797 23.7465 9.32574 23.5491C9.30161 23.4404 9.27748 23.3316 9.2433 23.2248C9.22721 23.1866 9.21515 23.1644 9.20107 23.1523C9.15683 24.093 9.13472 25.4104 9.20912 26.5304C9.24129 26.9353 9.27949 27.2958 9.3177 27.5597C9.32373 27.604 9.33177 27.6483 9.33781 27.6906C9.34183 27.6967 9.34786 27.7007 9.34987 27.7088C9.42226 28.023 9.47253 28.3514 9.52079 28.6676C9.5409 28.8066 9.56302 28.9456 9.58714 29.0866C9.63138 29.1511 9.66758 29.2054 9.70176 29.2578C9.82643 29.4451 9.91692 29.5801 10.2105 29.981L10.2045 29.983Z" fill="#00CC69"/>
<path d="M11.2468 31.4158L11.2689 31.4178L11.291 31.4219L11.2428 31.4078L11.2468 31.4158Z" fill="#00CC69"/>
<path d="M10.7639 31.1484C10.9409 31.2713 11.1218 31.368 11.2908 31.4224C11.3189 31.4284 11.345 31.4345 11.3692 31.4405L11.3812 31.4284L11.7693 31.5433C12.6601 31.6299 13.5147 31.6782 14.3673 31.7024C14.8961 31.7165 15.4189 31.7245 15.9357 31.7266L16.0704 31.7266C16.5872 31.7245 17.11 31.7185 17.6388 31.7024C18.4894 31.6782 19.346 31.6299 20.2368 31.5433L20.6249 31.4284L20.6349 31.4405C20.6591 31.4345 20.6872 31.4284 20.7154 31.4224C20.8843 31.37 21.0652 31.2733 21.2422 31.1484C20.9748 31.2915 20.6671 31.3801 20.3333 31.3438C19.2897 31.3821 17.6348 31.4063 16.0423 31.4123C14.4256 31.4063 12.7345 31.3821 11.6728 31.3438C11.339 31.3801 11.0334 31.2915 10.7639 31.1484Z" fill="#00CC69"/>
<path d="M9.3031 10.4802C9.15229 10.5951 8.96931 10.6938 8.79035 10.7884C8.36808 11.012 7.96994 11.2255 7.95386 11.6445L8.06646 11.5962C8.32586 11.4854 8.71796 11.3182 9.15028 11.149L9.21463 11.1409C9.21463 11.1409 9.23474 11.1329 9.24278 11.1289C9.25886 11.1168 9.27696 11.1107 9.29908 11.1107C9.29908 11.1107 10.1074 10.8549 10.1074 10.7904C10.1014 10.7622 10.0954 10.7361 10.0893 10.7079C10.0632 10.6051 10.029 10.4561 9.9908 10.307C9.97069 10.2345 9.95259 10.162 9.93047 10.0935C9.92645 10.0935 9.92444 10.0915 9.92042 10.0895C9.81988 10.2526 9.57858 10.4037 9.35538 10.4097L9.35538 10.4399L9.30109 10.4822L9.3031 10.4802Z" fill="#00CC69"/>
<path d="M11.1835 2.48633C11.3384 2.36144 11.4992 2.23453 11.6621 2.11569C11.5374 2.20029 11.4168 2.29094 11.2982 2.38561C11.26 2.41784 11.2217 2.45208 11.1835 2.48633Z" fill="#00CC69"/>
<path d="M9.22427 4.25845L9.22427 4.27053C9.24036 4.78419 9.22226 5.31799 9.20416 5.83367C9.16596 6.91336 9.12574 8.03133 9.40927 9.06268L9.42535 9.12109L9.41731 9.13116C9.51182 9.16541 9.60431 9.21174 9.6948 9.25605C9.88381 9.34871 10.0789 9.44339 10.3041 9.44137C10.3101 9.39101 10.3121 9.34066 10.3121 9.28627C10.3141 9.14929 10.3161 9.00627 10.4046 8.88944C10.4046 8.88944 10.4086 8.88743 10.4106 8.88541C10.4207 8.73232 10.4931 8.6034 10.5635 8.4765C10.6037 8.40801 10.6439 8.33549 10.672 8.26096C10.672 8.25492 10.672 8.24686 10.6781 8.24082C11.0119 7.86212 11.5488 7.64659 12.0273 7.47335C12.4275 7.33033 12.8457 7.21149 13.274 7.12084C14.1206 6.94156 15.0274 6.85092 15.9705 6.85092C15.9866 6.85092 16.0027 6.85092 16.0188 6.85092L16.0429 6.85092C16.9839 6.85092 17.8888 6.94156 18.7333 7.12084C19.1616 7.21149 19.5799 7.33033 19.98 7.47335C20.4586 7.64659 20.9955 7.86212 21.3293 8.24082C21.3353 8.24686 21.3353 8.25291 21.3353 8.26096C21.3635 8.3355 21.4037 8.40801 21.4439 8.4765C21.5143 8.60139 21.5867 8.73232 21.5967 8.88541C21.5987 8.88541 21.6007 8.88743 21.6027 8.88944C21.6912 9.00829 21.6932 9.14929 21.6952 9.28627C21.6952 9.34066 21.6973 9.39102 21.7033 9.44137C21.9285 9.44339 22.1235 9.34871 22.3126 9.25605C22.403 9.21174 22.4935 9.16742 22.59 9.13116L22.582 9.12109L22.5981 9.06268C22.8816 8.03133 22.8414 6.91336 22.8032 5.83367C22.7851 5.318 22.767 4.78621 22.7831 4.27053L22.7831 4.25845L22.7831 4.25039C22.7851 4.22622 22.7851 4.20204 22.7871 4.17787C22.6262 3.94622 22.5197 3.68234 22.4191 3.42249C22.3588 3.26738 22.2965 3.10624 22.2221 2.95516C22.1939 2.93905 22.1597 2.93703 22.1276 2.93502C22.1195 2.97732 22.1115 3.01962 22.1054 3.06192C22.0873 3.18077 22.0692 3.30566 22.0049 3.41443L21.9989 3.42048C21.9848 3.43256 21.9727 3.44465 21.9587 3.46076L21.9526 3.46681L21.9426 3.46681C21.8943 3.47755 21.8025 3.44062 21.6671 3.35602C21.6671 3.35602 21.6611 3.35602 21.657 3.35602C21.655 3.35602 21.653 3.35602 21.649 3.35602C21.645 3.35602 21.8822 3.59573 21.6329 3.34595C20.9593 2.66711 20.2977 1.98223 19.4532 1.63777C19.4492 1.63777 19.4472 1.63979 19.4431 1.63777C18.3352 1.42828 17.189 1.32152 16.0409 1.32152C16.0409 1.32152 16.0228 1.32152 16.0167 1.32152C14.8485 1.31951 13.6862 1.42627 12.5602 1.63979C12.5562 1.63979 12.5542 1.63979 12.5501 1.63979C11.7056 1.98424 11.044 2.67114 10.3704 3.34796C10.1211 3.59774 10.3584 3.35602 10.3543 3.35803C10.3523 3.35803 10.3503 3.35803 10.3463 3.35803C10.3423 3.35803 10.3403 3.35803 10.3362 3.35803C10.2009 3.44398 10.109 3.48158 10.0608 3.47083L10.0507 3.47083L10.0447 3.46278C10.0306 3.44666 10.0185 3.43458 10.0045 3.42249L9.99843 3.41645C9.93208 3.30767 9.91599 3.1848 9.89789 3.06393C9.89186 3.02163 9.88381 2.97933 9.87577 2.93703C9.84159 2.93703 9.8074 2.94307 9.78126 2.95717C9.70686 3.10825 9.64453 3.2694 9.58421 3.42451C9.48367 3.68436 9.37709 3.94824 9.21623 4.17989C9.21623 4.20406 9.21623 4.22823 9.22025 4.2524L9.22025 4.26046L9.22427 4.25845ZM21.8641 5.2757C21.9265 6.13985 21.9868 6.95768 21.7918 7.72515C21.7696 7.81176 21.6751 7.86817 21.5786 7.84802C21.4821 7.82788 21.4218 7.74126 21.4439 7.65465L21.5062 5.29785C21.472 4.83254 21.4379 4.35111 21.4379 3.84148C21.4379 3.33184 21.828 4.81642 21.8621 5.2757L21.8641 5.2757ZM10.1432 5.2757C10.1774 4.81642 10.5675 3.3258 10.5675 3.84147C10.5675 4.35715 10.5333 4.83254 10.4991 5.29785L10.5615 7.65464C10.5836 7.74126 10.5232 7.82788 10.4267 7.84802C10.3302 7.86817 10.2357 7.81378 10.2136 7.72515C10.0205 6.95768 10.0789 6.13985 10.1412 5.2757L10.1432 5.2757Z" fill="#00CC69"/>
<path d="M12.7129 1.00021C12.7129 1.00021 12.7069 0.982083 12.7008 0.972011C12.5943 0.94381 12.4977 0.992156 12.3952 1.04251C12.3188 1.08079 12.2383 1.11705 12.1519 1.1251C12.1458 1.12913 12.1398 1.13115 12.1318 1.13115C11.9287 1.27417 11.7015 1.41316 11.4843 1.54409C10.873 1.91272 10.2436 2.29544 9.93397 2.9078C9.94402 2.95615 9.95207 3.00449 9.9581 3.05284C9.97418 3.16765 9.99228 3.28449 10.0506 3.38319C10.0627 3.39528 10.0747 3.40736 10.0848 3.41945C10.119 3.42348 10.1431 3.40132 10.1773 3.36708C10.1974 3.34693 10.6438 2.92392 11.1807 2.48479C11.2189 2.45055 11.2571 2.41832 11.2953 2.38407C11.623 2.10005 11.9649 1.8543 12.3469 1.67099C12.4072 1.63876 12.4676 1.61056 12.5239 1.5884C12.5239 1.5884 12.5239 1.58639 12.5259 1.58438C12.54 1.47359 12.5802 1.36884 12.6224 1.26812C12.6586 1.17949 12.6948 1.08885 12.7109 0.996186L12.7129 1.00021ZM10.8992 2.51903C10.6981 2.69227 10.5131 2.93399 10.2879 3.07701C10.2155 3.03471 10.2155 2.96018 10.2678 2.89572L10.2477 2.91385C10.4085 2.63184 10.7081 2.36393 10.9776 2.16451C11.1867 2.01142 11.5627 1.69516 11.8422 1.69718C11.6311 2.01545 11.1967 2.26321 10.8971 2.51903L10.8992 2.51903Z" fill="#D7DEEB"/>
<path d="M7.95377 11.7011L8.09252 11.6427C8.32778 11.542 8.9833 11.2398 9.21856 11.1431L9.15422 11.1512C8.72189 11.3204 8.32979 11.4876 8.0704 11.5984L7.95779 11.6467C7.97388 11.2277 8.37202 11.0162 8.79428 10.7906C8.97324 10.6959 9.15623 10.5972 9.30704 10.4824L9.36133 10.4401L9.36133 10.4099C9.36133 10.4099 9.35128 10.4099 9.34524 10.4099C9.33318 10.4301 9.31106 10.4421 9.28492 10.4442C9.28492 10.4442 9.27688 10.4442 9.27285 10.4442C9.12607 10.557 8.94509 10.6536 8.76814 10.7483C8.33582 10.978 7.88942 11.2177 7.9035 11.6971C7.91758 11.7011 7.92964 11.7011 7.94573 11.7031C7.94975 11.7031 7.95377 11.7031 7.95779 11.7031L7.95377 11.7011Z" fill="#1A1F29"/>
<path d="M9.30078 11.1127C9.27866 11.1127 9.26057 11.1208 9.24448 11.1309C9.27464 11.1188 9.29475 11.1127 9.30078 11.1127Z" fill="#1A1F29"/>
<path d="M9.21456 4.08379C9.1844 3.03029 9.86204 1.99693 11.2354 1.00788C12.6751 0.331057 14.4145 0.270625 15.9346 0.266596L15.995 0.266596L16.0151 0.266596L16.0754 0.266596C17.5936 0.270625 19.3349 0.331057 20.7746 1.00788C22.148 1.99693 22.8257 3.03029 22.7955 4.08379C22.8116 4.10797 22.8277 4.13012 22.8437 4.1543C22.9061 3.0605 22.2224 1.98887 20.8028 0.967593C19.3751 0.292785 17.676 0.220268 16.0452 0.218254C16.0452 0.218254 16.0292 0.218254 16.0211 0.218254C14.3743 0.218254 12.651 0.286742 11.2093 0.967592C9.78965 1.98887 9.10397 3.0605 9.16831 4.1543C9.1844 4.13012 9.2025 4.10796 9.21657 4.08379L9.21456 4.08379Z" fill="#1A1F29"/>
<path d="M9.39556 9.12085C9.39556 9.12085 9.41165 9.12488 9.41969 9.12891L9.42773 9.11883L9.41165 9.06042C9.12812 8.02907 9.16834 6.9111 9.20655 5.83141C9.22464 5.31574 9.24274 4.78395 9.22665 4.26828L9.22665 4.25619L9.22665 4.24813C9.22464 4.22396 9.22464 4.19979 9.22263 4.17561C9.20655 4.19777 9.19046 4.22194 9.17437 4.2441C9.17437 4.24813 9.17437 4.25216 9.17437 4.25619C9.19046 4.77186 9.17236 5.30768 9.15427 5.82537C9.11606 6.9111 9.07785 8.0331 9.36339 9.06848C9.38149 9.07855 9.39556 9.09466 9.39757 9.11682L9.39556 9.12085Z" fill="#1A1F29"/>
<path d="M9.39844 9.18928C9.39844 9.18928 9.39643 9.18928 9.39442 9.18928C9.39442 9.36654 9.38436 9.54381 9.3723 9.71503C9.36023 9.92452 9.34616 10.1401 9.35018 10.3516C9.35018 10.3516 9.35219 10.3516 9.3542 10.3516C9.35018 10.138 9.36224 9.9225 9.37632 9.71503C9.38637 9.54381 9.39643 9.36654 9.39844 9.18928Z" fill="#1A1F29"/>
<path d="M10.4296 7.84552C10.5261 7.82538 10.5864 7.73876 10.5643 7.65214L10.5019 5.29535C10.5361 4.83004 10.5703 4.34861 10.5703 3.83898C10.5703 3.32934 10.1802 4.81392 10.146 5.27319C10.0837 6.13735 10.0234 6.95518 10.2184 7.72265C10.2405 7.80926 10.335 7.86566 10.4316 7.84552L10.4296 7.84552Z" fill="#99FFCE"/>
<path d="M11.5195 31.207C11.4471 30.9895 11.4451 30.7699 11.429 30.6712C11.1394 30.6209 10.8056 30.5403 10.5302 30.4093C10.5583 30.5705 10.5945 30.7296 10.6387 30.8888C10.8961 31.0761 11.1937 31.207 11.5215 31.207L11.5195 31.207Z" fill="#F5222D"/>
<path d="M10.6367 30.8886C10.5925 30.7295 10.5563 30.5703 10.5281 30.4092C10.3391 30.3185 10.1742 30.2057 10.0697 30.0647C9.8505 29.7646 9.74392 29.6115 9.65143 29.4765C9.67355 29.5793 9.69566 29.682 9.72181 29.7847C9.75599 29.8593 9.72181 29.7948 9.76604 29.8774C9.91685 30.1514 10.2245 30.5925 10.6347 30.8906L10.6367 30.8886Z" fill="#FAAD14"/>
<path d="M9.3125 29.1641C9.30647 29.1238 9.29842 29.0835 9.29239 29.0432C9.29641 29.0815 9.30245 29.1218 9.3125 29.1641Z" fill="#1A1F29"/>
<path d="M7.65788 11.7337C7.65788 11.7337 7.74033 11.9634 7.95347 11.915C8.01379 11.9009 8.19275 11.8425 8.19275 11.8425C8.40791 11.7519 8.71355 11.6209 9.0574 11.4819C9.02724 13.732 8.95887 20.8426 8.95083 22.9154C8.8724 24.3335 8.82414 26.2089 9.03729 27.4698C9.03126 27.496 9.06343 27.7398 9.06946 27.766C9.13984 28.0701 9.19011 28.3944 9.23636 28.7067C9.25446 28.8174 9.27054 28.9302 9.28864 29.0431C9.29467 29.0833 9.30271 29.1236 9.30875 29.1639C9.36907 29.5205 9.44347 29.877 9.56412 30.2174C9.57417 30.2476 9.59227 30.2738 9.61841 30.296C10.107 31.4744 11.4402 31.7181 11.4704 31.708C12.146 31.8571 14.5348 31.988 15.9142 31.9961L15.9645 31.9961L15.9926 31.9961L16.0429 31.9961L16.0932 31.9961C17.4726 31.9901 19.8614 31.8571 20.533 31.7101C20.5632 31.7201 21.8984 31.4764 22.387 30.298C22.4111 30.2758 22.4292 30.2497 22.4413 30.2194C22.5619 29.877 22.6363 29.5205 22.6966 29.1659C22.7027 29.1256 22.7107 29.0854 22.7167 29.0451C22.7348 28.9323 22.7529 28.8195 22.769 28.7087C22.8173 28.3964 22.8655 28.0721 22.9359 27.768C22.942 27.7418 22.9741 27.498 22.9681 27.4719C23.1812 26.2109 23.133 24.3355 23.0546 22.9174C23.0465 20.8446 22.9782 13.734 22.948 11.4839C23.2918 11.6209 23.5995 11.7519 23.8126 11.8445C23.8126 11.8445 23.9916 11.9029 24.0519 11.917C24.2651 11.9654 24.3475 11.7357 24.3475 11.7357C24.3877 11.1032 23.8448 10.8152 23.3662 10.5594C23.2154 10.4788 23.0706 10.4022 22.948 10.3176C22.948 10.1102 22.9379 9.90268 22.9239 9.70326C22.9118 9.51593 22.8997 9.32255 22.9017 9.13521C22.9017 9.1191 22.9017 9.105 22.8957 9.08888C23.1772 8.03336 23.137 6.91137 23.0988 5.82765C23.0807 5.31399 23.0626 4.7822 23.0787 4.27458L23.0787 4.26854C23.1933 3.06396 22.4775 1.89563 20.9472 0.795797L20.9151 0.777668C19.4231 0.0706306 17.6455 0.00617159 16.0932 0.000127071L15.9122 0.000127055C14.3599 0.00415715 12.5823 0.07063 11.0903 0.777667L11.0581 0.795796C9.52793 1.89563 8.81007 3.06396 8.9267 4.26854L8.9267 4.27458C8.94278 4.7822 8.92469 5.31399 8.90659 5.82764C8.86838 6.91338 8.82817 8.03336 9.10968 9.08888C9.10566 9.105 9.10365 9.1191 9.10365 9.13521C9.10365 9.32255 9.09158 9.51593 9.08153 9.70326C9.06946 9.90469 9.0574 10.1102 9.0574 10.3176C8.93675 10.4022 8.79197 10.4788 8.63915 10.5594C8.16058 10.8152 7.61566 11.1032 7.65788 11.7357L7.65788 11.7337ZM11.1506 16.3385C11.1687 16.6125 11.1868 16.8945 11.1607 17.0939C10.8048 16.9952 10.481 16.8321 10.1955 16.685C10.0628 15.3616 10.0708 13.9656 10.0789 12.614C10.0809 12.0701 10.0849 11.5081 10.0789 10.9622C10.099 10.9562 10.1191 10.9481 10.1392 10.9421C10.2056 11.1919 10.2719 11.4416 10.3403 11.6914C10.6922 12.9927 11.0561 14.3363 11.1366 15.696C11.1366 15.696 11.1366 15.698 11.1346 15.7C11.1205 15.8692 11.1346 16.0968 11.1526 16.3385L11.1506 16.3385ZM11.1366 22.716C11.1366 22.716 11.1366 22.72 11.1366 22.722C10.7807 23.1994 10.4951 23.6647 10.286 24.1099C10.286 24.1099 10.2739 24.1099 10.2578 24.1139C10.2257 24.118 10.1754 24.124 10.1432 24.128C10.1251 24.13 10.1111 24.1321 10.1111 24.1341C10.0688 24.1421 10.0266 24.1542 9.98438 24.1663C9.86775 24.2006 9.75716 24.2328 9.64656 24.1824C9.63047 24.1703 9.6164 24.1562 9.60031 24.1421C9.58825 24.1321 9.57618 24.12 9.56211 24.1099C9.4676 23.9367 9.42537 23.7372 9.38315 23.5459C9.34896 23.3908 9.31277 23.2296 9.25043 23.0826C9.26652 23.0685 9.25043 22.9275 9.25043 22.9053C9.25446 21.9042 9.3007 19.5273 9.32483 17.0496C9.45352 17.0859 9.64656 17.1443 9.85769 17.2087C10.3564 17.3598 10.9677 17.5431 11.1808 17.5774C11.1909 17.6479 11.1909 17.7184 11.1888 17.7949C11.1888 17.8292 11.1888 17.8634 11.1888 17.8976C10.8611 17.8654 10.5313 17.801 10.2357 17.7103C10.2136 17.7063 10.1955 17.7043 10.1794 17.7043C10.1653 17.7043 10.1513 17.7043 10.1372 17.7063L10.105 17.7063L10.105 17.7385C10.0668 19.3097 10.1473 20.9373 10.2257 22.5105C10.2357 22.714 10.2458 22.9154 10.2558 23.1168L10.2558 23.145L10.3061 23.1511C10.3825 23.1611 10.469 23.1712 10.5474 23.145L10.5575 23.141L10.5635 23.1329C10.6721 23.006 10.7686 22.8691 10.8611 22.7381C10.9576 22.6012 11.0561 22.4602 11.1707 22.3332C11.1909 22.4541 11.1808 22.5871 11.1346 22.7079C11.1346 22.7119 11.1346 22.714 11.1346 22.718L11.1366 22.716ZM11.1506 22.2406C11.1506 22.2406 11.1506 22.2446 11.1506 22.2466C11.0179 22.3876 10.9053 22.5448 10.7987 22.6999C10.7103 22.8288 10.6178 22.9597 10.5132 23.0826C10.4569 23.0987 10.3926 23.0906 10.3302 23.0826C10.3202 22.8892 10.3121 22.6978 10.3021 22.5045C10.2237 20.9433 10.1432 19.3278 10.1794 17.7687C10.1935 17.7687 10.2056 17.7687 10.2217 17.7707C10.5192 17.8634 10.8571 17.9279 11.1929 17.9621L11.1929 21.2596C11.1929 21.2596 11.1929 21.2616 11.1929 21.2636C11.1868 21.3784 11.1888 21.4973 11.1929 21.6121C11.1989 21.8236 11.2049 22.0412 11.1486 22.2426L11.1506 22.2406ZM11.1888 17.4867C11.1888 17.4867 11.1888 17.5028 11.1868 17.5109C10.9757 17.4766 10.3483 17.2873 9.88182 17.1463C9.65863 17.0798 9.45956 17.0174 9.32886 16.9811C9.35299 14.5397 9.37712 12.1285 9.39119 11.208C9.58825 11.1335 9.79335 11.0589 10.0005 10.9884C10.0065 11.5262 10.0045 12.0782 10.0005 12.614C9.99242 13.9717 9.98639 15.3777 10.1191 16.7092L10.1191 16.7273L10.1392 16.7354C10.4388 16.8905 10.7786 17.0637 11.1587 17.1664C11.211 17.2591 11.2009 17.3739 11.1888 17.4867ZM22.6986 27.5645C22.6926 27.6088 22.6846 27.6532 22.6785 27.6955C22.6745 27.7015 22.6685 27.7055 22.6665 27.7136C22.5941 28.0278 22.5438 28.3562 22.4956 28.6724C22.4734 28.8114 22.4533 28.9504 22.4292 29.0914C22.4071 29.2203 22.383 29.3472 22.3568 29.4761C22.3347 29.5789 22.3126 29.6816 22.2864 29.7843C22.2563 29.8971 22.2261 30.0079 22.1879 30.1147C22.1899 30.1086 22.1919 30.1066 22.1879 30.1167L22.2965 30.2013C22.0572 30.7915 21.4198 31.2669 20.8326 31.4482C20.8286 31.4482 20.5089 31.5086 20.5029 31.5086C20.5029 31.5086 20.4827 31.5126 20.4506 31.5167C20.4023 31.5247 20.3259 31.5388 20.2555 31.5509C20.159 31.5691 20.0705 31.5852 20.0685 31.5852C20.0524 31.5852 20.0364 31.5872 20.0203 31.5892C18.8399 31.704 17.6013 31.7544 16.0449 31.7564C16.0449 31.7564 16.0308 31.7564 16.0248 31.7564C14.4403 31.7564 13.1856 31.706 11.9911 31.5892C11.9751 31.5892 11.959 31.5872 11.9429 31.5852C11.9429 31.5852 11.8524 31.5691 11.7559 31.5509C11.6835 31.5388 11.6091 31.5247 11.5608 31.5167C11.5307 31.5106 11.5086 31.5086 11.5086 31.5086C11.5045 31.5086 11.1848 31.4462 11.1788 31.4482C10.5916 31.2669 9.95622 30.7915 9.71493 30.2013L9.82351 30.1167C9.81748 30.1046 9.81949 30.1086 9.82351 30.1147C9.78531 30.0059 9.75313 29.8951 9.72498 29.7843C9.69884 29.6836 9.67471 29.5809 9.6546 29.4761C9.62846 29.3492 9.60433 29.2203 9.58222 29.0914C9.55809 28.9504 9.53597 28.8114 9.51586 28.6724C9.4676 28.3562 9.41733 28.0278 9.34494 27.7136C9.34494 27.7055 9.3369 27.7015 9.33288 27.6955C9.32483 27.6531 9.3188 27.6088 9.31277 27.5645C9.26451 27.2563 9.22831 26.9078 9.20419 26.5352C9.12979 25.4152 9.1519 24.0978 9.19614 23.1571C9.19614 23.145 9.19614 23.1309 9.19614 23.1188C9.21022 23.1551 9.22429 23.1914 9.23636 23.2296C9.27054 23.3364 9.29467 23.4472 9.3188 23.5539C9.36103 23.7514 9.40526 23.9568 9.5058 24.1401L9.51385 24.1502C9.52792 24.1623 9.542 24.1744 9.55407 24.1865C9.57015 24.2006 9.58825 24.2167 9.60433 24.2308L9.61037 24.2348C9.74911 24.3013 9.87981 24.263 10.0065 24.2247C10.0407 24.2147 10.1513 24.1885 10.1935 24.1703C10.2036 24.1663 10.2096 24.1643 10.2116 24.1603L10.2679 24.1603C10.845 23.6607 10.3765 27.8062 10.3785 27.8042C10.3825 27.8022 10.9415 24.9237 11.1386 23.419C11.1687 23.1893 11.1909 22.9919 11.2009 22.8429C11.2029 22.8026 11.2049 22.7643 11.2069 22.7301C11.2632 22.579 11.2713 22.4098 11.2351 22.2648C11.2351 22.2648 11.2351 22.2648 11.2371 22.2627C11.2954 22.0492 11.2894 21.8256 11.2834 21.6101C11.2793 21.4973 11.2773 21.3784 11.2834 21.2656C11.2834 21.2656 11.2854 21.2616 11.2854 21.2596L11.2854 17.9339C11.2854 17.8876 11.2854 17.8412 11.2854 17.7949C11.2874 17.7123 11.2894 17.6257 11.2733 17.5431C11.2733 17.529 11.2753 17.5149 11.2773 17.4988C11.2894 17.38 11.3014 17.247 11.2351 17.1322C11.2673 16.9247 11.2472 16.6286 11.227 16.3385C11.211 16.0988 11.1969 15.8732 11.209 15.7101C11.209 15.708 11.2069 15.704 11.2069 15.702C11.1265 14.3343 10.7626 12.9846 10.4087 11.6793C10.3383 11.4215 10.2699 11.1657 10.2015 10.9099C10.2056 10.8998 10.2076 10.8897 10.2015 10.8817C10.1975 10.8736 10.1915 10.8696 10.1834 10.8635C10.1312 10.5976 10.0628 10.3237 9.98438 10.0739L9.98035 10.0618L9.96829 10.0558C9.9522 10.0477 9.92807 10.0356 9.90193 10.0336L9.87981 10.0336L9.86976 10.0497C9.78933 10.2008 9.55608 10.3519 9.34896 10.3579C9.34896 10.3579 9.34695 10.3579 9.34494 10.3579C9.34092 10.1444 9.35299 9.92887 9.36706 9.72139C9.37712 9.55017 9.38717 9.3729 9.38918 9.19564C9.38918 9.19564 9.39119 9.19564 9.3932 9.19564C9.48168 9.22787 9.56814 9.26816 9.65662 9.31248C9.85569 9.41118 10.0628 9.50988 10.3081 9.50384C10.465 10.0658 10.5997 10.654 10.7304 11.2261C10.9274 12.0923 11.1325 12.9887 11.4201 13.8146C11.4201 13.8186 11.4161 13.8206 11.4161 13.8246C11.4905 14.3947 11.5528 15.005 11.6151 15.7443L11.6151 15.7463C11.6674 16.971 11.6915 18.7739 11.6835 21.2515C11.6835 21.2556 11.6795 21.2576 11.6795 21.2616C11.6915 21.9404 11.6775 22.6616 11.6352 23.4693C11.6352 23.4754 11.6393 23.4814 11.6433 23.4875C11.597 23.8541 11.5427 24.2308 11.4885 24.5933C11.3638 25.4474 11.2351 26.3277 11.2009 27.1939C11.2009 27.1939 11.2009 27.1939 11.2009 27.1959C11.2009 27.1979 11.1969 27.1999 11.1969 27.2019C11.1909 27.9634 11.3155 28.8698 11.4362 29.744C11.4744 30.024 11.5106 30.292 11.5427 30.5478C11.5588 30.6787 11.5749 30.8076 11.587 30.9325C11.5769 30.9446 11.5729 30.9587 11.583 30.9728L11.597 30.9909C11.6513 31.1561 11.5367 31.3414 11.6694 31.3475C12.7311 31.3857 14.4222 31.4099 16.0389 31.416C17.6314 31.4099 19.2863 31.3857 20.3299 31.3475C20.4626 31.3434 20.348 31.1561 20.4023 30.9909L20.4164 30.9728C20.4264 30.9607 20.4224 30.9446 20.4124 30.9325C20.4244 30.8076 20.4405 30.6787 20.4566 30.5478C20.4888 30.2899 20.525 30.022 20.5632 29.744C20.6838 28.8678 20.8085 27.9634 20.8025 27.2019C20.8025 27.1999 20.8005 27.1979 20.7984 27.1959C20.7984 27.1959 20.7984 27.1959 20.7984 27.1939C20.7643 26.3297 20.6356 25.4474 20.5109 24.5934C20.4566 24.2308 20.4023 23.8541 20.3561 23.4875C20.3601 23.4814 20.3641 23.4774 20.3641 23.4693C20.3219 22.6616 20.3078 21.9404 20.3199 21.2616C20.3199 21.2576 20.3159 21.2536 20.3159 21.2515C20.3098 18.7739 20.3319 16.971 20.3842 15.7463C20.3842 15.7463 20.3842 15.7463 20.3842 15.7443C20.4466 15.005 20.5109 14.3947 20.5833 13.8246C20.5833 13.8206 20.5813 13.8186 20.5793 13.8146C20.8668 12.9887 21.0719 12.0943 21.269 11.2261C21.3997 10.654 21.5324 10.0638 21.6912 9.50384C21.9366 9.50988 22.1437 9.41118 22.3427 9.31248C22.4312 9.26816 22.5177 9.22989 22.6062 9.19564C22.6062 9.19564 22.6082 9.19564 22.6102 9.19564C22.6102 9.37291 22.6202 9.55017 22.6323 9.72139C22.6444 9.93088 22.6584 10.1464 22.6544 10.3579C22.6544 10.3579 22.6524 10.3579 22.6504 10.3579C22.4413 10.3519 22.21 10.2008 22.1296 10.0497L22.1195 10.0316L22.0974 10.0316C22.0713 10.0356 22.0472 10.0477 22.0311 10.0558L22.019 10.0618L22.015 10.0739C21.9366 10.3237 21.8682 10.5976 21.8159 10.8635C21.8099 10.8676 21.8018 10.8736 21.7978 10.8817C21.7938 10.8917 21.7958 10.9018 21.7978 10.9099C21.7294 11.1657 21.6611 11.4235 21.5907 11.6793C21.2368 12.9846 20.8728 14.3343 20.7924 15.702C20.7924 15.706 20.7884 15.708 20.7904 15.7101C20.8045 15.8732 20.7904 16.0988 20.7723 16.3385C20.7522 16.6286 20.7341 16.9267 20.7643 17.1322C20.6979 17.247 20.71 17.38 20.722 17.4988C20.722 17.5129 20.724 17.527 20.7261 17.5431C20.71 17.6277 20.712 17.7123 20.714 17.7949C20.714 17.8412 20.716 17.8876 20.714 17.9339L20.714 21.2596C20.714 21.2596 20.716 21.2636 20.716 21.2656C20.722 21.3784 20.72 21.4973 20.716 21.6101C20.71 21.8276 20.7039 22.0512 20.7623 22.2627C20.7623 22.2627 20.7623 22.2627 20.7643 22.2648C20.7281 22.4098 20.7361 22.579 20.7924 22.7301C20.7924 22.7643 20.7964 22.8026 20.7984 22.8429C20.8085 22.994 20.8306 23.1914 20.8608 23.419C21.0598 24.9237 21.6168 27.8002 21.6209 27.8042C21.6229 27.8042 21.1544 23.6607 21.7315 24.1603L21.7878 24.1603C21.7878 24.1623 21.7978 24.1663 21.8059 24.1703C21.8501 24.1885 21.9587 24.2147 21.9929 24.2247C22.1195 24.261 22.2523 24.3013 22.389 24.2348L22.395 24.2308C22.4131 24.2167 22.4292 24.2026 22.4453 24.1865C22.4594 24.1744 22.4714 24.1623 22.4855 24.1502L22.4935 24.1401C22.5941 23.9568 22.6383 23.7514 22.6806 23.5539C22.7047 23.4452 22.7288 23.3364 22.763 23.2296C22.7751 23.1914 22.7871 23.1551 22.8032 23.1188C22.8032 23.1309 22.8032 23.145 22.8032 23.1571C22.8474 24.0978 22.8696 25.4152 22.7952 26.5352C22.771 26.9078 22.7348 27.2563 22.6866 27.5645L22.6986 27.5645ZM16.0188 6.91338C16.0188 6.91338 16.0349 6.91338 16.0429 6.91338C16.9799 6.91338 17.8788 7.00201 18.7173 7.18129C19.1415 7.27194 19.5578 7.38877 19.9539 7.53179C20.4224 7.701 20.9513 7.9125 21.273 8.27911C21.273 8.27911 21.275 8.27911 21.277 8.27911C21.3072 8.35566 21.3474 8.42817 21.3876 8.49868C21.454 8.6135 21.5123 8.72428 21.5304 8.84917C20.0082 7.93264 18.0798 7.42704 16.0751 7.41496L16.0449 7.41496L16.0409 7.41496L16.0007 7.41496C16.0007 7.41496 15.9947 7.41496 15.9926 7.41496L15.9363 7.41496C13.9316 7.42503 12.0032 7.93264 10.481 8.84917C10.4991 8.72428 10.5575 8.6135 10.6238 8.49868C10.664 8.42817 10.7042 8.35566 10.7344 8.27911C10.7344 8.27911 10.7364 8.27911 10.7384 8.27911C11.0602 7.9125 11.589 7.701 12.0575 7.53179C12.4536 7.38877 12.8699 7.27194 13.2941 7.18129C14.1487 7 15.0677 6.90935 16.0228 6.91338L16.0188 6.91338ZM16.0188 7.47337C16.0188 7.47337 16.0349 7.47337 16.0429 7.47337C18.0638 7.47942 20.0062 7.98905 21.5324 8.91968C21.5324 8.92371 21.5324 8.92572 21.5344 8.92975C21.6088 9.03047 21.6108 9.15334 21.6128 9.28629C21.6128 9.34874 21.6128 9.41319 21.6249 9.47564C21.6249 9.47564 21.6269 9.47765 21.6269 9.47967C21.4701 10.0437 21.3333 10.6359 21.2046 11.21C21.0096 12.0701 20.8065 12.9564 20.521 13.7763C19.1235 13.3593 17.6254 13.1458 16.061 13.1438L16.059 13.1438C16.059 13.1438 16.0489 13.1438 16.0429 13.1438C16.0429 13.1438 16.0268 13.1438 16.0188 13.1438C16.0027 13.1438 15.9886 13.1438 15.9725 13.1438C15.9645 13.1438 15.9564 13.1438 15.9484 13.1438L15.9464 13.1438C14.382 13.1458 12.8819 13.3593 11.4864 13.7763C11.2029 12.9585 10.9998 12.0701 10.8028 11.21C10.6721 10.6359 10.5373 10.0437 10.3805 9.47967C10.3805 9.47967 10.3825 9.47765 10.3825 9.47564C10.3926 9.41319 10.3926 9.34873 10.3946 9.28629C10.3946 9.15334 10.3986 9.02845 10.473 8.92975C10.475 8.92773 10.473 8.92371 10.475 8.91968C12.0153 7.98099 13.9798 7.46934 16.0208 7.47337L16.0188 7.47337ZM20.2998 15.7403C20.2475 16.967 20.2254 18.7739 20.2314 21.2556C20.2193 21.9284 20.2334 22.6435 20.2736 23.4411C20.2736 23.5137 20.3319 23.9427 20.4043 24.5168C20.523 25.4515 20.6778 26.7769 20.6657 27.6068C20.6597 28.0198 20.6135 28.3139 20.4988 28.3703C18.9927 29.0511 17.923 29.0692 16.2741 29.0652C16.1957 29.0652 16.1193 29.0652 16.0409 29.0652C15.9363 29.0652 15.8338 29.0652 15.7292 29.0652C14.0804 29.0692 13.0106 29.0511 11.5045 28.3703C11.3899 28.3118 11.3437 28.0198 11.3376 27.6068C11.3256 26.7769 11.4804 25.4515 11.599 24.5168C11.6714 23.9427 11.7318 23.5137 11.7297 23.4411C11.77 22.6435 11.784 21.9284 11.772 21.2556C11.778 18.7739 11.7559 16.967 11.7036 15.7403C11.7036 15.7403 11.7036 15.7403 11.7036 15.7362C11.6413 15.005 11.5789 14.4007 11.5065 13.8367C12.9181 13.4157 14.4363 13.2042 16.0168 13.2082C16.0248 13.2082 16.0349 13.2082 16.0429 13.2082C17.6053 13.2082 19.1054 13.4197 20.5008 13.8367C20.4285 14.4007 20.3661 15.005 20.3038 15.7362C20.3038 15.7362 20.3038 15.7362 20.3038 15.7403L20.2998 15.7403ZM16.0429 31.2669C15.2044 31.2729 14.5509 31.2709 14.4504 31.2729C13.3585 31.2951 12.0434 31.2729 11.8162 30.9909C11.7519 30.9104 11.5065 29.3271 11.5065 28.5798C12.327 29.0531 14.197 29.3009 16.0429 29.2928C17.8627 29.2928 19.6925 29.0471 20.5008 28.5798C20.5008 29.3271 20.2535 30.9124 20.1912 30.9909C19.966 31.2729 18.6509 31.2951 17.557 31.2729C17.4605 31.2709 16.8432 31.2729 16.0429 31.2669ZM22.023 24.1643C21.9808 24.1522 21.9386 24.1401 21.8963 24.1321C21.8963 24.1321 21.8823 24.13 21.8642 24.126C21.832 24.122 21.7817 24.1159 21.7496 24.1119C21.7335 24.1119 21.7214 24.1079 21.7214 24.1079C21.5123 23.6627 21.2267 23.1954 20.8708 22.72C20.8708 22.72 20.8708 22.716 20.8708 22.714C20.8708 22.7099 20.8708 22.7079 20.8708 22.7039C20.8266 22.581 20.8145 22.4501 20.8346 22.3292C20.9472 22.4561 21.0478 22.5971 21.1443 22.7341C21.2368 22.8671 21.3333 23.004 21.4419 23.1289L21.4479 23.137L21.458 23.141C21.5364 23.1672 21.6229 23.1571 21.6993 23.147L21.7475 23.141L21.7475 23.1128C21.7576 22.9114 21.7697 22.7079 21.7797 22.5065C21.8581 20.9333 21.9386 19.3057 21.9004 17.7345L21.9004 17.7043L21.8662 17.7023C21.8521 17.7023 21.838 17.7002 21.824 17.7002C21.8059 17.7002 21.7878 17.7002 21.7676 17.7063C21.4721 17.7969 21.1423 17.8614 20.8145 17.8936C20.8145 17.8594 20.8145 17.8251 20.8145 17.7909C20.8145 17.7164 20.8145 17.6438 20.8226 17.5733C21.0377 17.5411 21.647 17.3558 22.1457 17.2047C22.3588 17.1402 22.5499 17.0818 22.6785 17.0456C22.7027 19.5232 22.7489 21.9002 22.7529 22.9013C22.7529 22.9235 22.7369 23.0645 22.7529 23.0786C22.6906 23.2256 22.6544 23.3868 22.6202 23.5419C22.578 23.7332 22.5358 23.9326 22.4413 24.1059C22.4292 24.1159 22.4151 24.128 22.4031 24.1381C22.389 24.1522 22.3729 24.1643 22.3568 24.1784C22.2462 24.2288 22.1356 24.1965 22.019 24.1623L22.023 24.1643ZM20.8728 15.698C20.8728 15.698 20.8728 15.696 20.8708 15.6939C20.9513 14.3343 21.3152 12.9887 21.6671 11.6894C21.7355 11.4396 21.8018 11.1899 21.8682 10.9401C21.8883 10.9461 21.9084 10.9542 21.9285 10.9602C21.9225 11.5061 21.9245 12.0681 21.9285 12.612C21.9366 13.9636 21.9426 15.3596 21.8119 16.683C21.5243 16.8321 21.2006 16.9932 20.8467 17.0919C20.8206 16.8925 20.8387 16.6105 20.8568 16.3365C20.8728 16.0948 20.8889 15.8652 20.8749 15.698L20.8728 15.698ZM20.8487 17.1664C21.2267 17.0657 21.5666 16.8905 21.8682 16.7354L21.8863 16.7273L21.8863 16.7092C22.023 15.3757 22.015 13.9717 22.0069 12.614C22.0049 12.0782 22.0009 11.5262 22.0069 10.9884C22.214 11.0589 22.4191 11.1335 22.6162 11.208C22.6303 12.1306 22.6564 14.5397 22.6785 16.9811C22.5478 17.0174 22.3468 17.0778 22.1256 17.1463C21.6591 17.2873 21.0317 17.4766 20.8206 17.5109C20.8206 17.5028 20.8206 17.4948 20.8186 17.4867C20.8065 17.3739 20.7964 17.2591 20.8487 17.1664ZM20.8125 21.6101C20.8165 21.4953 20.8186 21.3784 20.8125 21.2616C20.8125 21.2616 20.8125 21.2596 20.8125 21.2576L20.8125 17.9601C21.1483 17.9279 21.4861 17.8614 21.7837 17.7687C21.7978 17.7667 21.8119 17.7667 21.826 17.7667C21.8622 19.3258 21.7817 20.9413 21.7033 22.5025C21.6932 22.6958 21.6832 22.8892 21.6752 23.0806C21.6108 23.0886 21.5465 23.0947 21.4922 23.0806C21.3876 22.9597 21.2951 22.8268 21.2066 22.6978C21.0981 22.5427 20.9854 22.3856 20.8547 22.2446C20.8547 22.2446 20.8547 22.2406 20.8547 22.2386C20.7984 22.0371 20.8045 21.8176 20.8105 21.6081L20.8125 21.6101ZM23.2456 10.7447C23.6779 10.9743 24.1243 11.214 24.1102 11.6934C24.0962 11.6975 24.0841 11.6975 24.068 11.6995C24.064 11.6995 24.06 11.6995 24.0559 11.6995L23.9172 11.6411C23.6819 11.5403 23.0264 11.2382 22.7911 11.1415C22.7811 11.1375 22.771 11.1335 22.763 11.1294C22.7328 11.1173 22.7127 11.1113 22.7067 11.1113C22.7067 11.1113 21.8984 10.8555 21.8984 10.791C21.8963 10.791 21.8943 10.791 21.8963 10.791C21.9024 10.7709 21.9104 10.7427 21.9185 10.7104C21.9446 10.6077 21.9788 10.4586 22.017 10.3096C22.0371 10.235 22.0572 10.1625 22.0773 10.0961C22.0813 10.0961 22.0833 10.094 22.0874 10.092C22.1879 10.2552 22.4292 10.4063 22.6524 10.4123C22.6584 10.4123 22.6625 10.4123 22.6665 10.4123C22.6785 10.4325 22.7007 10.4445 22.7268 10.4466C22.7268 10.4466 22.7348 10.4466 22.7389 10.4466C22.8857 10.5594 23.0666 10.656 23.2436 10.7507L23.2456 10.7447ZM11.2069 0.967017C12.6487 0.286166 14.3719 0.219691 16.0188 0.217677C16.0268 0.217677 16.0349 0.217677 16.0429 0.217677C17.6737 0.219692 19.3728 0.292209 20.8005 0.967018C22.2201 1.98829 22.9058 3.05993 22.8414 4.15372C22.8253 4.12955 22.8072 4.10739 22.7932 4.08322C22.6604 3.87171 22.5659 3.63603 22.4755 3.40438C22.4131 3.24525 22.3508 3.08007 22.2744 2.92496L22.2704 2.91892L22.2643 2.9149C22.2201 2.88468 22.1658 2.88065 22.1195 2.87864C21.7998 2.25821 21.1664 1.87347 20.5531 1.50283C20.3259 1.36384 20.1108 1.23291 19.9097 1.09191C19.9097 1.09191 19.9097 1.09191 19.9097 1.08788C19.789 0.807882 19.4995 0.743423 19.2662 0.689035L19.23 0.680976C18.3754 0.517814 17.5208 0.437242 16.5818 0.437242C16.4049 0.437242 16.2239 0.44127 16.0429 0.447314C16.0429 0.447314 16.0268 0.447314 16.0188 0.447314C15.8177 0.44127 15.6186 0.435228 15.4256 0.435228C14.4866 0.435227 13.632 0.513785 12.7774 0.678964L12.7412 0.687022C12.5079 0.739396 12.2164 0.805867 12.0977 1.08586C12.0977 1.08586 12.0977 1.08788 12.0977 1.08989C11.8966 1.23291 11.6815 1.36384 11.4543 1.50082C10.841 1.87146 10.2076 2.2562 9.88786 2.87662C9.84161 2.87864 9.78732 2.88266 9.74308 2.91288L9.73705 2.91691L9.73705 2.92295C9.65662 3.07806 9.59428 3.24122 9.53195 3.40237C9.44146 3.63402 9.34897 3.87171 9.21424 4.0812C9.19815 4.10538 9.18207 4.12753 9.16598 4.15171C9.10365 3.05791 9.78732 1.98628 11.2069 0.965001L11.2069 0.967017ZM21.828 3.36813C21.8079 3.34798 21.3615 2.92497 20.8246 2.48584C20.6698 2.36095 20.5089 2.23404 20.346 2.1152C20.1067 1.93995 19.8695 1.78283 19.6583 1.67405C19.598 1.64182 19.5377 1.61362 19.4814 1.59146C19.4814 1.59146 19.4814 1.58945 19.4794 1.58743C19.4653 1.47665 19.4251 1.3719 19.3849 1.27118C19.3487 1.18255 19.3125 1.09191 19.2964 0.999244C19.3004 0.989173 19.3024 0.981115 19.3084 0.971044C19.415 0.942844 19.5115 0.99119 19.6141 1.04155C19.6905 1.07982 19.7709 1.11608 19.8574 1.12414C19.8634 1.12817 19.8695 1.13018 19.8775 1.13018C20.0806 1.2732 20.3078 1.41219 20.525 1.54312C21.1363 1.91175 21.7656 2.29447 22.0753 2.90684C22.0652 2.95518 22.0572 3.00353 22.0512 3.05187C22.0351 3.16669 22.017 3.28352 21.9587 3.38222C21.9466 3.39431 21.9345 3.4064 21.9225 3.41848C21.8883 3.42251 21.8642 3.40035 21.83 3.36611L21.828 3.36813ZM16.0188 1.25708C16.0067 1.25708 15.9967 1.25708 15.9846 1.25708C14.8384 1.25708 13.6963 1.36183 12.5904 1.56931C12.6065 1.47463 12.6406 1.386 12.6788 1.29133C12.7171 1.19867 12.7553 1.10198 12.7713 1.00126L12.7713 0.995217L12.7713 0.989175C12.7653 0.97306 12.7593 0.956942 12.7492 0.936799L12.7432 0.926728L12.7331 0.922702C12.701 0.912629 12.6688 0.908599 12.6386 0.908599C12.5421 0.908599 12.4556 0.9509 12.3692 0.993201C12.3089 1.02342 12.2526 1.05162 12.1922 1.0637C12.3109 0.858241 12.5481 0.801837 12.7593 0.753493L12.7935 0.745437C13.7928 0.554074 14.7962 0.481559 15.9323 0.513787C15.9363 0.513787 15.9404 0.517814 15.9464 0.517814C15.9705 0.517814 15.9947 0.517814 16.0188 0.517814C16.0268 0.517814 16.0349 0.517814 16.0429 0.517814C16.0429 0.517814 16.055 0.517814 16.061 0.517814C16.067 0.517814 16.0691 0.515802 16.0751 0.513787C17.2112 0.481559 18.2166 0.556089 19.2139 0.745437L19.2481 0.753494C19.4613 0.801837 19.6965 0.856227 19.8152 1.06371C19.7569 1.04961 19.6985 1.0214 19.6382 0.993202C19.5538 0.950901 19.4653 0.908599 19.3688 0.908599C19.3386 0.908599 19.3064 0.91263 19.2743 0.922702L19.2622 0.926729L19.2562 0.9368C19.2441 0.956943 19.2381 0.97306 19.234 0.989175L19.234 0.995218L19.234 1.00126C19.2501 1.10198 19.2883 1.19867 19.3265 1.29133C19.3647 1.38399 19.3989 1.47463 19.415 1.56931C18.3151 1.36384 17.181 1.2591 16.0409 1.25708C16.0409 1.25708 16.0248 1.25708 16.0168 1.25708L16.0188 1.25708ZM12.526 1.59146C12.4697 1.61362 12.4094 1.64182 12.3491 1.67405C12.1359 1.78484 11.8987 1.94196 11.6614 2.1152C11.5005 2.23404 11.3376 2.36095 11.1828 2.48584C10.6459 2.92295 10.2015 3.34798 10.1794 3.36812C10.1452 3.40237 10.1211 3.42251 10.0869 3.4205C10.0749 3.40841 10.0648 3.39632 10.0527 3.38424C9.99443 3.28554 9.97633 3.16669 9.96025 3.05389C9.95421 3.00554 9.94617 2.9572 9.93612 2.90885C10.2458 2.29649 10.8772 1.91376 11.4864 1.54513C11.7056 1.41219 11.9308 1.27521 12.1339 1.13219C12.142 1.13219 12.148 1.13018 12.154 1.12615C12.2405 1.11809 12.3209 1.08183 12.3973 1.04356C12.4999 0.993201 12.5964 0.946874 12.703 0.97306C12.707 0.983132 12.711 0.991189 12.715 1.00126C12.699 1.09392 12.6628 1.18658 12.6266 1.2732C12.5863 1.37391 12.5441 1.47866 12.53 1.58945C12.53 1.58945 12.528 1.59147 12.528 1.59348L12.526 1.59146ZM9.15191 5.82966C9.17 5.31197 9.19011 4.77615 9.17201 4.26048C9.17201 4.25645 9.17201 4.25242 9.17201 4.24839C9.19011 4.22624 9.20419 4.20207 9.22027 4.17991C9.38114 3.94826 9.48771 3.68438 9.58825 3.42452C9.64857 3.26942 9.71091 3.10827 9.78531 2.95719C9.81346 2.94108 9.84764 2.93907 9.87981 2.93705C9.88786 2.97935 9.8959 3.02165 9.90193 3.06395C9.92003 3.1828 9.93813 3.30769 10.0025 3.41647L10.0085 3.42251C10.0226 3.4346 10.0346 3.44668 10.0487 3.4628L10.0548 3.46884L10.0648 3.46884C10.1131 3.47958 10.2049 3.44265 10.3403 3.35805C10.3403 3.35805 10.3463 3.35805 10.3503 3.35805C10.3524 3.35805 10.3544 3.35805 10.3584 3.35805C10.3624 3.35805 10.1251 3.59776 10.3745 3.34798C11.0481 2.66914 11.7096 1.98426 12.5542 1.63981C12.5582 1.63981 12.5602 1.64182 12.5642 1.63981C13.6903 1.42629 14.8525 1.31953 16.0208 1.32154C16.0288 1.32154 16.0369 1.32154 16.0449 1.32154C17.1951 1.32154 18.3392 1.4283 19.4472 1.63779C19.4512 1.63779 19.4532 1.63779 19.4572 1.63779C20.3018 1.98225 20.9633 2.66915 21.6369 3.34597C21.8863 3.59575 21.649 3.35402 21.653 3.35604C21.655 3.35604 21.6571 3.35604 21.6611 3.35604C21.6651 3.35604 21.6671 3.35604 21.6711 3.35604C21.8065 3.44198 21.8984 3.47959 21.9466 3.46884L21.9567 3.46884L21.9627 3.46078C21.9768 3.44467 21.9888 3.43258 22.0029 3.4205L22.0089 3.41445C22.0753 3.30568 22.0914 3.1828 22.1095 3.06194C22.1155 3.01964 22.1236 2.97734 22.1316 2.93504C22.1658 2.93504 22.2 2.94108 22.2261 2.95518C22.3005 3.10626 22.3628 3.2674 22.4232 3.42251C22.5237 3.68236 22.6303 3.94624 22.7911 4.17789C22.8072 4.20005 22.8233 4.22422 22.8394 4.24638C22.8394 4.25041 22.8394 4.25444 22.8394 4.25847C22.8233 4.77414 22.8414 5.30996 22.8595 5.82765C22.8977 6.91338 22.9359 8.03538 22.6504 9.07075C22.6323 9.08083 22.6182 9.09694 22.6162 9.1191C22.6082 9.12111 22.6001 9.12313 22.5941 9.12716C22.4996 9.1614 22.4071 9.20773 22.3166 9.25204C22.1276 9.34471 21.9325 9.43938 21.7073 9.43737C21.7013 9.38701 21.6993 9.33665 21.6993 9.28226C21.6973 9.14528 21.6953 9.00227 21.6068 8.88543C21.6068 8.88543 21.6028 8.88342 21.6008 8.8814C21.5907 8.72832 21.5183 8.5994 21.4479 8.47249C21.4077 8.404 21.3675 8.33149 21.3394 8.25696C21.3394 8.25091 21.3394 8.24286 21.3333 8.23681C20.9995 7.85811 20.4626 7.64258 19.9841 7.46934C19.5839 7.32632 19.1657 7.20748 18.7374 7.11683C17.8928 6.93755 16.988 6.84691 16.0469 6.84691C16.0469 6.84691 16.0308 6.84691 16.0228 6.84691C16.0067 6.84691 15.9906 6.84691 15.9745 6.84691C15.0315 6.84691 14.1246 6.93755 13.2781 7.11683C12.8498 7.20748 12.4315 7.32632 12.0314 7.46934C11.5528 7.64258 11.0159 7.85811 10.6821 8.23681C10.6761 8.24286 10.6761 8.2489 10.6761 8.25695C10.6479 8.33149 10.6077 8.404 10.5675 8.47249C10.4971 8.59738 10.4247 8.72831 10.4147 8.8814C10.4127 8.8814 10.4107 8.88342 10.4087 8.88543C10.3202 9.00428 10.3182 9.14528 10.3162 9.28226C10.3162 9.33665 10.3141 9.38701 10.3081 9.43737C10.0829 9.43938 9.88786 9.3447 9.69884 9.25204C9.60836 9.20773 9.51787 9.16341 9.42135 9.12716C9.41331 9.12514 9.40527 9.12111 9.39722 9.1191C9.39521 9.09895 9.38114 9.08284 9.36304 9.07075C9.07751 8.03336 9.11571 6.91338 9.15392 5.82764L9.15191 5.82966ZM8.76181 10.7447C8.93876 10.65 9.11973 10.5533 9.26652 10.4405C9.27054 10.4405 9.27456 10.4405 9.27859 10.4405C9.30473 10.4405 9.32684 10.4264 9.33891 10.4063C9.34494 10.4063 9.34896 10.4063 9.355 10.4063C9.58021 10.4002 9.8215 10.2491 9.92003 10.086C9.92405 10.086 9.92606 10.088 9.93008 10.09C9.95019 10.1565 9.9703 10.229 9.99041 10.3035C10.0286 10.4526 10.0628 10.6037 10.0889 10.7044C10.097 10.7366 10.105 10.7648 10.1111 10.785C10.1111 10.787 10.1111 10.785 10.109 10.785C10.109 10.8494 9.3007 11.1052 9.3007 11.1052C9.29467 11.1052 9.27456 11.1113 9.2444 11.1234C9.23636 11.1274 9.22631 11.1314 9.21625 11.1355C8.98099 11.2322 8.32748 11.5343 8.0902 11.635L7.95146 11.6934C7.95146 11.6934 7.94342 11.6934 7.93939 11.6934C7.92331 11.6934 7.91124 11.6894 7.89717 11.6874C7.88108 11.206 8.32949 10.9683 8.76181 10.7386L8.76181 10.7447Z" fill="#1A1F29"/>
<path d="M10.2472 2.91301L10.2673 2.89488C10.215 2.96135 10.215 3.03387 10.2874 3.07617C10.5106 2.93315 10.6956 2.69143 10.8987 2.5182C11.1983 2.26238 11.6326 2.01461 11.8438 1.69634C11.5642 1.69433 11.1862 2.01058 10.9791 2.16367C10.7097 2.36309 10.4101 2.631 10.2492 2.91301L10.2472 2.91301Z" fill="white"/>
<path d="M16.0434 13.6537C14.1894 13.6698 12.6431 13.9719 12.1666 14.3809C13.2102 14.1694 14.5594 14.0384 16.0434 14.0243C17.4952 14.0445 18.8163 14.1734 19.8418 14.3809C19.3733 13.978 17.8632 13.6799 16.0434 13.6557L16.0434 13.6537Z" fill="#99FFCE"/>
<path d="M16.0427 12.741C18.516 12.7108 20.5007 13.5427 20.6575 11.8063C20.8908 11.2 21.1441 9.96521 21.2949 9.34077C20.9149 10.08 20.4765 11.905 19.268 12.0843C18.0998 12.2575 17.2029 12.2757 16.0427 12.2535C14.8423 12.2777 13.9334 12.2616 12.739 12.0843C11.5285 11.905 11.0921 10.078 10.7121 9.34076C10.8629 9.96521 11.1163 11.198 11.3495 11.8063C11.5084 13.5608 13.5332 12.6906 16.0427 12.741Z" fill="#93A3C0"/>
</svg>
