<svg
      width="18"
      height="32"
      viewBox="0 0 18 32"
      fill="none"
      xmlns="http://www.w3.org/2000/svg"
    >
      <path
        d="M9.04229 13.2088C9.04229 13.2088 9.0242 13.2088 9.01615 13.2088C7.43567 13.2048 5.91751 13.4163 4.50593 13.8373C4.57832 14.4013 4.64066 15.0056 4.70299 15.7368C4.70299 15.7368 4.70299 15.7368 4.70299 15.7409C4.75527 16.9676 4.77739 18.7745 4.77136 21.2562C4.78342 21.9289 4.76935 22.644 4.72913 23.4417C4.72913 23.5142 4.67082 23.9433 4.59843 24.5174C4.58033 24.9344 4.56224 25.3473 4.54414 25.4742C4.5743 26.9306 6.23723 27.8008 8.99001 27.8008L9.03827 27.8008C11.773 27.7947 13.4238 26.9266 13.454 25.4742C13.4379 25.3473 13.4178 24.9344 13.3997 24.5174C13.3273 23.9433 13.267 23.5142 13.269 23.4417C13.2288 22.644 13.2147 21.9289 13.2268 21.2562C13.2207 18.7745 13.2428 16.9676 13.2951 15.7409C13.2951 15.7409 13.2951 15.7409 13.2951 15.7368C13.3575 15.0056 13.4198 14.4013 13.4922 13.8373C12.0967 13.4203 10.5966 13.2088 9.03425 13.2088L9.04229 13.2088ZM9.04229 14.0246C7.56034 14.0367 6.20908 14.1676 5.16548 14.3792C5.64204 13.9702 7.18834 13.6701 9.04229 13.652C10.8621 13.6782 12.3702 13.9763 12.8407 14.3792C11.8172 14.1717 10.4941 14.0428 9.04229 14.0246Z"
        fill="#0066FF"
      />
      <path
        d="M9.04222 27.9421L9.01205 27.9421L8.99195 27.9421C6.48448 27.9421 4.85372 27.223 4.48374 25.9922C4.42743 26.4837 4.36912 27.0638 4.33695 27.6057C4.34298 28.0186 4.38923 28.3127 4.50385 28.3691C6.00993 29.05 7.07968 29.0681 8.72853 29.0641C8.83309 29.0641 8.93564 29.0641 9.0402 29.0641C9.11863 29.0641 9.19504 29.0641 9.27346 29.0641C10.9223 29.0681 11.9921 29.05 13.4981 28.3691C13.6128 28.3107 13.659 28.0186 13.665 27.6057C13.6329 27.0638 13.5766 26.4837 13.5183 25.9922C13.1483 27.2189 11.5296 27.9361 9.0402 27.9401L9.04222 27.9421Z"
        fill="#364258"
      />
      <path
        d="M9.04247 27.8003L9.01231 27.8003L8.9922 27.8003C6.23942 27.8003 4.5785 26.9301 4.54633 25.4738C4.56241 25.3469 4.58252 24.9339 4.60062 24.5169C4.48198 25.4516 4.32715 26.777 4.33921 27.607C4.37139 27.0651 4.42769 26.485 4.486 25.9935C4.85599 27.2242 6.48675 27.9434 8.99421 27.9434L9.04247 27.9434C11.5338 27.9373 13.1525 27.2202 13.5205 25.9935C13.5768 26.485 13.6351 27.0651 13.6673 27.607C13.6794 26.777 13.5245 25.4516 13.4059 24.5169C13.424 24.9339 13.4421 25.3469 13.4602 25.4738C13.43 26.9261 11.7792 27.7923 9.04448 27.8003L9.04247 27.8003Z"
        fill="#1A1F29"
      />
      <path
        d="M13.8177 17.4875C13.8177 17.4875 13.8177 17.5037 13.8198 17.5117C14.0309 17.4775 14.6583 17.2881 15.1248 17.1471C15.348 17.0806 15.547 17.0182 15.6777 16.9819C15.6536 14.5406 15.6295 12.1294 15.6154 11.2088C15.4183 11.1343 15.2132 11.0598 15.0061 10.9892C15.0001 11.5271 15.0021 12.079 15.0061 12.6148C15.0142 13.9725 15.0202 15.3785 14.8875 16.71L14.8875 16.7281L14.8674 16.7362C14.5678 16.8913 14.2279 17.0645 13.8479 17.1673C13.7956 17.2599 13.8057 17.3747 13.8177 17.4875V17.4875Z"
        fill="#0066FF"
      />
      <path
        d="M13.8558 22.2405C13.8558 22.2405 13.8558 22.2445 13.8558 22.2465C13.9885 22.3875 14.1011 22.5447 14.2077 22.6998C14.2962 22.8287 14.3887 22.9596 14.4932 23.0825C14.5475 23.0986 14.6139 23.0906 14.6762 23.0825C14.6863 22.8891 14.6943 22.6978 14.7043 22.5044C14.7828 20.9433 14.8632 19.3277 14.827 17.7686C14.8129 17.7686 14.8009 17.7686 14.7848 17.7706C14.4872 17.8633 14.1494 17.9278 13.8136 17.962L13.8136 21.2595C13.8136 21.2595 13.8136 21.2615 13.8136 21.2635C13.8196 21.3784 13.8176 21.4972 13.8136 21.612C13.8075 21.8235 13.8015 22.0411 13.8578 22.2425L13.8558 22.2405Z"
        fill="#364258"
      />
      <path
        d="M15.4432 24.1064C15.5377 23.9332 15.5799 23.7338 15.6222 23.5424C15.6564 23.3873 15.6925 23.2262 15.7549 23.0791C15.7388 23.065 15.7549 22.924 15.7549 22.9019C15.7509 21.9007 15.7046 19.5238 15.6805 17.0461C15.5518 17.0824 15.3608 17.1408 15.1476 17.2053C14.6489 17.3563 14.0377 17.5397 13.8245 17.5739C13.8145 17.6444 13.8145 17.7149 13.8165 17.7914C13.8165 17.8257 13.8165 17.8599 13.8165 17.8942C14.1442 17.8619 14.474 17.7975 14.7696 17.7068C14.7917 17.7028 14.8098 17.7008 14.8259 17.7008C14.84 17.7008 14.854 17.7008 14.8681 17.7028L14.9003 17.7028L14.9003 17.735C14.9385 19.3062 14.8581 20.9338 14.7796 22.507C14.7696 22.7105 14.7595 22.9119 14.7495 23.1134L14.7495 23.1416L14.6992 23.1476C14.6228 23.1577 14.5363 23.1678 14.4579 23.1416L14.4479 23.1375L14.4418 23.1295C14.3332 23.0026 14.2367 22.8656 14.1442 22.7347C14.0477 22.5977 13.9472 22.4567 13.8346 22.3298C13.8145 22.4506 13.8245 22.5836 13.8708 22.7044C13.8708 22.7085 13.8708 22.7105 13.8708 22.7145C13.8708 22.7145 13.8708 22.7186 13.8708 22.7206C14.2267 23.198 14.5122 23.6633 14.7213 24.1085C14.7213 24.1085 14.7334 24.1085 14.7495 24.1125L14.7998 24.1125C14.7998 24.1125 14.8058 24.1024 14.8098 24.0984C14.8098 24.0984 14.8319 24.1105 14.8641 24.1266C14.8822 24.1286 14.8963 24.1306 14.8963 24.1326C14.9385 24.1407 14.9807 24.1528 15.023 24.1649C15.1396 24.1991 15.2502 24.2313 15.3608 24.181C15.3769 24.1689 15.3909 24.1548 15.407 24.1407C15.4191 24.1306 15.4311 24.1185 15.4452 24.1085L15.4432 24.1064Z"
        fill="#0066FF"
      />
      <path
        d="M13.846 17.0918C14.2019 16.9931 14.5256 16.8299 14.8112 16.6829C14.9439 15.3595 14.9358 13.9635 14.9278 12.6119C14.9258 12.068 14.9218 11.506 14.9278 10.9601C14.9077 10.9541 14.8876 10.946 14.8675 10.94C14.8011 11.1897 14.7348 11.4395 14.6664 11.6893C14.3145 12.9906 13.9505 14.3341 13.8701 15.6938C13.8701 15.6938 13.8721 15.6958 13.8721 15.6979C13.8862 15.8671 13.8721 16.0947 13.854 16.3364C13.8359 16.6104 13.8178 16.8924 13.844 17.0918L13.846 17.0918Z"
        fill="#364258"
      />
      <path
        d="M15.8146 23.1562C15.8026 23.1683 15.7885 23.1905 15.7724 23.2287C15.7382 23.3355 15.7141 23.4463 15.6899 23.553C15.6477 23.7505 15.6035 23.9559 15.5029 24.1392L15.4949 24.1493C15.4808 24.1614 15.4667 24.1735 15.4547 24.1856C15.4386 24.1997 15.4205 24.2158 15.4044 24.2299L15.3984 24.2339C15.2596 24.3004 15.1289 24.2621 15.0023 24.2238C14.96 24.2117 14.9198 24.2017 14.8816 24.1936C14.8695 24.1997 14.8374 24.1815 14.8153 24.1694C14.8052 24.1654 14.7992 24.1634 14.7972 24.1594L14.7409 24.1594C14.1638 23.6598 14.6323 27.8053 14.6303 27.8033C14.6262 27.8013 14.0672 24.9228 13.8702 23.4181C13.84 23.2267 13.8179 23.0333 13.8078 22.842C13.8058 22.8017 13.8038 22.7634 13.8018 22.7292C13.7455 22.5781 13.7375 22.4089 13.7737 22.2639C13.7737 22.2639 13.7737 22.2639 13.7716 22.2618C13.7133 22.0483 13.7194 21.8247 13.7254 21.6092C13.7294 21.4964 13.7314 21.3775 13.7254 21.2647C13.7254 21.2647 13.7234 21.2607 13.7234 21.2587L13.7234 17.933C13.7254 17.8867 13.7234 17.8403 13.7234 17.794C13.7234 17.7114 13.7194 17.6248 13.7355 17.5422C13.7355 17.5281 13.7334 17.514 13.7314 17.4979C13.7194 17.3791 13.7073 17.2461 13.7737 17.1313C13.7415 16.9238 13.7616 16.6277 13.7817 16.3376C13.7978 16.0979 13.8119 15.8723 13.7998 15.7092C13.7998 15.7071 13.8018 15.7031 13.8018 15.7011C13.8822 14.3334 14.2462 12.9837 14.6001 11.6784C14.6705 11.4206 14.7388 11.1648 14.8072 10.909C14.8032 10.8989 14.8012 10.8888 14.8072 10.8808C14.8112 10.8727 14.8173 10.8687 14.8253 10.8626C14.8776 10.5967 14.946 10.3228 15.0244 10.073L15.0284 10.0609L15.0405 10.0549C15.0565 10.0468 15.0807 10.0347 15.1068 10.0327L15.1289 10.0327L15.139 10.0488C15.2194 10.1999 15.4527 10.351 15.6598 10.357C15.6638 10.1435 15.6517 9.92797 15.6397 9.72049C15.6296 9.54927 15.6196 9.37201 15.6176 9.19474C15.5291 9.22697 15.4426 9.26726 15.3541 9.31158C15.1551 9.41028 14.948 9.50898 14.7026 9.50294C14.5458 10.0649 14.4111 10.6531 14.2804 11.2252C14.0833 12.0914 13.8782 12.9878 13.5907 13.8137C13.5907 13.8177 13.5947 13.8197 13.5947 13.8237C13.5203 14.3938 13.458 15.0041 13.3956 15.7434L13.3956 15.7454C13.3433 16.9701 13.3192 18.773 13.3273 21.2506C13.3273 21.2547 13.3313 21.2567 13.3313 21.2607C13.3192 21.9395 13.3333 22.6607 13.3755 23.4684C13.3755 23.4745 13.3715 23.4805 13.3675 23.4866C13.4137 23.8532 13.468 24.2299 13.5223 24.5925C13.647 25.4465 13.7777 26.3268 13.8099 27.193C13.8099 27.193 13.8099 27.193 13.8099 27.195C13.8099 27.197 13.8139 27.199 13.8139 27.201C13.8199 27.9625 13.6952 28.8689 13.5746 29.7431C13.5364 30.0231 13.5002 30.2911 13.468 30.5469L13.5022 30.5408C14.1638 30.4341 14.6282 30.2367 14.8132 29.9869C15.1068 29.586 15.1973 29.4511 15.322 29.2637C15.3562 29.2134 15.3923 29.157 15.4366 29.0925C15.4607 28.9515 15.4828 28.8125 15.5029 28.6735C15.5512 28.3573 15.6015 28.0289 15.6739 27.7147C15.6739 27.7066 15.6819 27.7026 15.6859 27.6966C15.694 27.6543 15.7 27.61 15.706 27.5656C15.7442 27.3038 15.7824 26.9412 15.8146 26.5363C15.889 25.4163 15.8669 24.0989 15.8227 23.1582L15.8146 23.1562Z"
        fill="#0066FF"
      />
      <path
        d="M13.7596 31.4158L13.7656 31.4078L13.7154 31.4219L13.7395 31.4178L13.7596 31.4158Z"
        fill="#0066FF"
      />
      <path
        d="M13.1903 30.9889C13.2547 30.9084 13.5 29.3251 13.5 28.5777C12.6917 29.0451 10.8618 29.2908 9.04206 29.2908C7.19615 29.3009 5.32611 29.0531 4.5057 28.5777C4.5057 29.3251 4.75303 30.9104 4.81536 30.9889C5.04057 31.2709 6.35564 31.2931 7.44951 31.2709C7.55005 31.2689 8.20557 31.2709 9.04206 31.2649C9.84035 31.2709 10.4597 31.2689 10.5562 31.2709C11.6481 31.2931 12.9631 31.2709 13.1903 30.9889V30.9889Z"
        fill="#0066FF"
      />
      <path
        d="M12.4163 1.56641C12.4002 1.47173 12.366 1.3831 12.3278 1.28842C12.2896 1.19576 12.2514 1.09908 12.2353 0.998357L12.2353 0.992315L12.2353 0.986272C12.2413 0.970157 12.2474 0.954043 12.2574 0.9339L12.2634 0.923827L12.2755 0.919798C12.3077 0.909726 12.3398 0.905699 12.37 0.905699C12.4665 0.905699 12.553 0.948 12.6395 0.990301C12.6998 1.02052 12.7561 1.04872 12.8164 1.0608C12.6978 0.855338 12.4605 0.798937 12.2494 0.750593L12.2152 0.742537C11.2158 0.551173 10.2124 0.478655 9.07632 0.510884C9.0723 0.510884 9.06828 0.514914 9.06225 0.514914C9.05621 0.514914 9.05018 0.514914 9.04415 0.514914C9.04415 0.514914 9.02806 0.514914 9.02002 0.514914C8.99589 0.514914 8.97176 0.514914 8.94763 0.514914C8.9416 0.514914 8.93959 0.512899 8.93356 0.510884C7.79544 0.478655 6.79206 0.553187 5.7947 0.742536L5.76052 0.750592C5.54737 0.798937 5.31211 0.853323 5.19347 1.0608C5.25179 1.0467 5.3101 1.0185 5.37042 0.990301C5.45488 0.947999 5.54335 0.905698 5.63987 0.905698C5.67003 0.905698 5.7022 0.909725 5.73438 0.919797L5.74443 0.923827L5.75046 0.933899C5.76253 0.954043 5.76856 0.970156 5.77258 0.986271L5.77258 0.992314L5.77258 0.998357C5.7565 1.09907 5.71829 1.19576 5.68008 1.28842C5.64188 1.38108 5.6077 1.47173 5.59161 1.56641C6.69755 1.36094 7.83968 1.25418 8.98584 1.25418C8.9979 1.25418 9.00796 1.25418 9.02002 1.25418C9.02806 1.25418 9.03611 1.25418 9.04415 1.25418C10.1843 1.25418 11.3184 1.36094 12.4183 1.56641L12.4163 1.56641Z"
        fill="#0052CC"
      />
      <path
        d="M16.9411 11.5962L17.0537 11.6445C17.0376 11.2255 16.6395 11.014 16.2172 10.7884C16.0403 10.6938 15.8553 10.5951 15.7045 10.4802L15.6502 10.4379L15.6502 10.4077C15.427 10.4017 15.1857 10.2506 15.0851 10.0874C15.0811 10.0874 15.0791 10.0895 15.0751 10.0915C15.053 10.16 15.0349 10.2345 15.0148 10.305C14.9766 10.454 14.9424 10.6051 14.9162 10.7058C14.9102 10.734 14.9042 10.7602 14.8981 10.7884C14.8981 10.8529 15.7065 11.1087 15.7065 11.1087C15.7286 11.1087 15.7467 11.1168 15.7628 11.1268C15.7708 11.1309 15.7829 11.1349 15.7909 11.1389L15.8553 11.147C16.2876 11.3162 16.6797 11.4834 16.9391 11.5942L16.9411 11.5962Z"
        fill="#0066FF"
      />
      <path
        d="M13.3476 2.11569C13.5085 2.23453 13.6713 2.36144 13.8262 2.48633C13.788 2.45208 13.7498 2.41985 13.7116 2.38561C13.5929 2.29094 13.4723 2.20029 13.3476 2.11569Z"
        fill="#0066FF"
      />
      <path
        d="M13.7721 1.00605C12.3324 0.329232 10.5931 0.2688 9.0729 0.264771L9.04273 0.264771L9.01257 0.264771L8.93415 0.264771C7.416 0.2688 5.67465 0.329232 4.23491 1.00605C2.86154 1.9951 2.1839 3.02846 2.21406 4.08197C2.34678 3.87046 2.44128 3.63478 2.53177 3.40313C2.59411 3.244 2.65644 3.07882 2.73285 2.92371L2.73285 2.91767L2.7429 2.91365C2.78714 2.88343 2.84143 2.8794 2.88768 2.87739C3.2074 2.25696 3.8408 1.87222 4.45409 1.50158C4.68131 1.36259 4.89647 1.23166 5.09755 1.09066C5.09755 1.09066 5.09755 1.09066 5.09755 1.08663C5.2182 0.806632 5.50775 0.742173 5.741 0.687786L5.7772 0.679727C6.63179 0.516564 7.48638 0.435992 8.42542 0.435992C8.61845 0.435992 8.81752 0.440021 9.0186 0.448078C9.02665 0.448078 9.03469 0.448078 9.04273 0.448078C9.22572 0.442035 9.40669 0.438006 9.58163 0.438006C10.5207 0.438006 11.3753 0.516567 12.2298 0.681744L12.266 0.6898C12.4993 0.742173 12.7909 0.808649 12.9095 1.08864C12.9095 1.08864 12.9095 1.09066 12.9095 1.09267C13.1106 1.23569 13.3257 1.36662 13.553 1.5036C14.1662 1.87424 14.7996 2.25898 15.1194 2.8794C15.1656 2.88142 15.2199 2.88544 15.2641 2.91566L15.2702 2.91969L15.2742 2.92573C15.3506 3.08084 15.415 3.244 15.4753 3.40515C15.5658 3.6368 15.6583 3.87449 15.793 4.08398C15.8231 3.03048 15.1455 1.99711 13.7721 1.00807L13.7721 1.00605Z"
        fill="#00317A"
      />
      <path
        d="M15.0481 3.0511C15.0542 3.00275 15.0622 2.95441 15.0723 2.90606C14.7626 2.2937 14.1312 1.91098 13.5219 1.54235C13.3028 1.4094 13.0776 1.27243 12.8745 1.12941C12.8664 1.12941 12.8604 1.12739 12.8544 1.12336C12.7679 1.11531 12.6875 1.07905 12.611 1.04077C12.5085 0.990415 12.412 0.944084 12.3054 0.970271C12.2994 0.980342 12.2974 0.9884 12.2933 0.998472C12.3094 1.09113 12.3456 1.18379 12.3818 1.27041C12.422 1.37113 12.4643 1.47587 12.4763 1.58666C12.4763 1.58666 12.4783 1.58868 12.4783 1.59069C12.5346 1.61285 12.595 1.64105 12.6553 1.67328C13.0373 1.85659 13.3792 2.10032 13.7069 2.38636C13.7451 2.41859 13.7833 2.45283 13.8215 2.48708C14.3584 2.92419 14.8028 3.34922 14.8249 3.36936C14.8591 3.40361 14.8853 3.42375 14.9174 3.42174C14.9295 3.40965 14.9396 3.39757 14.9536 3.38548C15.0119 3.28678 15.03 3.16793 15.0461 3.05513L15.0481 3.0511ZM14.7184 3.07527C14.4952 2.93225 14.3102 2.69053 14.1071 2.51729C13.8075 2.26147 13.3752 2.01371 13.162 1.69544C13.4415 1.69342 13.8195 2.00968 14.0267 2.16277C14.2961 2.36219 14.5957 2.6301 14.7566 2.91211L14.7365 2.89398C14.7887 2.96045 14.7887 3.03297 14.7164 3.07527L14.7184 3.07527Z"
        fill="#D7DEEB"
      />
      <path
        d="M15.7283 10.4423C15.7022 10.4423 15.6801 10.4282 15.668 10.408C15.664 10.408 15.658 10.408 15.6539 10.408L15.6539 10.4382L15.7082 10.4805C15.859 10.5954 16.042 10.6941 16.221 10.7887C16.6433 11.0123 17.0414 11.2258 17.0575 11.6448L16.9449 11.5965C16.6855 11.4857 16.2934 11.3185 15.8611 11.1493L15.7967 11.1412C16.032 11.2379 16.6855 11.5401 16.9228 11.6408L17.0615 11.6992C17.0615 11.6992 17.0695 11.6992 17.0736 11.6992C17.0897 11.6992 17.1017 11.6952 17.1158 11.6932C17.1319 11.2117 16.6835 10.9741 16.2511 10.7444C16.0742 10.6497 15.8932 10.5531 15.7464 10.4402C15.7424 10.4402 15.7384 10.4402 15.7344 10.4402L15.7283 10.4423Z"
        fill="#1A1F29"
      />
      <path
        d="M15.7627 11.1309C15.7486 11.1188 15.7285 11.1127 15.7064 11.1127C15.7124 11.1127 15.7325 11.1188 15.7627 11.1309V11.1309Z"
        fill="#1A1F29"
      />
      <path
        d="M15.7822 4.25814L15.7822 4.27023C15.7661 4.78389 15.7842 5.31769 15.8043 5.83336C15.8425 6.91306 15.8827 8.03102 15.5992 9.06237L15.5831 9.12079L15.5911 9.13086C15.5911 9.13086 15.6072 9.12482 15.6133 9.1228C15.6153 9.10266 15.6293 9.08654 15.6474 9.07446C15.933 8.03707 15.8948 6.91709 15.8566 5.83135C15.8385 5.31366 15.8184 4.77785 15.8365 4.26217C15.8365 4.25814 15.8365 4.25411 15.8365 4.25008C15.8184 4.22793 15.8043 4.20375 15.7882 4.1816C15.7882 4.20577 15.7882 4.22994 15.7842 4.25411L15.7842 4.26217L15.7822 4.25814Z"
        fill="#1A1F29"
      />
      <path
        d="M15.6514 10.3516C15.6514 10.3516 15.6535 10.3516 15.6555 10.3516C15.6595 10.138 15.6474 9.9225 15.6333 9.71503C15.6233 9.54381 15.6132 9.36654 15.6112 9.18928C15.6112 9.18928 15.6092 9.18928 15.6072 9.18928C15.6072 9.36654 15.6193 9.54179 15.6293 9.71503C15.6414 9.92452 15.6535 10.1401 15.6494 10.3516L15.6514 10.3516Z"
        fill="#1A1F29"
      />
      <path
        d="M14.4449 7.65204C14.4228 7.73866 14.4831 7.82528 14.5796 7.84542C14.6761 7.86556 14.7707 7.81118 14.7928 7.72255C14.9858 6.95508 14.9275 6.13725 14.8652 5.27309C14.831 4.81382 14.4409 3.3232 14.4409 3.83887C14.4409 4.35455 14.4751 4.82994 14.5093 5.29525L14.4469 7.65204L14.4449 7.65204Z"
        fill="#3385FF"
      />
      <path
        d="M13.5787 30.6712C13.5626 30.7699 13.5626 30.9895 13.4882 31.207C13.8159 31.207 14.1135 31.0761 14.3709 30.8888C14.4151 30.7296 14.4513 30.5705 14.4795 30.4093C14.202 30.5403 13.8702 30.6209 13.5807 30.6712L13.5787 30.6712Z"
        fill="#F5222D"
      />
      <path
        d="M14.4798 30.4093C14.4516 30.5704 14.4154 30.7295 14.3712 30.8887C14.7814 30.5905 15.0871 30.1494 15.2399 29.8755C15.2841 29.7949 15.2499 29.8573 15.2841 29.7828C15.3103 29.6821 15.3344 29.5793 15.3545 29.4746C15.262 29.6116 15.1554 29.7626 14.9362 30.0628C14.8317 30.2058 14.6688 30.3186 14.4778 30.4072L14.4798 30.4093Z"
        fill="#FAAD14"
      />
      <path
        d="M15.7139 29.0432C15.7078 29.0835 15.6998 29.1238 15.6938 29.1641C15.7038 29.1218 15.7098 29.0835 15.7139 29.0432Z"
        fill="#1A1F29"
      />
      <path
        d="M14.8056 29.9833C14.6206 30.2351 14.1561 30.4325 13.4946 30.5372L13.4604 30.5433C13.4443 30.6742 13.4282 30.8031 13.4161 30.928C13.4262 30.9401 13.4302 30.9542 13.4202 30.9683L13.4061 30.9864C13.3518 31.1516 13.4664 31.3369 13.3337 31.343C13.6675 31.3792 13.9751 31.2906 14.2426 31.1476C14.0656 31.2705 13.8846 31.3672 13.7157 31.4215L13.766 31.4095L13.762 31.4155L13.7399 31.4155L13.7157 31.4215C13.6876 31.4276 13.6615 31.4336 13.6353 31.4397L13.6253 31.4276L13.2372 31.5424C12.3464 31.629 11.4918 31.6774 10.6392 31.7015C10.1184 31.7176 9.59763 31.7237 9.0708 31.7257L8.93608 31.7257C8.40925 31.7237 7.88845 31.7176 7.36765 31.7015C6.51708 31.6774 5.66049 31.629 4.7697 31.5424L4.38162 31.4276L4.36955 31.4397C4.34542 31.4336 4.31727 31.4276 4.29113 31.4215L4.267 31.4175L4.24488 31.4175L4.24086 31.4095L4.29113 31.4215C4.12223 31.3692 3.94125 31.2725 3.7643 31.1476C4.03174 31.2906 4.33939 31.3792 4.67318 31.343C4.54047 31.3389 4.65509 31.1516 4.6008 30.9864L4.58672 30.9683C4.57667 30.9562 4.58069 30.9401 4.59074 30.928C4.57868 30.8031 4.56259 30.6742 4.5465 30.5433L4.51232 30.5372C3.85077 30.4305 3.38627 30.2331 3.20128 29.9833C2.9077 29.5824 2.81722 29.4475 2.69255 29.2601C2.65836 29.2098 2.62217 29.1534 2.57793 29.0889C2.60005 29.2178 2.62418 29.3447 2.65032 29.4737C2.74282 29.6106 2.84939 29.7617 3.06857 30.0618C3.17313 30.2049 3.336 30.3177 3.52703 30.4063C3.80452 30.5372 4.1363 30.6178 4.42586 30.6682C4.44194 30.7669 4.44194 30.9864 4.51634 31.204C4.18858 31.204 3.89098 31.0731 3.6336 30.8857C3.2234 30.5876 2.91776 30.1465 2.76494 29.8725C2.7207 29.7919 2.75488 29.8544 2.7207 29.7798C2.75086 29.8926 2.78303 30.0034 2.81923 30.1102C2.81722 30.1042 2.81521 30.1021 2.81923 30.1122L2.71065 30.1968C2.94993 30.787 3.58735 31.2624 4.17451 31.4437C4.17853 31.4437 4.18255 31.4397 4.18657 31.4397C4.18858 31.4397 4.19059 31.4397 4.1926 31.4397C4.30521 31.4659 4.42787 31.49 4.55455 31.5142C4.60281 31.5223 4.67922 31.5364 4.74959 31.5484C4.826 31.5625 4.90443 31.5746 4.98486 31.5867C6.17927 31.7015 7.43401 31.7539 9.01852 31.7539L9.03863 31.7539C10.595 31.7539 11.8336 31.7015 13.014 31.5867C13.0944 31.5746 13.1728 31.5625 13.2492 31.5484C13.3216 31.5364 13.396 31.5223 13.4443 31.5142C13.571 31.49 13.6936 31.4659 13.8062 31.4397C13.8082 31.4397 13.8102 31.4397 13.8123 31.4397C13.8163 31.4397 13.8203 31.4437 13.8243 31.4437C14.4115 31.2624 15.0489 30.787 15.2882 30.1968L15.1796 30.1122C15.1856 30.1001 15.1836 30.1042 15.1796 30.1102C15.2178 30.0014 15.25 29.8906 15.2781 29.7798C15.2439 29.8544 15.2781 29.7899 15.2339 29.8725C15.0831 30.1465 14.7754 30.5876 14.3652 30.8857C14.1078 31.0731 13.8102 31.204 13.4825 31.204C13.5549 30.9864 13.5569 30.7669 13.573 30.6682C13.8625 30.6178 14.1963 30.5372 14.4718 30.4063C14.6608 30.3157 14.8257 30.2029 14.9303 30.0619C15.1494 29.7617 15.256 29.6086 15.3485 29.4737C15.3747 29.3468 15.3988 29.2178 15.4209 29.0889C15.3767 29.1534 15.3405 29.2078 15.3063 29.2601C15.1816 29.4475 15.0911 29.5824 14.7976 29.9833L14.8056 29.9833Z"
        fill="#1A1F29"
      />
      <path
        d="M14.7614 2.91301C14.6025 2.631 14.3009 2.36309 14.0314 2.16367C13.8223 2.01058 13.4463 1.69433 13.1668 1.69634C13.3779 2.01461 13.8123 2.26238 14.1119 2.5182C14.313 2.69143 14.498 2.93315 14.7232 3.07617C14.7956 3.03387 14.7956 2.95934 14.7433 2.89488L14.7634 2.91301L14.7614 2.91301Z"
        fill="white"
      />
      <path
        d="M3.14089 16.7362L3.12279 16.7281L3.12279 16.71C2.98606 15.3765 2.9941 13.9725 3.00214 12.6148C3.00415 12.079 3.00818 11.5271 3.00214 10.9892C2.79503 11.0597 2.58993 11.1343 2.39287 11.2088C2.3788 12.1314 2.35266 14.5406 2.33054 16.9819C2.46124 17.0182 2.66232 17.0786 2.88351 17.1471C3.35202 17.2881 3.97738 17.4775 4.18851 17.5117C4.18851 17.5037 4.18851 17.4956 4.19053 17.4875C4.20259 17.3747 4.21264 17.2599 4.16036 17.1673C3.78233 17.0665 3.44251 16.8913 3.14089 16.7362V16.7362Z"
        fill="#0066FF"
      />
      <path
        d="M3.47208 8.92691C3.39768 9.02762 3.39567 9.1505 3.39366 9.28345C3.39366 9.34589 3.39366 9.41035 3.38159 9.4728C3.38159 9.4728 3.37958 9.47481 3.37958 9.47682C3.53643 10.0408 3.67115 10.6331 3.80185 11.2072C3.9969 12.0673 4.19999 12.9536 4.48552 13.7734C5.88303 13.3565 7.38107 13.1429 8.94547 13.1409L8.94748 13.1409C8.94748 13.1409 8.96357 13.1409 8.97161 13.1409C8.98569 13.1409 9.00178 13.1409 9.01786 13.1409C9.0259 13.1409 9.03395 13.1409 9.04199 13.1409C9.04199 13.1409 9.05204 13.1409 9.05808 13.1409L9.06009 13.1409C10.6245 13.1429 12.1245 13.3565 13.52 13.7734C13.8036 12.9556 14.0067 12.0673 14.2037 11.2072C14.3344 10.6331 14.4691 10.0408 14.626 9.47682C14.626 9.47682 14.624 9.47481 14.624 9.4728C14.6139 9.41035 14.6139 9.34589 14.6119 9.28345C14.6119 9.1505 14.6079 9.02561 14.5335 8.92691C14.5315 8.92489 14.5335 8.92086 14.5315 8.91683C13.0053 7.98822 11.0628 7.47657 9.04199 7.47053C9.04199 7.47053 9.02591 7.47053 9.01786 7.47053C6.9769 7.4665 5.01235 7.97815 3.47208 8.91683C3.47208 8.92086 3.47208 8.92288 3.47007 8.92691L3.47208 8.92691ZM5.73825 12.0854C6.93266 12.2627 7.84154 12.2788 9.04199 12.2526C10.2022 12.2768 11.099 12.2586 12.2673 12.0854C13.4778 11.9061 13.9142 10.0791 14.2942 9.34186C14.1434 9.96631 13.89 11.1991 13.6568 11.8074C13.4999 13.5438 11.5153 12.7119 9.04199 12.7401C6.53252 12.6917 4.50764 13.5619 4.34879 11.8074C4.11554 11.2011 3.86218 9.96631 3.71137 9.34186C4.09141 10.0811 4.52976 11.9061 5.73825 12.0854Z"
        fill="#364258"
      />
      <path
        d="M4.19443 21.609C4.19041 21.4941 4.1884 21.3773 4.19443 21.2605C4.19443 21.2605 4.19443 21.2585 4.19443 21.2564L4.19443 17.9589C3.85863 17.9267 3.52081 17.8602 3.22322 17.7676C3.20914 17.7656 3.19506 17.7656 3.18099 17.7656C3.14479 19.3247 3.22523 20.9402 3.30365 22.5013C3.3137 22.6947 3.32376 22.8881 3.3318 23.0794C3.39614 23.0875 3.46049 23.0935 3.51478 23.0794C3.61934 22.9586 3.71184 22.8256 3.80031 22.6967C3.9089 22.5416 4.0215 22.3845 4.1522 22.2435C4.1522 22.2435 4.1522 22.2394 4.1522 22.2374C4.20851 22.036 4.20247 21.8164 4.19644 21.6069L4.19443 21.609Z"
        fill="#364258"
      />
      <path
        d="M4.17211 22.3298C4.05951 22.4567 3.95897 22.5978 3.86245 22.7347C3.76995 22.8677 3.67343 23.0046 3.56485 23.1295L3.55882 23.1376L3.54876 23.1416C3.47034 23.1678 3.38388 23.1577 3.30747 23.1477L3.25921 23.1416L3.25921 23.1134C3.24915 22.912 3.23709 22.7085 3.22704 22.5071C3.14862 20.9339 3.06818 19.3063 3.10639 17.7351L3.10639 17.7049L3.14057 17.7029C3.15465 17.7029 3.16872 17.7009 3.1828 17.7009C3.2009 17.7009 3.21899 17.7009 3.2391 17.7069C3.53469 17.7975 3.86446 17.862 4.19222 17.8942C4.19222 17.86 4.19222 17.8258 4.19222 17.7915C4.19222 17.717 4.19423 17.6445 4.18418 17.574C3.96902 17.5417 3.35975 17.3564 2.86107 17.2053C2.64793 17.1409 2.4569 17.0825 2.32821 17.0462C2.30408 19.5238 2.25783 21.9008 2.25381 22.9019C2.25381 22.9241 2.2699 23.0651 2.25381 23.0792C2.31614 23.2262 2.35234 23.3874 2.38652 23.5425C2.42674 23.7338 2.47098 23.9333 2.56548 24.1065C2.57755 24.1166 2.59162 24.1287 2.60369 24.1387C2.61777 24.1528 2.63385 24.1649 2.64994 24.179C2.75852 24.2294 2.87112 24.1971 2.98775 24.1629C3.02998 24.1508 3.0722 24.1387 3.11443 24.1307C3.11443 24.1307 3.12851 24.1287 3.1466 24.1246C3.17878 24.1085 3.19888 24.0964 3.2009 24.0964C3.20693 24.1005 3.20894 24.1065 3.21095 24.1105L3.26122 24.1105C3.27731 24.1105 3.28937 24.1065 3.28937 24.1065C3.49849 23.6613 3.78403 23.194 4.13994 22.7186C4.13994 22.7186 4.13994 22.7146 4.13994 22.7126C4.13994 22.7085 4.13793 22.7065 4.13994 22.7025C4.18418 22.5796 4.19624 22.4487 4.17613 22.3278L4.17211 22.3298Z"
        fill="#0066FF"
      />
      <path
        d="M4.13563 15.6938C4.05519 14.3341 3.69124 12.9886 3.33935 11.6893C3.27098 11.4395 3.20463 11.1897 3.13827 10.94C3.11816 10.946 3.09805 10.9541 3.07795 10.9601C3.08398 11.506 3.08197 12.068 3.07795 12.6119C3.0699 13.9635 3.06387 15.3595 3.19457 16.6829C3.48212 16.8319 3.80586 16.9931 4.15976 17.0918C4.1859 16.8924 4.1678 16.6104 4.1497 16.3364C4.13361 16.0947 4.11753 15.8651 4.1316 15.6979C4.1316 15.6979 4.1316 15.6959 4.13361 15.6938L4.13563 15.6938Z"
        fill="#364258"
      />
      <path
        d="M5.05252 7.53027C4.58401 7.69947 4.05517 7.91098 3.73344 8.27759C3.73344 8.27759 3.73143 8.27759 3.72942 8.27759C3.69926 8.35414 3.65904 8.42665 3.61882 8.49716C3.55247 8.61198 3.49415 8.72277 3.47606 8.84766C4.99823 7.93113 6.92659 7.42552 8.93135 7.41344L8.98765 7.41344C8.98765 7.41344 8.99369 7.41344 8.9957 7.41344L9.03591 7.41344C9.03591 7.41344 9.03792 7.41344 9.03993 7.41344L9.0701 7.41344C11.0749 7.42351 13.0032 7.93113 14.5254 8.84766C14.5073 8.72277 14.449 8.61198 14.3826 8.49716C14.3424 8.42666 14.3022 8.35414 14.272 8.27759C14.272 8.27759 14.27 8.27759 14.268 8.27759C13.9463 7.91098 13.4174 7.69948 12.9489 7.53027C12.5528 7.38725 12.1366 7.27042 11.7123 7.17977C10.8738 7.00251 9.97294 6.91186 9.03792 6.91388C9.03792 6.91388 9.02184 6.91388 9.01379 6.91388C8.05866 6.90985 7.13973 7.00049 6.28514 7.18179C5.86086 7.27243 5.44463 7.38926 5.0485 7.53228L5.05252 7.53027Z"
        fill="#0052CC"
      />
      <path
        d="M3.20251 29.983C3.3875 30.2348 3.85199 30.4322 4.51355 30.5369L4.54773 30.543C4.51556 30.2851 4.47936 30.0172 4.44116 29.7392C4.32051 28.863 4.19584 27.9586 4.20187 27.1971C4.20187 27.1951 4.20388 27.1931 4.20589 27.1911C4.20589 27.1911 4.20589 27.1911 4.20589 27.1891C4.24008 26.3249 4.36877 25.4426 4.49344 24.5885C4.54773 24.226 4.60202 23.8493 4.64827 23.4827C4.64425 23.4766 4.64023 23.4726 4.64023 23.4645C4.68245 22.6568 4.69653 21.9356 4.68447 21.2568C4.68447 21.2528 4.68849 21.2487 4.68849 21.2467C4.69452 18.7691 4.6724 16.9662 4.62012 15.7415C4.62012 15.7415 4.62012 15.7415 4.62012 15.7395C4.55779 15.0002 4.49344 14.3899 4.42105 13.8198C4.42105 13.8158 4.42306 13.8138 4.42507 13.8097C4.13753 12.9839 3.93243 12.0895 3.73537 11.2213C3.60467 10.6492 3.47196 10.059 3.3131 9.49903C3.06779 9.50508 2.86067 9.40637 2.6616 9.30767C2.57313 9.26336 2.48666 9.22508 2.39819 9.19084C2.39819 9.3681 2.38612 9.54335 2.37607 9.71658C2.36401 9.92608 2.34993 10.1416 2.35395 10.3531C2.56307 10.3471 2.79432 10.196 2.87475 10.0449L2.8848 10.0268L2.90692 10.0268C2.93306 10.0308 2.95719 10.0429 2.97328 10.051L2.98534 10.057L2.98936 10.0691C3.06779 10.3189 3.13615 10.5928 3.18843 10.8587C3.19447 10.8627 3.20251 10.8688 3.20653 10.8769C3.21055 10.8869 3.20854 10.897 3.20653 10.9051C3.2749 11.1609 3.34326 11.4187 3.41364 11.6745C3.76754 12.9798 4.1315 14.3294 4.21193 15.6972C4.21193 15.7012 4.21595 15.7032 4.21394 15.7053C4.19986 15.8684 4.21394 16.094 4.23204 16.3337C4.25214 16.6238 4.27024 16.9219 4.24008 17.1274C4.30644 17.2422 4.29437 17.3752 4.28231 17.494C4.28231 17.5081 4.2803 17.5222 4.27828 17.5383C4.29437 17.6229 4.29236 17.7075 4.29035 17.7901C4.29035 17.8364 4.29035 17.8828 4.29035 17.9291L4.29035 21.2548C4.29035 21.2548 4.28834 21.2588 4.28834 21.2608C4.28231 21.3736 4.28432 21.4925 4.28834 21.6053C4.29437 21.8228 4.3004 22.0464 4.24209 22.2579C4.24209 22.2579 4.24209 22.2579 4.24008 22.26C4.27627 22.405 4.26823 22.5742 4.21193 22.7253C4.21193 22.7595 4.20791 22.7978 4.2059 22.8381C4.19584 23.0294 4.17372 23.2228 4.14356 23.4142C3.94449 24.9189 3.3875 27.7954 3.38348 27.7994C3.38147 27.7994 3.84998 23.6559 3.27288 24.1555L3.21658 24.1555C3.21658 24.1575 3.20653 24.1615 3.19849 24.1655C3.17637 24.1776 3.14419 24.1937 3.13213 24.1897C3.09191 24.1978 3.0517 24.2078 3.01148 24.2199C2.8848 24.2562 2.75209 24.2965 2.61535 24.23L2.60932 24.226C2.59123 24.2119 2.57514 24.1978 2.55905 24.1816C2.54498 24.1696 2.53291 24.1575 2.51884 24.1454L2.51079 24.1353C2.41025 23.952 2.36601 23.7465 2.32379 23.5491C2.29966 23.4404 2.27553 23.3316 2.24135 23.2248C2.22526 23.1866 2.2132 23.1644 2.19912 23.1523C2.15488 24.093 2.13276 25.4104 2.20716 26.5304C2.23934 26.9353 2.27754 27.2958 2.31575 27.5597C2.32178 27.604 2.32982 27.6483 2.33585 27.6906C2.33988 27.6967 2.34591 27.7007 2.34792 27.7088C2.42031 28.023 2.47058 28.3514 2.51884 28.6676C2.53894 28.8066 2.56106 28.9456 2.58519 29.0866C2.62943 29.1511 2.66562 29.2054 2.69981 29.2578C2.82448 29.4451 2.91496 29.5801 3.20854 29.981L3.20251 29.983Z"
        fill="#0066FF"
      />
      <path
        d="M4.24678 31.4158L4.2689 31.4178L4.29102 31.4219L4.24276 31.4078L4.24678 31.4158Z"
        fill="#0066FF"
      />
      <path
        d="M3.76392 31.1484C3.94087 31.2713 4.12184 31.368 4.29075 31.4224C4.3189 31.4284 4.34504 31.4345 4.36917 31.4405L4.38123 31.4284L4.76932 31.5433C5.6601 31.6299 6.51469 31.6782 7.36727 31.7024C7.89611 31.7165 8.41892 31.7245 8.93569 31.7266L9.07042 31.7266C9.58719 31.7245 10.11 31.7185 10.6388 31.7024C11.4894 31.6782 12.346 31.6299 13.2368 31.5433L13.6249 31.4284L13.6349 31.4405C13.6591 31.4345 13.6872 31.4284 13.7154 31.4224C13.8843 31.37 14.0652 31.2733 14.2422 31.1484C13.9748 31.2915 13.6671 31.3801 13.3333 31.3438C12.2897 31.3821 10.6348 31.4063 9.04226 31.4123C7.42558 31.4063 5.7345 31.3821 4.6728 31.3438C4.33901 31.3801 4.03337 31.2915 3.76392 31.1484V31.1484Z"
        fill="#0066FF"
      />
      <path
        d="M2.30213 10.4802C2.15132 10.5951 1.96833 10.6938 1.78937 10.7884C1.3671 11.012 0.968966 11.2255 0.952879 11.6445L1.06549 11.5962C1.32488 11.4854 1.71698 11.3182 2.14931 11.149L2.21365 11.1409C2.21365 11.1409 2.23376 11.1329 2.2418 11.1289C2.25789 11.1168 2.27598 11.1107 2.2981 11.1107C2.2981 11.1107 3.10645 10.8549 3.10645 10.7904C3.10041 10.7622 3.09438 10.7361 3.08835 10.7079C3.06221 10.6051 3.02802 10.4561 2.98982 10.307C2.96971 10.2345 2.95161 10.162 2.92949 10.0935C2.92547 10.0935 2.92346 10.0915 2.91944 10.0895C2.8189 10.2526 2.5776 10.4037 2.35441 10.4097L2.35441 10.4399L2.30012 10.4822L2.30213 10.4802Z"
        fill="#0066FF"
      />
      <path
        d="M4.18256 2.48633C4.33739 2.36144 4.49826 2.23453 4.66113 2.11569C4.53646 2.20029 4.41582 2.29094 4.29718 2.38561C4.25897 2.41784 4.22077 2.45208 4.18256 2.48633V2.48633Z"
        fill="#0066FF"
      />
      <path
        d="M2.2233 4.25845L2.2233 4.27053C2.23938 4.78419 2.22128 5.31799 2.20319 5.83367C2.16498 6.91336 2.12477 8.03133 2.40829 9.06268L2.42437 9.12109L2.41633 9.13116C2.51084 9.16541 2.60334 9.21174 2.69382 9.25605C2.88284 9.34871 3.07789 9.44339 3.30309 9.44137C3.30913 9.39101 3.31114 9.34066 3.31114 9.28627C3.31315 9.14929 3.31516 9.00627 3.40363 8.88944C3.40363 8.88944 3.40766 8.88743 3.40967 8.88541C3.41972 8.73232 3.49211 8.6034 3.56249 8.4765C3.6027 8.40801 3.64292 8.33549 3.67107 8.26096C3.67107 8.25492 3.67107 8.24686 3.6771 8.24082C4.0109 7.86212 4.54778 7.64659 5.02635 7.47335C5.4265 7.33033 5.84474 7.21149 6.27304 7.12084C7.11959 6.94156 8.02646 6.85092 8.96952 6.85092C8.98561 6.85092 9.0017 6.85092 9.01778 6.85092L9.04191 6.85092C9.98296 6.85092 10.8878 6.94156 11.7324 7.12084C12.1607 7.21149 12.5789 7.33033 12.9791 7.47335C13.4576 7.64659 13.9945 7.86212 14.3283 8.24082C14.3343 8.24686 14.3343 8.25291 14.3343 8.26096C14.3625 8.3355 14.4027 8.40801 14.4429 8.4765C14.5133 8.60139 14.5857 8.73232 14.5957 8.88541C14.5977 8.88541 14.5998 8.88743 14.6018 8.88944C14.6902 9.00829 14.6923 9.14929 14.6943 9.28627C14.6943 9.34066 14.6963 9.39102 14.7023 9.44137C14.9275 9.44339 15.1226 9.34871 15.3116 9.25605C15.4021 9.21174 15.4926 9.16742 15.5891 9.13116L15.581 9.12109L15.5971 9.06268C15.8806 8.03133 15.8404 6.91336 15.8022 5.83367C15.7841 5.318 15.766 4.78621 15.7821 4.27053L15.7821 4.25845L15.7821 4.25039C15.7841 4.22622 15.7841 4.20204 15.7861 4.17787C15.6253 3.94622 15.5187 3.68234 15.4182 3.42249C15.3578 3.26739 15.2955 3.10624 15.2211 2.95516C15.1929 2.93905 15.1588 2.93703 15.1266 2.93502C15.1185 2.97732 15.1105 3.01962 15.1045 3.06192C15.0864 3.18077 15.0683 3.30566 15.0039 3.41443L14.9979 3.42048C14.9838 3.43256 14.9718 3.44465 14.9577 3.46076L14.9516 3.46681L14.9416 3.46681C14.8933 3.47755 14.8015 3.44062 14.6661 3.35602C14.6661 3.35602 14.6601 3.35602 14.6561 3.35602C14.654 3.35602 14.652 3.35602 14.648 3.35602C14.644 3.35602 14.8813 3.59573 14.6319 3.34595C13.9583 2.66711 13.2968 1.98223 12.4522 1.63777C12.4482 1.63777 12.4462 1.63979 12.4422 1.63777C11.3342 1.42828 10.1881 1.32152 9.0399 1.32152C9.0399 1.32152 9.0218 1.32152 9.01577 1.32152C7.8475 1.31951 6.68526 1.42627 5.55921 1.63979C5.55519 1.63979 5.55318 1.63979 5.54916 1.63979C4.70462 1.98424 4.04307 2.67114 3.36945 3.34796C3.12011 3.59774 3.35739 3.35602 3.35337 3.35803C3.35135 3.35803 3.34934 3.35803 3.34532 3.35803C3.3413 3.35803 3.33929 3.35803 3.33527 3.35803C3.19987 3.44398 3.10805 3.48158 3.05979 3.47083L3.04973 3.47083L3.0437 3.46278C3.02963 3.44666 3.01756 3.43458 3.00349 3.42249L2.99745 3.41645C2.9311 3.30767 2.91501 3.1848 2.89691 3.06393C2.89088 3.02163 2.88284 2.97933 2.8748 2.93703C2.84061 2.93703 2.80643 2.94307 2.78029 2.95717C2.70589 3.10825 2.64355 3.2694 2.58323 3.42451C2.48269 3.68436 2.37612 3.94824 2.21525 4.17989C2.21525 4.20406 2.21525 4.22823 2.21927 4.2524L2.21927 4.26046L2.2233 4.25845ZM14.8632 5.2757C14.9255 6.13985 14.9858 6.95768 14.7908 7.72515C14.7687 7.81176 14.6742 7.86817 14.5776 7.84802C14.4811 7.82788 14.4208 7.74126 14.4429 7.65465L14.5052 5.29785C14.4711 4.83254 14.4369 4.35111 14.4369 3.84148C14.4369 3.33184 14.827 4.81642 14.8612 5.2757L14.8632 5.2757ZM3.14223 5.2757C3.17641 4.81642 3.56651 3.3258 3.56651 3.84147C3.56651 4.35715 3.53233 4.83254 3.49814 5.29785L3.56048 7.65464C3.5826 7.74126 3.52227 7.82788 3.42575 7.84802C3.32924 7.86817 3.23473 7.81378 3.21261 7.72515C3.01957 6.95768 3.07789 6.13985 3.14022 5.2757L3.14223 5.2757Z"
        fill="#0066FF"
      />
      <path
        d="M5.71191 0.998259C5.71191 0.998259 5.70588 0.98013 5.69985 0.970058C5.59328 0.941857 5.49676 0.990203 5.39421 1.04056C5.3178 1.07883 5.23737 1.11509 5.1509 1.12315C5.14487 1.12718 5.13884 1.12919 5.13079 1.12919C4.9277 1.27221 4.70048 1.4112 4.48332 1.54214C3.87203 1.91076 3.24266 2.29349 2.93299 2.90585C2.94305 2.95419 2.95109 3.00254 2.95712 3.05088C2.97321 3.1657 2.9913 3.28253 3.04962 3.38124C3.06168 3.39332 3.07375 3.40541 3.0838 3.4175C3.11799 3.42153 3.14212 3.39937 3.1763 3.36512C3.19641 3.34498 3.6428 2.92197 4.17969 2.48284C4.21789 2.44859 4.2561 2.41636 4.2943 2.38212C4.62206 2.0981 4.9639 1.85234 5.34595 1.66904C5.40627 1.63681 5.4666 1.60861 5.5229 1.58645C5.5229 1.58645 5.5229 1.58444 5.52491 1.58242C5.53899 1.47163 5.5792 1.36689 5.62143 1.26617C5.65762 1.17754 5.69382 1.08689 5.7099 0.994232L5.71191 0.998259ZM3.89817 2.51708C3.69709 2.69032 3.5121 2.93204 3.28689 3.07505C3.2145 3.03275 3.2145 2.95822 3.26678 2.89376L3.24668 2.91189C3.40754 2.62988 3.70715 2.36197 3.9766 2.16255C4.18572 2.00946 4.56174 1.69321 4.84124 1.69523C4.63011 2.01349 4.19577 2.26126 3.89616 2.51708L3.89817 2.51708Z"
        fill="#D7DEEB"
      />
      <path
        d="M0.952793 11.7011L1.09154 11.6427C1.3268 11.542 1.98232 11.2398 2.21759 11.1431L2.15324 11.1512C1.72092 11.3204 1.32881 11.4876 1.06942 11.5984L0.956815 11.6467C0.972902 11.2277 1.37104 11.0162 1.79331 10.7906C1.97227 10.6959 2.15525 10.5972 2.30606 10.4824L2.36035 10.4401L2.36035 10.4099C2.36035 10.4099 2.3503 10.4099 2.34427 10.4099C2.3322 10.4301 2.31008 10.4421 2.28394 10.4442C2.28394 10.4442 2.2759 10.4442 2.27188 10.4442C2.12509 10.557 1.94412 10.6536 1.76717 10.7483C1.33485 10.978 0.888447 11.2177 0.902523 11.6971C0.916599 11.7011 0.928665 11.7011 0.944751 11.7031C0.948773 11.7031 0.952794 11.7031 0.956815 11.7031L0.952793 11.7011Z"
        fill="#1A1F29"
      />
      <path
        d="M2.2998 11.1127C2.27769 11.1127 2.25959 11.1208 2.2435 11.1309C2.27366 11.1188 2.29377 11.1127 2.2998 11.1127Z"
        fill="#1A1F29"
      />
      <path
        d="M2.21359 4.08379C2.18342 3.03029 2.86106 1.99693 4.23444 1.00788C5.67417 0.331057 7.41351 0.270625 8.93367 0.266596L8.994 0.266596L9.0141 0.266596L9.07443 0.266596C10.5926 0.270625 12.3339 0.331057 13.7737 1.00788C15.147 1.99693 15.8247 3.03029 15.7945 4.08379C15.8106 4.10797 15.8267 4.13012 15.8428 4.1543C15.9051 3.0605 15.2214 1.98887 13.8018 0.967593C12.3741 0.292785 10.675 0.220268 9.04427 0.218254C9.04427 0.218254 9.02818 0.218254 9.02014 0.218254C7.37329 0.218254 5.65004 0.286742 4.2083 0.967592C2.78867 1.98887 2.10299 3.0605 2.16734 4.1543C2.18342 4.13012 2.20152 4.10796 2.2156 4.08379L2.21359 4.08379Z"
        fill="#1A1F29"
      />
      <path
        d="M2.39459 9.12085C2.39459 9.12085 2.41067 9.12488 2.41871 9.12891L2.42676 9.11883L2.41067 9.06042C2.12715 8.02907 2.16737 6.9111 2.20557 5.83141C2.22367 5.31574 2.24176 4.78395 2.22568 4.26828L2.22568 4.25619L2.22568 4.24813C2.22367 4.22396 2.22367 4.19979 2.22166 4.17561C2.20557 4.19777 2.18948 4.22194 2.1734 4.2441C2.1734 4.24813 2.1734 4.25216 2.1734 4.25619C2.18948 4.77186 2.17139 5.30768 2.15329 5.82537C2.11508 6.9111 2.07688 8.0331 2.36241 9.06848C2.38051 9.07855 2.39458 9.09466 2.3966 9.11682L2.39459 9.12085Z"
        fill="#1A1F29"
      />
      <path
        d="M2.39844 9.18928C2.39844 9.18928 2.39643 9.18928 2.39442 9.18928C2.39442 9.36654 2.38436 9.54381 2.3723 9.71503C2.36023 9.92452 2.34616 10.1401 2.35018 10.3516C2.35018 10.3516 2.35219 10.3516 2.3542 10.3516C2.35018 10.138 2.36224 9.9225 2.37632 9.71503C2.38637 9.54381 2.39643 9.36654 2.39844 9.18928Z"
        fill="#1A1F29"
      />
      <path
        d="M3.42858 7.84552C3.5251 7.82538 3.58542 7.73876 3.5633 7.65214L3.50097 5.29535C3.53515 4.83004 3.56934 4.34861 3.56934 3.83898C3.56934 3.32934 3.17924 4.81392 3.14506 5.27319C3.08272 6.13735 3.0224 6.95518 3.21745 7.72265C3.23957 7.80926 3.33407 7.86566 3.43059 7.84552L3.42858 7.84552Z"
        fill="#3385FF"
      />
      <path
        d="M4.5185 31.207C4.44611 30.9895 4.4441 30.7699 4.42801 30.6712C4.13846 30.6209 3.80466 30.5403 3.52919 30.4093C3.55734 30.5705 3.59353 30.7296 3.63777 30.8888C3.89515 31.0761 4.19275 31.207 4.52051 31.207L4.5185 31.207Z"
        fill="#F5222D"
      />
      <path
        d="M3.63477 30.8886C3.59053 30.7295 3.55433 30.5703 3.52618 30.4092C3.33717 30.3185 3.17228 30.2057 3.06772 30.0647C2.84854 29.7646 2.74197 29.6115 2.64947 29.4765C2.67159 29.5793 2.69371 29.682 2.71985 29.7847C2.75404 29.8593 2.71985 29.7948 2.76409 29.8774C2.9149 30.1514 3.22255 30.5925 3.63275 30.8906L3.63477 30.8886Z"
        fill="#FAAD14"
      />
      <path
        d="M2.3125 29.1641C2.30647 29.1238 2.29842 29.0835 2.29239 29.0432C2.29641 29.0815 2.30245 29.1218 2.3125 29.1641Z"
        fill="#1A1F29"
      />
      <path
        d="M0.656907 11.7337C0.656907 11.7337 0.739349 11.9634 0.952493 11.915C1.01282 11.9009 1.19178 11.8425 1.19178 11.8425C1.40693 11.7519 1.71258 11.6209 2.05642 11.4819C2.02626 13.732 1.95789 20.8426 1.94985 22.9154C1.87143 24.3335 1.82317 26.2089 2.03631 27.4698C2.03028 27.496 2.06245 27.7398 2.06849 27.766C2.13886 28.0701 2.18913 28.3944 2.23538 28.7067C2.25348 28.8174 2.26956 28.9302 2.28766 29.0431C2.29369 29.0833 2.30174 29.1236 2.30777 29.1639C2.36809 29.5205 2.44249 29.877 2.56314 30.2174C2.57319 30.2476 2.59129 30.2738 2.61743 30.296C3.10606 31.4744 4.43922 31.7181 4.46938 31.708C5.14501 31.8571 7.53383 31.988 8.91324 31.9961L8.96351 31.9961L8.99166 31.9961L9.04193 31.9961L9.0922 31.9961C10.4716 31.9901 12.8604 31.8571 13.532 31.7101C13.5622 31.7201 14.8974 31.4764 15.386 30.298C15.4101 30.2758 15.4282 30.2497 15.4403 30.2194C15.5609 29.877 15.6353 29.5205 15.6957 29.1659C15.7017 29.1256 15.7097 29.0854 15.7158 29.0451C15.7339 28.9323 15.752 28.8195 15.768 28.7087C15.8163 28.3964 15.8646 28.0721 15.9349 27.768C15.941 27.7418 15.9732 27.498 15.9671 27.4719C16.1803 26.2109 16.132 24.3355 16.0536 22.9174C16.0455 20.8446 15.9772 13.734 15.947 11.4839C16.2909 11.6209 16.5985 11.7519 16.8117 11.8445C16.8117 11.8445 16.9906 11.9029 17.0509 11.917C17.2641 11.9654 17.3465 11.7357 17.3465 11.7357C17.3867 11.1032 16.8438 10.8152 16.3653 10.5594C16.2144 10.4788 16.0697 10.4022 15.947 10.3176C15.947 10.1102 15.937 9.90268 15.9229 9.70326C15.9108 9.51593 15.8988 9.32255 15.9008 9.13521C15.9008 9.1191 15.9008 9.105 15.8947 9.08888C16.1762 8.03336 16.136 6.91137 16.0978 5.82765C16.0797 5.31399 16.0616 4.7822 16.0777 4.27458L16.0777 4.26854C16.1923 3.06396 15.4765 1.89563 13.9463 0.795796L13.9141 0.777668C12.4221 0.0706304 10.6445 0.00617083 9.0922 0.000127643L8.91123 0.000127627C7.3589 0.0041562 5.58135 0.0706298 4.08934 0.777667L4.05717 0.795796C2.52695 1.89563 1.80909 3.06396 1.92572 4.26854L1.92572 4.27458C1.94181 4.7822 1.92371 5.31399 1.90561 5.82765C1.86741 6.91338 1.82719 8.03336 2.1087 9.08888C2.10468 9.105 2.10267 9.1191 2.10267 9.13521C2.10267 9.32255 2.09061 9.51593 2.08055 9.70326C2.06849 9.9047 2.05642 10.1102 2.05642 10.3176C1.93577 10.4022 1.791 10.4788 1.63818 10.5594C1.15961 10.8152 0.614681 11.1032 0.656907 11.7357L0.656907 11.7337ZM4.14966 16.3385C4.16776 16.6125 4.18586 16.8945 4.15972 17.0939C3.8038 16.9952 3.48007 16.8321 3.19453 16.685C3.06182 15.3616 3.06986 13.9656 3.07791 12.614C3.07992 12.0701 3.08394 11.5081 3.07791 10.9622C3.09801 10.9562 3.11812 10.9481 3.13823 10.9421C3.20459 11.1919 3.27094 11.4416 3.33931 11.6914C3.6912 12.9927 4.05515 14.3363 4.13559 15.696C4.13559 15.696 4.13559 15.698 4.13357 15.7C4.1195 15.8692 4.13358 16.0968 4.15167 16.3385L4.14966 16.3385ZM4.13559 22.716C4.13559 22.716 4.13559 22.72 4.13559 22.722C3.77967 23.1994 3.49414 23.6647 3.28502 24.1099C3.28502 24.1099 3.27295 24.1099 3.25687 24.1139C3.22469 24.118 3.17442 24.124 3.14225 24.128C3.12415 24.13 3.11008 24.1321 3.11008 24.1341C3.06785 24.1421 3.02563 24.1542 2.9834 24.1663C2.86677 24.2006 2.75618 24.2328 2.64558 24.1824C2.6295 24.1703 2.61542 24.1562 2.59934 24.1421C2.58727 24.1321 2.57521 24.12 2.56113 24.1099C2.46662 23.9367 2.4244 23.7372 2.38217 23.5459C2.34799 23.3908 2.31179 23.2296 2.24946 23.0826C2.26554 23.0685 2.24946 22.9275 2.24946 22.9053C2.25348 21.9042 2.29973 19.5273 2.32386 17.0496C2.45255 17.0859 2.64558 17.1443 2.85672 17.2087C3.3554 17.3598 3.96668 17.5431 4.17982 17.5774C4.18988 17.6479 4.18988 17.7184 4.18787 17.7949C4.18787 17.8292 4.18787 17.8634 4.18787 17.8976C3.86011 17.8654 3.53034 17.801 3.23475 17.7103C3.21263 17.7063 3.19453 17.7043 3.17845 17.7043C3.16437 17.7043 3.15029 17.7043 3.13622 17.7063L3.10405 17.7063L3.10405 17.7385C3.06584 19.3097 3.14627 20.9373 3.22469 22.5105C3.23475 22.714 3.2448 22.9154 3.25486 23.1168L3.25486 23.145L3.30513 23.1511C3.38154 23.1611 3.468 23.1712 3.54642 23.145L3.55648 23.141L3.56251 23.1329C3.67109 23.006 3.76761 22.8691 3.86011 22.7381C3.95663 22.6012 4.05515 22.4602 4.16977 22.3332C4.18988 22.4541 4.17982 22.5871 4.13357 22.7079C4.13357 22.7119 4.13357 22.714 4.13357 22.718L4.13559 22.716ZM4.14966 22.2406C4.14966 22.2406 4.14966 22.2446 4.14966 22.2466C4.01695 22.3876 3.90434 22.5448 3.79777 22.6999C3.7093 22.8288 3.6168 22.9597 3.51224 23.0826C3.45594 23.0987 3.39159 23.0906 3.32926 23.0826C3.3192 22.8892 3.31116 22.6978 3.3011 22.5045C3.22268 20.9433 3.14225 19.3278 3.17845 17.7687C3.19252 17.7687 3.20459 17.7687 3.22067 17.7707C3.51827 17.8634 3.85608 17.9279 4.19189 17.9621L4.19189 21.2596C4.19189 21.2596 4.19189 21.2616 4.19189 21.2636C4.18586 21.3784 4.18787 21.4973 4.19189 21.6121C4.19792 21.8236 4.20395 22.0412 4.14765 22.2426L4.14966 22.2406ZM4.18787 17.4867C4.18787 17.4867 4.18787 17.5028 4.18586 17.5109C3.97472 17.4766 3.34735 17.2873 2.88085 17.1463C2.65765 17.0798 2.45858 17.0174 2.32788 16.9811C2.35201 14.5397 2.37614 12.1285 2.39021 11.208C2.58727 11.1335 2.79237 11.0589 2.99949 10.9884C3.00552 11.5262 3.00351 12.0782 2.99949 12.614C2.99144 13.9717 2.98541 15.3777 3.11812 16.7092L3.11812 16.7273L3.13823 16.7354C3.43784 16.8905 3.77766 17.0637 4.1577 17.1664C4.20999 17.2591 4.19993 17.3739 4.18787 17.4867V17.4867ZM15.6977 27.5645C15.6916 27.6088 15.6836 27.6532 15.6776 27.6955C15.6735 27.7015 15.6675 27.7055 15.6655 27.7136C15.5931 28.0278 15.5428 28.3562 15.4946 28.6724C15.4725 28.8114 15.4524 28.9504 15.4282 29.0914C15.4061 29.2203 15.382 29.3472 15.3558 29.4761C15.3337 29.5789 15.3116 29.6816 15.2855 29.7843C15.2553 29.8971 15.2251 30.0079 15.1869 30.1147C15.1889 30.1086 15.191 30.1066 15.1869 30.1167L15.2955 30.2013C15.0562 30.7915 14.4188 31.2669 13.8317 31.4482C13.8276 31.4482 13.5079 31.5086 13.5019 31.5086C13.5019 31.5086 13.4818 31.5126 13.4496 31.5167C13.4013 31.5247 13.3249 31.5388 13.2546 31.5509C13.158 31.5691 13.0696 31.5852 13.0675 31.5852C13.0515 31.5852 13.0354 31.5872 13.0193 31.5892C11.839 31.704 10.6003 31.7544 9.04394 31.7564C9.04394 31.7564 9.02987 31.7564 9.02383 31.7564C7.43932 31.7564 6.18459 31.706 4.99017 31.5892C4.97409 31.5892 4.958 31.5872 4.94191 31.5852C4.94191 31.5852 4.85143 31.5691 4.75491 31.5509C4.68252 31.5388 4.60812 31.5247 4.55986 31.5167C4.5297 31.5106 4.50758 31.5086 4.50758 31.5086C4.50356 31.5086 4.18384 31.4462 4.17781 31.4482C3.59066 31.2669 2.95525 30.7915 2.71395 30.2013L2.82253 30.1167C2.8165 30.1046 2.81851 30.1086 2.82253 30.1147C2.78433 30.0059 2.75216 29.8951 2.72401 29.7843C2.69787 29.6836 2.67374 29.5809 2.65363 29.4761C2.62749 29.3492 2.60336 29.2203 2.58124 29.0914C2.55711 28.9504 2.53499 28.8114 2.51488 28.6724C2.46662 28.3562 2.41635 28.0278 2.34397 27.7136C2.34397 27.7055 2.33592 27.7015 2.3319 27.6955C2.32386 27.6531 2.31782 27.6088 2.31179 27.5645C2.26353 27.2563 2.22734 26.9078 2.20321 26.5352C2.12881 25.4152 2.15093 24.0978 2.19517 23.1571C2.19517 23.145 2.19517 23.1309 2.19517 23.1188C2.20924 23.1551 2.22332 23.1914 2.23538 23.2296C2.26957 23.3364 2.29369 23.4472 2.31782 23.5539C2.36005 23.7514 2.40429 23.9568 2.50483 24.1401L2.51287 24.1502C2.52695 24.1623 2.54102 24.1744 2.55309 24.1864C2.56917 24.2006 2.58727 24.2167 2.60336 24.2308L2.60939 24.2348C2.74814 24.3013 2.87884 24.263 3.00552 24.2247C3.0397 24.2147 3.15029 24.1885 3.19252 24.1703C3.20257 24.1663 3.20861 24.1643 3.21062 24.1603L3.26692 24.1603C3.84402 23.6607 3.3755 27.8062 3.37751 27.8042C3.38154 27.8022 3.94054 24.9237 4.1376 23.419C4.16776 23.1893 4.18988 22.9919 4.19993 22.8429C4.20194 22.8026 4.20395 22.7643 4.20596 22.7301C4.26227 22.579 4.27031 22.4098 4.23411 22.2648C4.23411 22.2648 4.23411 22.2648 4.23613 22.2627C4.29444 22.0492 4.28841 21.8256 4.28237 21.6101C4.27835 21.4973 4.27634 21.3784 4.28237 21.2656C4.28237 21.2656 4.28438 21.2616 4.28438 21.2596L4.28438 17.9339C4.28438 17.8876 4.28438 17.8412 4.28438 17.7949C4.2864 17.7123 4.28841 17.6257 4.27232 17.5431C4.27232 17.529 4.27433 17.5149 4.27634 17.4988C4.28841 17.38 4.30047 17.247 4.23411 17.1322C4.26629 16.9247 4.24618 16.6286 4.22607 16.3385C4.20999 16.0988 4.19591 15.8732 4.20797 15.7101C4.20797 15.708 4.20596 15.704 4.20596 15.702C4.12553 14.3343 3.76158 12.9846 3.40768 11.6793C3.3373 11.4215 3.26893 11.1657 3.20057 10.9099C3.20459 10.8998 3.2066 10.8897 3.20057 10.8817C3.19654 10.8736 3.19051 10.8696 3.18247 10.8635C3.13019 10.5976 3.06182 10.3237 2.9834 10.0739L2.97938 10.0618L2.96731 10.0558C2.95123 10.0477 2.9271 10.0356 2.90096 10.0336L2.87884 10.0336L2.86878 10.0497C2.78835 10.2008 2.5551 10.3519 2.34799 10.3579C2.34799 10.3579 2.34598 10.3579 2.34397 10.3579C2.33994 10.1444 2.35201 9.92887 2.36609 9.72139C2.37614 9.55017 2.38619 9.37291 2.3882 9.19564C2.3882 9.19564 2.39021 9.19564 2.39223 9.19564C2.4807 9.22787 2.56716 9.26816 2.65564 9.31248C2.85471 9.41118 3.06182 9.50988 3.30714 9.50384C3.46398 10.0658 3.5987 10.654 3.72941 11.2261C3.92646 12.0923 4.13157 12.9887 4.41911 13.8146C4.41911 13.8186 4.41509 13.8206 4.41509 13.8246C4.48949 14.3947 4.55182 15.005 4.61416 15.7443L4.61416 15.7463C4.66644 16.971 4.69057 18.7739 4.68252 21.2515C4.68252 21.2556 4.6785 21.2576 4.6785 21.2616C4.69057 21.9404 4.67649 22.6616 4.63426 23.4693C4.63426 23.4754 4.63828 23.4814 4.64231 23.4875C4.59606 23.8541 4.54177 24.2308 4.48747 24.5933C4.3628 25.4474 4.23411 26.3277 4.19993 27.1939C4.19993 27.1939 4.19993 27.1939 4.19993 27.1959C4.19993 27.1979 4.19591 27.1999 4.19591 27.2019C4.18988 27.9634 4.31455 28.8698 4.43519 29.744C4.4734 30.024 4.50959 30.292 4.54177 30.5478C4.55785 30.6787 4.57394 30.8076 4.586 30.9325C4.57595 30.9446 4.57193 30.9587 4.58198 30.9728L4.59606 30.9909C4.65035 31.1561 4.53573 31.3414 4.66845 31.3475C5.73015 31.3857 7.42123 31.4099 9.03791 31.416C10.6305 31.4099 12.2853 31.3857 13.329 31.3475C13.4617 31.3434 13.347 31.1561 13.4013 30.9909L13.4154 30.9728C13.4255 30.9607 13.4214 30.9446 13.4114 30.9325C13.4235 30.8076 13.4395 30.6787 13.4556 30.5478C13.4878 30.2899 13.524 30.022 13.5622 29.744C13.6829 28.8678 13.8075 27.9634 13.8015 27.2019C13.8015 27.1999 13.7995 27.1979 13.7975 27.1959C13.7975 27.1959 13.7975 27.1959 13.7975 27.1939C13.7633 26.3297 13.6346 25.4474 13.5099 24.5934C13.4556 24.2308 13.4013 23.8541 13.3551 23.4875C13.3591 23.4814 13.3631 23.4774 13.3631 23.4693C13.3209 22.6616 13.3068 21.9404 13.3189 21.2616C13.3189 21.2576 13.3149 21.2536 13.3149 21.2515C13.3088 18.7739 13.331 16.971 13.3832 15.7463C13.3832 15.7463 13.3832 15.7463 13.3832 15.7443C13.4456 15.005 13.5099 14.3947 13.5823 13.8246C13.5823 13.8206 13.5803 13.8186 13.5783 13.8146C13.8658 12.9887 14.0709 12.0943 14.268 11.2261C14.3987 10.654 14.5314 10.0638 14.6903 9.50384C14.9356 9.50988 15.1427 9.41118 15.3418 9.31248C15.4302 9.26816 15.5167 9.22989 15.6052 9.19564C15.6052 9.19564 15.6072 9.19564 15.6092 9.19564C15.6092 9.37291 15.6193 9.55017 15.6313 9.72139C15.6434 9.93088 15.6575 10.1464 15.6534 10.3579C15.6534 10.3579 15.6514 10.3579 15.6494 10.3579C15.4403 10.3519 15.209 10.2008 15.1286 10.0497L15.1186 10.0316L15.0964 10.0316C15.0703 10.0356 15.0462 10.0477 15.0301 10.0558L15.018 10.0618L15.014 10.0739C14.9356 10.3237 14.8672 10.5976 14.8149 10.8635C14.8089 10.8676 14.8009 10.8736 14.7968 10.8817C14.7928 10.8917 14.7948 10.9018 14.7968 10.9099C14.7285 11.1657 14.6601 11.4235 14.5897 11.6793C14.2358 12.9846 13.8719 14.3343 13.7914 15.702C13.7914 15.706 13.7874 15.708 13.7894 15.7101C13.8035 15.8732 13.7894 16.0988 13.7713 16.3385C13.7512 16.6286 13.7331 16.9267 13.7633 17.1322C13.6969 17.247 13.709 17.38 13.7211 17.4988C13.7211 17.5129 13.7231 17.527 13.7251 17.5431C13.709 17.6277 13.711 17.7123 13.713 17.7949C13.713 17.8412 13.715 17.8876 13.713 17.9339L13.713 21.2596C13.713 21.2596 13.715 21.2636 13.715 21.2656C13.7211 21.3784 13.719 21.4973 13.715 21.6101C13.709 21.8276 13.703 22.0512 13.7613 22.2627C13.7613 22.2627 13.7613 22.2627 13.7633 22.2648C13.7271 22.4098 13.7351 22.579 13.7914 22.7301C13.7914 22.7643 13.7955 22.8026 13.7975 22.8429C13.8075 22.994 13.8296 23.1914 13.8598 23.419C14.0589 24.9237 14.6159 27.8002 14.6199 27.8042C14.6219 27.8042 14.1534 23.6607 14.7305 24.1603L14.7868 24.1603C14.7868 24.1623 14.7968 24.1663 14.8049 24.1703C14.8491 24.1885 14.9577 24.2147 14.9919 24.2247C15.1186 24.261 15.2513 24.3013 15.388 24.2348L15.394 24.2308C15.4121 24.2167 15.4282 24.2026 15.4443 24.1865C15.4584 24.1744 15.4705 24.1623 15.4845 24.1502L15.4926 24.1401C15.5931 23.9568 15.6373 23.7514 15.6796 23.5539C15.7037 23.4452 15.7278 23.3364 15.762 23.2296C15.7741 23.1914 15.7861 23.1551 15.8022 23.1188C15.8022 23.1309 15.8022 23.145 15.8022 23.1571C15.8465 24.0978 15.8686 25.4152 15.7942 26.5352C15.7701 26.9078 15.7339 27.2563 15.6856 27.5645L15.6977 27.5645ZM9.0178 6.91338C9.0178 6.91338 9.03389 6.91338 9.04193 6.91338C9.97896 6.91338 10.8778 7.00201 11.7163 7.18129C12.1406 7.27194 12.5568 7.38877 12.9529 7.53179C13.4215 7.701 13.9503 7.9125 14.272 8.27911C14.272 8.27911 14.274 8.27911 14.276 8.27911C14.3062 8.35566 14.3464 8.42818 14.3866 8.49868C14.453 8.6135 14.5113 8.72428 14.5294 8.84917C13.0072 7.93264 11.0789 7.42704 9.07411 7.41496L9.04394 7.41496L9.03992 7.41496L8.99971 7.41496C8.99971 7.41496 8.99367 7.41496 8.99166 7.41496L8.93536 7.41496C6.9306 7.42503 5.00224 7.93264 3.48007 8.84917C3.49816 8.72428 3.55648 8.61349 3.62283 8.49868C3.66305 8.42817 3.70327 8.35566 3.73343 8.27911C3.73343 8.27911 3.73544 8.27911 3.73745 8.27911C4.05918 7.9125 4.58802 7.70099 5.05653 7.53179C5.45266 7.38877 5.86889 7.27194 6.29317 7.18129C7.14776 7 8.0667 6.90935 9.02183 6.91338L9.0178 6.91338ZM9.0178 7.47337C9.0178 7.47337 9.03389 7.47337 9.04193 7.47337C11.0628 7.47942 13.0052 7.98905 14.5314 8.91968C14.5314 8.92371 14.5314 8.92572 14.5334 8.92975C14.6078 9.03047 14.6098 9.15334 14.6118 9.28629C14.6118 9.34874 14.6118 9.41319 14.6239 9.47564C14.6239 9.47564 14.6259 9.47765 14.6259 9.47967C14.4691 10.0437 14.3323 10.6359 14.2037 11.21C14.0086 12.0701 13.8055 12.9564 13.52 13.7763C12.1225 13.3593 10.6244 13.1458 9.06003 13.1438L9.05802 13.1438C9.05802 13.1438 9.04796 13.1438 9.04193 13.1438C9.04193 13.1438 9.02585 13.1438 9.0178 13.1438C9.00172 13.1438 8.98764 13.1438 8.97155 13.1438C8.96351 13.1438 8.95547 13.1438 8.94742 13.1438L8.94541 13.1438C7.38101 13.1458 5.88096 13.3593 4.48546 13.7763C4.20194 12.9585 3.99885 12.0701 3.80179 11.21C3.67109 10.6359 3.53637 10.0437 3.37953 9.47967C3.37953 9.47967 3.38154 9.47765 3.38154 9.47564C3.39159 9.41319 3.39159 9.34873 3.3936 9.28629C3.3936 9.15334 3.39762 9.02845 3.47202 8.92975C3.47404 8.92773 3.47202 8.92371 3.47403 8.91968C5.01431 7.98099 6.97885 7.46934 9.01981 7.47337L9.0178 7.47337ZM13.2988 15.7403C13.2465 16.967 13.2244 18.7739 13.2304 21.2556C13.2184 21.9284 13.2324 22.6435 13.2726 23.4411C13.2726 23.5137 13.331 23.9427 13.4034 24.5168C13.522 25.4515 13.6768 26.7769 13.6648 27.6068C13.6587 28.0198 13.6125 28.3139 13.4979 28.3703C11.9918 29.0511 10.922 29.0692 9.27317 29.0652C9.19475 29.0652 9.11834 29.0652 9.03992 29.0652C8.93536 29.0652 8.83281 29.0652 8.72825 29.0652C7.07939 29.0692 6.00965 29.0511 4.50356 28.3703C4.38895 28.3118 4.3427 28.0198 4.33666 27.6068C4.3246 26.7769 4.47943 25.4515 4.59807 24.5168C4.67046 23.9427 4.73078 23.5137 4.72877 23.4411C4.76899 22.6435 4.78306 21.9284 4.771 21.2556C4.77703 18.7739 4.75491 16.967 4.70263 15.7403C4.70263 15.7403 4.70263 15.7403 4.70263 15.7362C4.6403 15.005 4.57796 14.4007 4.50557 13.8367C5.91715 13.4157 7.4353 13.2042 9.01579 13.2082C9.02383 13.2082 9.03389 13.2082 9.04193 13.2082C10.6043 13.2082 12.1044 13.4197 13.4999 13.8367C13.4275 14.4007 13.3651 15.005 13.3028 15.7362C13.3028 15.7362 13.3028 15.7362 13.3028 15.7403L13.2988 15.7403ZM9.04193 31.2669C8.20343 31.2729 7.54992 31.2709 7.44938 31.2729C6.35752 31.2951 5.04245 31.2729 4.81523 30.9909C4.75089 30.9104 4.50557 29.3271 4.50557 28.5798C5.32598 29.0531 7.19602 29.3009 9.04193 29.2928C10.8617 29.2928 12.6915 29.0471 13.4999 28.5798C13.4999 29.3271 13.2525 30.9124 13.1902 30.9909C12.965 31.2729 11.6499 31.2951 10.5561 31.2729C10.4595 31.2709 9.84223 31.2729 9.04193 31.2669V31.2669ZM15.022 24.1643C14.9798 24.1522 14.9376 24.1401 14.8954 24.1321C14.8954 24.1321 14.8813 24.13 14.8632 24.126C14.831 24.122 14.7807 24.1159 14.7486 24.1119C14.7325 24.1119 14.7204 24.1079 14.7204 24.1079C14.5113 23.6627 14.2258 23.1954 13.8699 22.72C13.8699 22.72 13.8699 22.716 13.8699 22.714C13.8699 22.7099 13.8699 22.7079 13.8699 22.7039C13.8256 22.581 13.8136 22.4501 13.8337 22.3292C13.9463 22.4561 14.0468 22.5971 14.1433 22.7341C14.2358 22.8671 14.3323 23.004 14.4409 23.1289L14.447 23.137L14.457 23.141C14.5354 23.1672 14.6219 23.1571 14.6983 23.147L14.7466 23.141L14.7466 23.1128C14.7566 22.9114 14.7687 22.7079 14.7787 22.5065C14.8572 20.9333 14.9376 19.3057 14.8994 17.7345L14.8994 17.7043L14.8652 17.7023C14.8511 17.7023 14.8371 17.7002 14.823 17.7002C14.8049 17.7002 14.7868 17.7002 14.7667 17.7063C14.4711 17.7969 14.1413 17.8614 13.8136 17.8936C13.8136 17.8594 13.8136 17.8251 13.8136 17.7909C13.8136 17.7164 13.8136 17.6438 13.8216 17.5733C14.0368 17.5411 14.646 17.3558 15.1447 17.2047C15.3578 17.1402 15.5489 17.0818 15.6776 17.0456C15.7017 19.5232 15.7479 21.9002 15.752 22.9013C15.752 22.9235 15.7359 23.0645 15.752 23.0786C15.6896 23.2256 15.6534 23.3868 15.6193 23.5419C15.577 23.7332 15.5348 23.9326 15.4403 24.1059C15.4282 24.1159 15.4141 24.128 15.4021 24.1381C15.388 24.1522 15.3719 24.1643 15.3558 24.1784C15.2452 24.2288 15.1346 24.1965 15.018 24.1623L15.022 24.1643ZM13.8719 15.698C13.8719 15.698 13.8719 15.696 13.8699 15.6939C13.9503 14.3343 14.3142 12.9887 14.6661 11.6894C14.7345 11.4396 14.8009 11.1899 14.8672 10.9401C14.8873 10.9461 14.9074 10.9542 14.9275 10.9602C14.9215 11.5061 14.9235 12.0681 14.9275 12.612C14.9356 13.9636 14.9416 15.3596 14.8109 16.683C14.5234 16.8321 14.1996 16.9932 13.8457 17.0919C13.8196 16.8925 13.8377 16.6105 13.8558 16.3365C13.8719 16.0948 13.888 15.8652 13.8739 15.698L13.8719 15.698ZM13.8477 17.1664C14.2258 17.0657 14.5656 16.8905 14.8672 16.7354L14.8853 16.7273L14.8853 16.7092C15.022 15.3757 15.014 13.9717 15.006 12.614C15.0039 12.0782 14.9999 11.5262 15.006 10.9884C15.2131 11.0589 15.4182 11.1335 15.6152 11.208C15.6293 12.1306 15.6554 14.5397 15.6776 16.9811C15.5469 17.0174 15.3458 17.0778 15.1246 17.1463C14.6581 17.2873 14.0307 17.4766 13.8196 17.5109C13.8196 17.5028 13.8196 17.4948 13.8176 17.4867C13.8055 17.3739 13.7955 17.2591 13.8477 17.1664V17.1664ZM13.8115 21.6101C13.8156 21.4953 13.8176 21.3784 13.8115 21.2616C13.8115 21.2616 13.8115 21.2596 13.8115 21.2576L13.8115 17.9601C14.1473 17.9279 14.4852 17.8614 14.7828 17.7687C14.7968 17.7667 14.8109 17.7667 14.825 17.7667C14.8612 19.3258 14.7807 20.9413 14.7023 22.5025C14.6923 22.6958 14.6822 22.8892 14.6742 23.0806C14.6098 23.0886 14.5455 23.0947 14.4912 23.0806C14.3866 22.9597 14.2941 22.8268 14.2057 22.6978C14.0971 22.5427 13.9845 22.3856 13.8538 22.2446C13.8538 22.2446 13.8538 22.2406 13.8538 22.2386C13.7975 22.0371 13.8035 21.8176 13.8095 21.6081L13.8115 21.6101ZM16.2446 10.7447C16.6769 10.9743 17.1233 11.214 17.1093 11.6934C17.0952 11.6975 17.0831 11.6975 17.067 11.6995C17.063 11.6995 17.059 11.6995 17.055 11.6995L16.9162 11.6411C16.681 11.5403 16.0254 11.2382 15.7902 11.1415C15.7801 11.1375 15.7701 11.1335 15.762 11.1294C15.7319 11.1173 15.7117 11.1113 15.7057 11.1113C15.7057 11.1113 14.8974 10.8555 14.8974 10.791C14.8954 10.791 14.8934 10.791 14.8954 10.791C14.9014 10.7709 14.9094 10.7427 14.9175 10.7104C14.9436 10.6077 14.9778 10.4586 15.016 10.3096C15.0361 10.235 15.0562 10.1625 15.0763 10.0961C15.0804 10.0961 15.0824 10.094 15.0864 10.092C15.1869 10.2552 15.4282 10.4063 15.6514 10.4123C15.6575 10.4123 15.6615 10.4123 15.6655 10.4123C15.6776 10.4325 15.6997 10.4445 15.7258 10.4466C15.7258 10.4466 15.7339 10.4466 15.7379 10.4466C15.8847 10.5594 16.0656 10.656 16.2426 10.7507L16.2446 10.7447ZM4.20596 0.967017C5.64771 0.286166 7.37096 0.219692 9.0178 0.217678C9.02585 0.217678 9.03389 0.217678 9.04193 0.217678C10.6727 0.219693 12.3718 0.29221 13.7995 0.967018C15.2191 1.98829 15.9048 3.05993 15.8404 4.15372C15.8244 4.12955 15.8063 4.10739 15.7922 4.08322C15.6595 3.87171 15.565 3.63603 15.4745 3.40438C15.4121 3.24525 15.3498 3.08007 15.2734 2.92496L15.2694 2.91892L15.2633 2.9149C15.2191 2.88468 15.1648 2.88065 15.1186 2.87864C14.7988 2.25822 14.1654 1.87347 13.5522 1.50283C13.3249 1.36384 13.1098 1.23291 12.9087 1.09191C12.9087 1.09191 12.9087 1.09191 12.9087 1.08788C12.788 0.807882 12.4985 0.743423 12.2652 0.689036L12.229 0.680977C11.3745 0.517814 10.5199 0.437242 9.58083 0.437242C9.40388 0.437242 9.22291 0.441271 9.04193 0.447314C9.04193 0.447314 9.02585 0.447314 9.0178 0.447314C8.81672 0.441271 8.61766 0.435228 8.42462 0.435228C7.48558 0.435228 6.63099 0.513786 5.7764 0.678963L5.7402 0.687022C5.50695 0.739395 5.21539 0.805868 5.09675 1.08586C5.09675 1.08586 5.09675 1.08788 5.09675 1.08989C4.89567 1.23291 4.68051 1.36384 4.45329 1.50082C3.84 1.87146 3.2066 2.2562 2.88688 2.87662C2.84063 2.87864 2.78634 2.88266 2.7421 2.91288L2.73607 2.91691L2.73607 2.92295C2.65564 3.07806 2.59331 3.24122 2.53097 3.40237C2.44049 3.63402 2.34799 3.87171 2.21326 4.0812C2.19718 4.10538 2.18109 4.12753 2.16501 4.15171C2.10267 3.05791 2.78634 1.98628 4.20596 0.965L4.20596 0.967017ZM14.827 3.36812C14.8069 3.34798 14.3605 2.92497 13.8236 2.48584C13.6688 2.36095 13.5079 2.23404 13.345 2.1152C13.1058 1.93995 12.8685 1.78283 12.6573 1.67405C12.597 1.64182 12.5367 1.61362 12.4804 1.59146C12.4804 1.59146 12.4804 1.58945 12.4784 1.58744C12.4643 1.47665 12.4241 1.3719 12.3839 1.27118C12.3477 1.18255 12.3115 1.0919 12.2954 0.999245C12.2994 0.989173 12.3014 0.981116 12.3075 0.971044C12.414 0.942843 12.5106 0.991189 12.6131 1.04155C12.6895 1.07982 12.77 1.11608 12.8564 1.12414C12.8624 1.12817 12.8685 1.13018 12.8765 1.13018C13.0796 1.2732 13.3068 1.41219 13.524 1.54312C14.1353 1.91175 14.7647 2.29447 15.0743 2.90684C15.0643 2.95518 15.0562 3.00353 15.0502 3.05187C15.0341 3.16669 15.016 3.28352 14.9577 3.38222C14.9456 3.39431 14.9336 3.4064 14.9215 3.41848C14.8873 3.42251 14.8632 3.40035 14.829 3.36611L14.827 3.36812ZM9.0178 1.25708C9.00574 1.25708 8.99568 1.25708 8.98362 1.25708C7.83747 1.25708 6.69533 1.36183 5.58939 1.56931C5.60548 1.47463 5.63966 1.386 5.67787 1.29133C5.71607 1.19867 5.75428 1.10198 5.77037 1.00126L5.77037 0.995218L5.77037 0.989175C5.76433 0.97306 5.7583 0.956943 5.74825 0.9368L5.74221 0.926727L5.73216 0.922701C5.69999 0.912629 5.66781 0.908599 5.63765 0.908599C5.54113 0.908599 5.45467 0.9509 5.36821 0.993201C5.30788 1.02342 5.25158 1.05162 5.19126 1.0637C5.30989 0.858241 5.54717 0.801837 5.7583 0.753493L5.79248 0.745437C6.79185 0.554074 7.79524 0.481558 8.93134 0.513788C8.93536 0.513788 8.93938 0.517814 8.94542 0.517814C8.96954 0.517814 8.99367 0.517814 9.0178 0.517814C9.02585 0.517814 9.03389 0.517814 9.04193 0.517814C9.04193 0.517814 9.054 0.517814 9.06003 0.517814C9.06606 0.517814 9.06807 0.515802 9.07411 0.513788C10.2102 0.481558 11.2156 0.556088 12.213 0.745438L12.2471 0.753494C12.4603 0.801838 12.6956 0.856227 12.8142 1.06371C12.7559 1.04961 12.6976 1.0214 12.6372 0.993202C12.5528 0.950901 12.4643 0.9086 12.3678 0.9086C12.3376 0.9086 12.3055 0.91263 12.2733 0.922701L12.2612 0.926728L12.2552 0.9368C12.2431 0.956944 12.2371 0.973061 12.2331 0.989175L12.2331 0.995218L12.2331 1.00126C12.2492 1.10198 12.2874 1.19867 12.3256 1.29133C12.3638 1.38399 12.398 1.47463 12.414 1.56931C11.3141 1.36384 10.18 1.2591 9.03992 1.25708C9.03992 1.25708 9.02384 1.25708 9.01579 1.25708L9.0178 1.25708ZM5.52505 1.59146C5.46875 1.61362 5.40842 1.64182 5.3481 1.67405C5.13495 1.78484 4.89768 1.94196 4.6604 2.1152C4.49954 2.23404 4.33667 2.36095 4.18184 2.48584C3.64495 2.92295 3.20057 3.34798 3.17845 3.36812C3.14426 3.40237 3.12013 3.42251 3.08595 3.4205C3.07389 3.40841 3.06383 3.39633 3.05177 3.38424C2.99345 3.28554 2.97536 3.16669 2.95927 3.05389C2.95324 3.00554 2.94519 2.9572 2.93514 2.90885C3.2448 2.29649 3.87619 1.91376 4.48547 1.54513C4.70464 1.41219 4.92985 1.27521 5.13294 1.13219C5.14099 1.13219 5.14702 1.13018 5.15305 1.12615C5.23951 1.11809 5.31995 1.08183 5.39636 1.04356C5.49891 0.993201 5.59543 0.946873 5.702 0.97306C5.70602 0.983131 5.71004 0.991189 5.71406 1.00126C5.69798 1.09392 5.66178 1.18658 5.62559 1.2732C5.58537 1.37391 5.54314 1.47866 5.52907 1.58945C5.52907 1.58945 5.52706 1.59147 5.52706 1.59348L5.52505 1.59146ZM2.15093 5.82966C2.16903 5.31197 2.18914 4.77615 2.17104 4.26048C2.17104 4.25645 2.17104 4.25242 2.17104 4.24839C2.18914 4.22624 2.20321 4.20207 2.2193 4.17991C2.38016 3.94826 2.48673 3.68438 2.58727 3.42453C2.6476 3.26942 2.70993 3.10827 2.78433 2.95719C2.81248 2.94108 2.84667 2.93907 2.87884 2.93705C2.88688 2.97935 2.89493 3.02165 2.90096 3.06395C2.91905 3.1828 2.93715 3.30769 3.0015 3.41647L3.00753 3.42251C3.02161 3.4346 3.03367 3.44668 3.04775 3.4628L3.05378 3.46884L3.06383 3.46884C3.11209 3.47958 3.20392 3.44265 3.33931 3.35805C3.33931 3.35805 3.34534 3.35805 3.34937 3.35805C3.35138 3.35805 3.35339 3.35805 3.35741 3.35805C3.36143 3.35805 3.12416 3.59776 3.37349 3.34798C4.04711 2.66914 4.70866 1.98426 5.5532 1.63981C5.55722 1.63981 5.55923 1.64182 5.56325 1.63981C6.6893 1.42629 7.85154 1.31953 9.01981 1.32154C9.02786 1.32154 9.0359 1.32154 9.04394 1.32154C10.1941 1.32154 11.3383 1.4283 12.4462 1.63779C12.4502 1.63779 12.4522 1.63779 12.4563 1.63779C13.3008 1.98225 13.9624 2.66914 14.636 3.34597C14.8853 3.59575 14.648 3.35402 14.6521 3.35604C14.6541 3.35604 14.6561 3.35604 14.6601 3.35604C14.6641 3.35604 14.6661 3.35604 14.6702 3.35604C14.8055 3.44198 14.8974 3.47959 14.9456 3.46884L14.9557 3.46884L14.9617 3.46078C14.9758 3.44467 14.9879 3.43258 15.0019 3.4205L15.008 3.41445C15.0743 3.30568 15.0904 3.1828 15.1085 3.06194C15.1145 3.01964 15.1226 2.97734 15.1306 2.93504C15.1648 2.93504 15.199 2.94108 15.2251 2.95518C15.2995 3.10626 15.3619 3.26741 15.4222 3.42251C15.5227 3.68236 15.6293 3.94624 15.7902 4.17789C15.8063 4.20005 15.8223 4.22422 15.8384 4.24638C15.8384 4.25041 15.8384 4.25444 15.8384 4.25847C15.8223 4.77414 15.8404 5.30996 15.8585 5.82765C15.8967 6.91338 15.9349 8.03538 15.6494 9.07075C15.6313 9.08083 15.6172 9.09694 15.6152 9.1191C15.6072 9.12111 15.5991 9.12313 15.5931 9.12716C15.4986 9.1614 15.4061 9.20773 15.3156 9.25205C15.1266 9.34471 14.9316 9.43938 14.7064 9.43737C14.7003 9.38701 14.6983 9.33665 14.6983 9.28226C14.6963 9.14528 14.6943 9.00227 14.6058 8.88543C14.6058 8.88543 14.6018 8.88342 14.5998 8.88141C14.5897 8.72831 14.5173 8.5994 14.447 8.47249C14.4067 8.404 14.3665 8.33149 14.3384 8.25696C14.3384 8.25091 14.3384 8.24286 14.3323 8.23681C13.9985 7.85811 13.4617 7.64258 12.9831 7.46934C12.5829 7.32632 12.1647 7.20748 11.7364 7.11683C10.8919 6.93755 9.98701 6.84691 9.04595 6.84691C9.04595 6.84691 9.02987 6.84691 9.02183 6.84691C9.00574 6.84691 8.98965 6.84691 8.97357 6.84691C8.0305 6.84691 7.12363 6.93755 6.27709 7.11683C5.84879 7.20748 5.43054 7.32632 5.03039 7.46934C4.55182 7.64258 4.01494 7.85811 3.68115 8.23681C3.67511 8.24286 3.67511 8.2489 3.67511 8.25696C3.64696 8.33149 3.60675 8.404 3.56653 8.47249C3.49615 8.59738 3.42376 8.72831 3.41371 8.8814C3.4117 8.8814 3.40969 8.88342 3.40768 8.88543C3.3192 9.00428 3.31719 9.14528 3.31518 9.28226C3.31518 9.33665 3.31317 9.38701 3.30714 9.43737C3.08193 9.43938 2.88688 9.3447 2.69787 9.25204C2.60738 9.20773 2.51689 9.16341 2.42038 9.12716C2.41233 9.12514 2.40429 9.12111 2.39625 9.1191C2.39424 9.09895 2.38016 9.08284 2.36206 9.07075C2.07653 8.03336 2.11473 6.91338 2.15294 5.82765L2.15093 5.82966ZM1.76083 10.7447C1.93779 10.65 2.11876 10.5533 2.26555 10.4405C2.26957 10.4405 2.27359 10.4405 2.27761 10.4405C2.30375 10.4405 2.32587 10.4264 2.33793 10.4063C2.34397 10.4063 2.34799 10.4063 2.35402 10.4063C2.57923 10.4002 2.82053 10.2491 2.91905 10.086C2.92308 10.086 2.92509 10.088 2.92911 10.09C2.94922 10.1565 2.96932 10.229 2.98943 10.3035C3.02764 10.4526 3.06182 10.6037 3.08796 10.7044C3.096 10.7366 3.10405 10.7648 3.11008 10.785C3.11008 10.787 3.11008 10.785 3.10807 10.785C3.10807 10.8494 2.29973 11.1052 2.29973 11.1052C2.2937 11.1052 2.27359 11.1113 2.24343 11.1234C2.23538 11.1274 2.22533 11.1314 2.21528 11.1355C1.98001 11.2322 1.3265 11.5343 1.08923 11.635L0.950484 11.6934C0.950484 11.6934 0.942439 11.6934 0.938418 11.6934C0.922331 11.6934 0.910267 11.6894 0.896191 11.6874C0.880105 11.206 1.32851 10.9683 1.76083 10.7386L1.76083 10.7447Z"
        fill="#1A1F29"
      />
      <path
        d="M3.24718 2.91301L3.26728 2.89488C3.215 2.96135 3.215 3.03387 3.28739 3.07617C3.51059 2.93315 3.69558 2.69143 3.89867 2.5182C4.19828 2.26238 4.63262 2.01461 4.84375 1.69634C4.56425 1.69433 4.18622 2.01058 3.97911 2.16367C3.70966 2.36309 3.41005 2.631 3.24919 2.91301L3.24718 2.91301Z"
        fill="white"
      />
      <path
        d="M9.04242 13.6537C7.18847 13.6698 5.64216 13.9719 5.16561 14.3809C6.20921 14.1694 7.55845 14.0384 9.04242 14.0243C10.4942 14.0445 11.8153 14.1734 12.8408 14.3809C12.3723 13.978 10.8622 13.6799 9.04242 13.6557L9.04242 13.6537Z"
        fill="#3385FF"
      />
      <path
        d="M9.04272 12.741C11.516 12.7108 13.5007 13.5427 13.6575 11.8063C13.8908 11.2 14.1441 9.96521 14.2949 9.34077C13.9149 10.08 13.4765 11.905 12.268 12.0843C11.0998 12.2575 10.2029 12.2757 9.04272 12.2535C7.84227 12.2777 6.93339 12.2616 5.73898 12.0843C4.52848 11.905 4.09213 10.078 3.71209 9.34076C3.8629 9.96521 4.11626 11.198 4.34952 11.8063C4.50837 13.5608 6.53324 12.6906 9.04272 12.741V12.741Z"
        fill="#93A3C0"
      />
    </svg>
