<svg
    width="20"
    height="20"
    viewBox="0 0 20 20"
    fill="none"
    xmlns="http://www.w3.org/2000/svg"
  >
    <path
      d="M11.8733 2.57084L12.1679 2.27621L11.8733 2.57084C12.1858 2.8834 12.3614 3.30732 12.3614 3.74935V7.49935H2.08366V3.74935C2.08366 3.30732 2.25925 2.8834 2.57181 2.57084C2.88437 2.25828 3.3083 2.08268 3.75033 2.08268H10.6948C11.1368 2.08268 11.5607 2.25828 11.8733 2.57084ZM15.9725 4.03685V3.86426L15.8505 3.74222L14.9597 2.85143L15.3524 2.45874L17.6315 4.7378C17.6316 4.73793 17.6317 4.73806 17.6319 4.7382C17.8139 4.9212 17.9164 5.16864 17.917 5.42677V14.166C17.917 14.608 17.7414 15.032 17.4288 15.3445C17.1163 15.6571 16.6924 15.8327 16.2503 15.8327C15.8083 15.8327 15.3844 15.6571 15.0718 15.3445C14.7593 15.032 14.5837 14.608 14.5837 14.166V13.4716C14.5837 13.1769 14.4666 12.8943 14.2582 12.6859C14.0498 12.4775 13.7672 12.3605 13.4725 12.3605H12.7781H12.3614V12.7771V17.916H2.08366V9.72157H12.3614V11.3882V11.8049H12.7781H13.4725C13.9146 11.8049 14.3385 11.9805 14.6511 12.2931C14.9636 12.6056 15.1392 13.0295 15.1392 13.4716V14.166C15.1392 14.4607 15.2563 14.7433 15.4647 14.9517C15.673 15.1601 15.9556 15.2771 16.2503 15.2771C16.545 15.2771 16.8276 15.1601 17.036 14.9517C17.2444 14.7433 17.3614 14.4607 17.3614 14.166V7.22157V6.8049H16.9448C16.6869 6.8049 16.4396 6.70247 16.2573 6.52015C16.075 6.33782 15.9725 6.09053 15.9725 5.83268V4.03685Z"
      fill="#0066FF"
      stroke="#0066FF"
      stroke-width="0.833333"
    />
  </svg>
