<svg width="current" height="current" viewBox="0 0 12 12" fill="none" xmlns="http://www.w3.org/2000/svg">
<path fill-rule="evenodd" clip-rule="evenodd" d="M5.99922 10.8012C8.65019 10.8012 10.7992 8.65214 10.7992 6.00117C10.7992 3.35021 8.65019 1.20117 5.99922 1.20117C3.34825 1.20117 1.19922 3.35021 1.19922 6.00117C1.19922 8.65214 3.34825 10.8012 5.99922 10.8012ZM6.44922 3.00117C6.44922 2.75264 6.24775 2.55117 5.99922 2.55117C5.75069 2.55117 5.54922 2.75264 5.54922 3.00117V6.00117C5.54922 6.2497 5.75069 6.45117 5.99922 6.45117H8.39922C8.64775 6.45117 8.84922 6.2497 8.84922 6.00117C8.84922 5.75264 8.64775 5.55117 8.39922 5.55117H6.44922V3.00117Z" fill="current"/>
</svg>
