<svg
    width="20"
    height="20"
    viewBox="0 0 20 20"
    fill="none"
    xmlns="http://www.w3.org/2000/svg"
  >
    <path
      d="M15.1392 16.9448V17.3614H15.5559H17.917V17.917H2.08366V17.3614H4.44477H4.86144V16.9448V4.58365C4.86144 3.79406 5.42545 3.10527 6.20096 2.94983L10.3667 2.11682C10.367 2.11677 10.3672 2.11673 10.3674 2.11668C10.862 2.01977 11.3648 2.14483 11.7513 2.46199L11.7514 2.46208C11.9829 2.65196 12.1507 2.90557 12.2535 3.19528L12.3519 3.47254H12.6462H13.4725C14.391 3.47254 15.1392 4.22072 15.1392 5.13921V16.9448ZM14.167 17.3614H14.5837V16.9448V5.13921C14.5837 4.52549 14.085 4.0281 13.4725 4.0281H12.7781H12.3614V4.44476V16.9448V17.3614H12.7781H14.167ZM8.88921 9.82671C8.88921 10.6318 9.54243 11.285 10.3475 11.285C11.1527 11.285 11.8059 10.6318 11.8059 9.82671C11.8059 9.02159 11.1527 8.36837 10.3475 8.36837C9.54243 8.36837 8.88921 9.02159 8.88921 9.82671Z"
      fill="#0066FF"
      stroke="#0066FF"
      stroke-width="0.833333"
    />
  </svg>
