<svg
    width="21"
    height="20"
    viewBox="0 0 21 20"
    fill="none"
    xmlns="http://www.w3.org/2000/svg"
  >
    <path
      d="M13.1722 1.3054L13.1722 1.30542L13.1758 1.30848C15.6975 3.41296 18.0093 5.91195 19.0026 8.59916C19.4961 9.93437 19.6617 11.3093 19.3723 12.7087C19.0832 14.1068 18.3338 15.5593 16.9502 17.041C15.3032 18.6696 13.0804 19.5831 10.764 19.5831C8.44738 19.5831 6.22436 18.6694 4.57735 17.0406C3.19539 15.5693 2.447 14.1208 2.15848 12.7231C1.86967 11.3238 2.0355 9.94544 2.52922 8.606C3.52268 5.91079 5.83365 3.40161 8.35146 1.30902L8.35149 1.30905L8.35576 1.3054C9.02711 0.731957 9.88105 0.416898 10.764 0.416898C11.6469 0.416898 12.5008 0.731957 13.1722 1.3054ZM10.1369 14.0419L10.137 14.0418L13.4721 9.03908C13.4721 9.03905 13.4721 9.03902 13.4722 9.03898C13.6562 8.76304 13.7231 8.42528 13.6581 8.10002C13.5932 7.77471 13.4016 7.48853 13.1257 7.30444C12.8497 7.12035 12.5119 7.05343 12.1866 7.1184C11.8613 7.18337 11.5751 7.3749 11.391 7.65087L11.391 7.65097L8.05585 12.6536C7.87176 12.9296 7.80484 13.2674 7.86981 13.5927C7.93478 13.918 8.12631 14.2042 8.40228 14.3883C8.67825 14.5724 9.01604 14.6393 9.34134 14.5743L9.2597 14.1655L9.34135 14.5743C9.66665 14.5094 9.95283 14.3178 10.1369 14.0419ZM12.381 12.4634L12.6758 12.7582L12.381 12.4634C12.1464 12.6979 12.0147 13.016 12.0147 13.3477C12.0147 13.6795 12.1464 13.9976 12.381 14.2321L12.6758 13.9373L12.381 14.2321C12.6155 14.4667 12.9337 14.5984 13.2654 14.5984C13.5971 14.5984 13.9152 14.4667 14.1497 14.2321C14.3843 13.9976 14.5161 13.6795 14.5161 13.3477C14.5161 13.016 14.3843 12.6979 14.1497 12.4634C13.9152 12.2288 13.5971 12.0971 13.2654 12.0971C12.9337 12.0971 12.6155 12.2288 12.381 12.4634ZM7.37822 7.4606C7.14367 7.69515 7.0119 8.01327 7.0119 8.34498C7.0119 8.67668 7.14367 8.9948 7.37822 9.22935C7.61277 9.4639 7.93088 9.59567 8.26259 9.59567C8.59429 9.59567 8.91241 9.4639 9.14696 9.22935C9.38151 8.9948 9.51328 8.67668 9.51328 8.34498C9.51328 8.01327 9.38151 7.69515 9.14696 7.4606C8.91241 7.22605 8.59429 7.09428 8.26259 7.09428C7.93088 7.09428 7.61277 7.22605 7.37822 7.4606Z"
      fill="#0066FF"
      stroke="#0066FF"
      stroke-width="0.833795"
    />
  </svg>
