<svg width="20" height="20" viewBox="0 0 20 20" xmlns="http://www.w3.org/2000/svg">
  <path d="M6.875 5.625H16.875M6.875 10H16.875M6.875 14.375H16.875M3.125 5.625H3.13125V5.63125H3.125V5.625ZM3.4375 5.625C3.4375 5.79759 3.29759 5.9375 3.125 5.9375C2.95241 5.9375 2.8125 5.79759 2.8125 5.625C2.8125 5.45241 2.95241 5.3125 3.125 5.3125C3.29759 5.3125 3.4375 5.45241 3.4375 5.625ZM3.125 10H3.13125V10.0063H3.125V10ZM3.4375 10C3.4375 10.1726 3.29759 10.3125 3.125 10.3125C2.95241 10.3125 2.8125 10.1726 2.8125 10C2.8125 9.82741 2.95241 9.6875 3.125 9.6875C3.29759 9.6875 3.4375 9.82741 3.4375 10ZM3.125 14.375H3.13125V14.3813H3.125V14.375ZM3.4375 14.375C3.4375 14.5476 3.29759 14.6875 3.125 14.6875C2.95241 14.6875 2.8125 14.5476 2.8125 14.375C2.8125 14.2024 2.95241 14.0625 3.125 14.0625C3.29759 14.0625 3.4375 14.2024 3.4375 14.375Z" stroke="current" stroke-width="2" stroke-linecap="round" stroke-linejoin="round"/>
</svg>
