<svg width="current" height="current" viewBox="0 0 20 20" fill="none" xmlns="http://www.w3.org/2000/svg">
<path d="M15.825 4.06818C15.6531 3.60901 15.342 3.21257 14.9337 2.93221C14.5253 2.65184 14.0393 2.50101 13.541 2.5H6.45769C5.96402 2.49962 5.482 2.64714 5.07598 2.92284C4.66997 3.19854 4.3593 3.58931 4.18546 4.04296L2.68616 7.75C2.01022 9.57046 1.66494 11.4933 1.66602 13.4309V15.3243C1.66602 15.3962 1.72431 15.4545 1.79623 15.4545H3.61914C3.69106 15.4545 3.74935 15.5128 3.74935 15.5848V16.7188C3.74935 17.1502 4.09913 17.5 4.5306 17.5H5.74588C6.17735 17.5 6.52713 17.1502 6.52713 16.7187V15.5848C6.52713 15.5128 6.58543 15.4545 6.65734 15.4545H13.3414C13.4133 15.4545 13.4716 15.5128 13.4716 15.5848V16.7188C13.4716 17.1502 13.8214 17.5 14.2528 17.5H15.4681C15.8996 17.5 16.2494 17.1502 16.2494 16.7187V15.5848C16.2494 15.5128 16.3077 15.4545 16.3796 15.4545H18.2025C18.2744 15.4545 18.3327 15.3962 18.3327 15.3243V13.4309C18.3331 11.4829 17.9842 9.54999 17.3021 7.72068L15.825 4.06818ZM13.4716 12.3864C13.4716 12.1151 13.5813 11.855 13.7767 11.6632C13.972 11.4714 14.237 11.3636 14.5132 11.3636C14.7895 11.3636 15.0545 11.4714 15.2498 11.6632C15.4452 11.855 15.5549 12.1151 15.5549 12.3864C15.5549 12.6576 15.4452 12.9177 15.2498 13.1095C15.0545 13.3013 14.7895 13.4091 14.5132 13.4091C14.237 13.4091 13.972 13.3013 13.7767 13.1095C13.5813 12.9177 13.4716 12.6576 13.4716 12.3864ZM4.63199 8.47614L6.13269 4.76977C6.15698 4.70423 6.20117 4.64758 6.25928 4.60747C6.3174 4.56736 6.38665 4.54571 6.45769 4.54545H13.541C13.6171 4.54731 13.6906 4.57271 13.7511 4.61801C13.8115 4.66331 13.8559 4.72621 13.8778 4.79773L15.3556 8.44818C15.4619 8.73523 15.5535 9.02568 15.6375 9.31818H4.35907C4.4438 9.03455 4.52991 8.75295 4.63199 8.47614ZM5.48546 13.4091C5.2092 13.4091 4.94424 13.3013 4.74889 13.1095C4.55354 12.9177 4.4438 12.6576 4.4438 12.3864C4.4438 12.1151 4.55354 11.855 4.74889 11.6632C4.94424 11.4714 5.2092 11.3636 5.48546 11.3636C5.76173 11.3636 6.02668 11.4714 6.22203 11.6632C6.41738 11.855 6.52713 12.1151 6.52713 12.3864C6.52713 12.6576 6.41738 12.9177 6.22203 13.1095C6.02668 13.3013 5.76173 13.4091 5.48546 13.4091Z" fill="current"/>
</svg>
