<svg width="20" height="20" viewBox="0 0 20 20" fill="none" xmlns="http://www.w3.org/2000/svg">
<path fill-rule="evenodd" clip-rule="evenodd" d="M1.25 5C1.25 3.96447 2.08947 3.125 3.125 3.125H16.875C17.9105 3.125 18.75 3.96447 18.75 5V15C18.75 16.0355 17.9105 16.875 16.875 16.875H3.125C2.08947 16.875 1.25 16.0355 1.25 15V5ZM2.5 13.3839V15C2.5 15.3452 2.77982 15.625 3.125 15.625H16.875C17.2202 15.625 17.5 15.3452 17.5 15V13.3839L15.2589 11.1428C14.7707 10.6546 13.9793 10.6546 13.4911 11.1428L12.7589 11.875L13.5669 12.6831C13.811 12.9271 13.811 13.3229 13.5669 13.5669C13.3229 13.811 12.9271 13.811 12.6831 13.5669L8.38388 9.26777C7.89573 8.77961 7.10427 8.77961 6.61612 9.26777L2.5 13.3839ZM10.9375 6.875C10.9375 6.35723 11.3572 5.9375 11.875 5.9375C12.3928 5.9375 12.8125 6.35723 12.8125 6.875C12.8125 7.39277 12.3928 7.8125 11.875 7.8125C11.3572 7.8125 10.9375 7.39277 10.9375 6.875Z" fill="current"/>
</svg>
