<svg width="current" height="current" viewBox="0 0 20 20" fill="none" xmlns="http://www.w3.org/2000/svg">
<path fill-rule="evenodd" clip-rule="evenodd" d="M6.80123 2.15129C7.24112 1.93134 7.75888 1.93134 8.19877 2.15129L12.3602 4.23202C12.4482 4.27601 12.5518 4.27601 12.6398 4.23202L15.8637 2.62004C16.9026 2.10058 18.125 2.85604 18.125 4.01758V14.4213C18.125 15.0131 17.7906 15.5541 17.2613 15.8188L13.1988 17.8501C12.7589 18.07 12.2411 18.07 11.8012 17.8501L7.63975 15.7693C7.55178 15.7253 7.44822 15.7253 7.36025 15.7693L4.13627 17.3813C3.09736 17.9008 1.875 17.1453 1.875 15.9838V5.58008C1.875 4.98825 2.20938 4.44721 2.73873 4.18254L6.80123 2.15129ZM7.5 5.00066C7.84518 5.00066 8.125 5.28049 8.125 5.62566V12.5007C8.125 12.8458 7.84518 13.1257 7.5 13.1257C7.15482 13.1257 6.875 12.8458 6.875 12.5007V5.62566C6.875 5.28049 7.15482 5.00066 7.5 5.00066ZM13.125 7.50066C13.125 7.15549 12.8452 6.87566 12.5 6.87566C12.1548 6.87566 11.875 7.15549 11.875 7.50066V14.3757C11.875 14.7208 12.1548 15.0007 12.5 15.0007C12.8452 15.0007 13.125 14.7208 13.125 14.3757V7.50066Z" fill="current"/>
</svg>
