<svg width="20" height="20" viewBox="0 0 20 20" fill="none" xmlns="http://www.w3.org/2000/svg">
<path d="M7.40035 3.83359C6.73368 0.950261 2.39201 0.941928 1.72535 3.83359C1.33368 5.52526 2.40868 6.95859 3.34201 7.85026C4.02535 8.49193 5.10035 8.49193 5.78368 7.85026C6.71701 6.95859 7.78368 5.52526 7.40035 3.83359ZM4.59201 5.16693C4.13368 5.16693 3.75868 4.79193 3.75868 4.33359C3.75868 3.87526 4.12535 3.50026 4.58368 3.50026H4.59201C5.05868 3.50026 5.42535 3.87526 5.42535 4.33359C5.42535 4.79193 5.05868 5.16693 4.59201 5.16693Z" fill="white"/>
<path d="M18.2593 13.8336C17.5926 10.9503 13.2343 10.9419 12.5593 13.8336C12.1676 15.5253 13.2426 16.9586 14.1843 17.8503C14.8676 18.4919 15.951 18.4919 16.6343 17.8503C17.576 16.9586 18.651 15.5253 18.2593 13.8336ZM15.4426 15.1669C14.9843 15.1669 14.6093 14.7919 14.6093 14.3336C14.6093 13.8753 14.976 13.5003 15.4343 13.5003H15.4426C15.901 13.5003 16.276 13.8753 16.276 14.3336C16.276 14.7919 15.901 15.1669 15.4426 15.1669Z" fill="white"/>
<path d="M10.0005 16.4577H7.76719C6.80052 16.4577 5.95885 15.8743 5.62552 14.9743C5.28385 14.0743 5.53385 13.0827 6.25885 12.441L12.9172 6.61602C13.3172 6.26602 13.3255 5.79102 13.2089 5.46602C13.0839 5.14102 12.7672 4.79102 12.2339 4.79102H10.0005C9.65885 4.79102 9.37552 4.50768 9.37552 4.16602C9.37552 3.82435 9.65885 3.54102 10.0005 3.54102H12.2339C13.2005 3.54102 14.0422 4.12435 14.3755 5.02435C14.7172 5.92435 14.4672 6.91602 13.7422 7.55768L7.08385 13.3827C6.68385 13.7327 6.67552 14.2077 6.79219 14.5327C6.91719 14.8577 7.23385 15.2077 7.76719 15.2077H10.0005C10.3422 15.2077 10.6255 15.491 10.6255 15.8327C10.6255 16.1743 10.3422 16.4577 10.0005 16.4577Z" fill="white"/>
</svg>
