<svg width="current" height="current" viewBox="0 0 12 12" fill="none" xmlns="http://www.w3.org/2000/svg">
<path fill-rule="evenodd" clip-rule="evenodd" d="M5.76987 11.1755C5.78498 11.1843 5.79685 11.191 5.80525 11.1958L5.81921 11.2035C5.93065 11.2647 6.06888 11.2643 6.18042 11.2037L6.19475 11.1958C6.20315 11.191 6.21502 11.1843 6.23013 11.1755C6.26033 11.158 6.30349 11.1325 6.35775 11.0991C6.46623 11.0323 6.61938 10.9338 6.80231 10.8046C7.16754 10.5465 7.65487 10.1637 8.14327 9.66367C9.11534 8.66841 10.125 7.17308 10.125 5.25C10.125 2.97183 8.27817 1.125 6 1.125C3.72183 1.125 1.875 2.97183 1.875 5.25C1.875 7.17308 2.88466 8.66841 3.85673 9.66367C4.34513 10.1637 4.83246 10.5465 5.19769 10.8046C5.38062 10.9338 5.53377 11.0323 5.64225 11.0991C5.69651 11.1325 5.73967 11.158 5.76987 11.1755ZM6 6.75C6.82843 6.75 7.5 6.07843 7.5 5.25C7.5 4.42157 6.82843 3.75 6 3.75C5.17157 3.75 4.5 4.42157 4.5 5.25C4.5 6.07843 5.17157 6.75 6 6.75Z" fill="current"/>
</svg>
