<svg width="16" height="16" viewBox="0 0 16 16" fill="none" xmlns="http://www.w3.org/2000/svg">
<path fill-rule="evenodd" clip-rule="evenodd" d="M12.4072 3.00395C13.5673 4.03627 14.2923 5.31825 14.5652 6.85023H14.5649C14.5944 7.01628 14.6157 7.18379 14.6371 7.35132C14.6469 7.42832 14.6567 7.50533 14.6673 7.58219V8.41555C14.6612 8.46487 14.6553 8.51418 14.6495 8.56349C14.6359 8.677 14.6224 8.79046 14.6062 8.90376C14.4163 10.2354 13.8808 11.4111 12.986 12.415C11.9589 13.5674 10.6825 14.2865 9.16127 14.5619C8.99187 14.5925 8.82083 14.614 8.64972 14.6356C8.57216 14.6453 8.49459 14.6551 8.41716 14.6657H7.5838C7.53219 14.6593 7.48058 14.6532 7.42899 14.6471C7.31779 14.634 7.20671 14.6208 7.09594 14.6049C5.76952 14.415 4.59692 13.8837 3.59481 12.9934C2.43749 11.9649 1.71455 10.6861 1.43781 9.16036C1.40727 8.99099 1.38575 8.81997 1.36424 8.64901C1.35443 8.57113 1.34463 8.49325 1.33398 8.41555V7.58219C1.34309 7.51258 1.35152 7.44287 1.35995 7.37316C1.37852 7.21964 1.39708 7.06613 1.42288 6.91377C1.6576 5.53179 2.26318 4.33489 3.24549 3.33521C4.24413 2.31921 5.44729 1.68169 6.85253 1.43446C7.01847 1.40522 7.18587 1.3838 7.35317 1.36238C7.43023 1.35251 7.50728 1.34265 7.58415 1.33203H8.4175C8.49099 1.34169 8.56462 1.35052 8.63824 1.35935C8.79213 1.3778 8.94599 1.39624 9.09842 1.42231C10.3505 1.63621 11.4582 2.15948 12.4072 3.00395ZM4.96845 10.2076C5.49972 10.1104 5.89001 9.71246 5.97022 9.22252L5.97056 9.22182C6.06466 8.6475 5.85771 8.19922 5.34451 7.91206C5.21339 7.83884 5.07241 7.78289 4.9316 7.727C4.87477 7.70445 4.81797 7.6819 4.76185 7.65824C4.68732 7.62682 4.61227 7.59653 4.53723 7.56624C4.39166 7.50748 4.24614 7.44874 4.10454 7.38184C3.93336 7.30094 3.86704 7.15024 3.88648 6.96169C3.90558 6.77453 4.00523 6.64884 4.17885 6.58286C4.35906 6.51446 4.54379 6.51411 4.72886 6.56029C4.99172 6.62592 5.17193 6.75995 5.18895 7.06135C5.20006 7.25962 5.39381 7.40719 5.58757 7.39573C5.79938 7.38323 5.97994 7.20475 5.95494 6.98704C5.93306 6.79745 5.89591 6.59293 5.8025 6.43147C5.51639 5.93597 5.03755 5.77208 4.43893 5.74117C4.40832 5.74644 4.3729 5.75124 4.33428 5.75647C4.24057 5.76916 4.12802 5.7844 4.01982 5.81513C3.15105 6.06167 2.80659 7.09433 3.36529 7.76901C3.58022 8.02839 3.87468 8.16589 4.18059 8.28395C4.23494 8.30492 4.28939 8.32568 4.34384 8.34644C4.55623 8.42741 4.76867 8.50839 4.9754 8.60236C5.15422 8.68361 5.23374 8.84126 5.20874 9.04126C5.18339 9.24509 5.06429 9.37217 4.87192 9.42808C4.63789 9.49579 4.40733 9.47704 4.18718 9.37217C4.02329 9.29404 3.92433 9.16939 3.91252 8.97841C3.89863 8.75236 3.72328 8.59264 3.51251 8.60028C3.29654 8.60826 3.12952 8.78778 3.13438 9.01626C3.13959 9.25134 3.19862 9.47426 3.34654 9.66003C3.76808 10.1889 4.33233 10.3239 4.96845 10.2076ZM8.28208 10.2444C8.9512 10.2128 9.41197 9.73572 9.42204 9.06696L9.42239 9.06661C9.43281 8.35548 9.43142 7.64365 9.42239 6.93252C9.41475 6.34188 9.03523 5.86896 8.47757 5.77381C8.28409 5.74067 8.0837 5.7437 7.88421 5.74672C7.82664 5.7476 7.76916 5.74847 7.71193 5.74847C6.98031 5.74812 6.4869 6.2398 6.48238 6.96933C6.48095 7.20496 6.48132 7.44059 6.4817 7.67621C6.48187 7.7833 6.48204 7.89039 6.48204 7.99748H6.48551C6.48551 8.1147 6.48462 8.23191 6.48374 8.3491C6.48175 8.6138 6.47976 8.87839 6.48794 9.14265C6.50426 9.65899 6.86677 10.1132 7.37616 10.208C7.67061 10.2625 7.98069 10.2587 8.28208 10.2444ZM11.8759 10.2073C12.428 10.1045 12.7996 9.70933 12.8867 9.17008L12.8871 9.17043C12.9711 8.65028 12.7444 8.18777 12.2499 7.91206C12.1175 7.83812 11.9752 7.78179 11.833 7.72549C11.7775 7.70353 11.7221 7.68158 11.6672 7.65859C11.5916 7.62678 11.5153 7.59634 11.4391 7.56592C11.2982 7.50967 11.1575 7.45347 11.0207 7.38879C10.8464 7.30684 10.77 7.15579 10.7919 6.961C10.8141 6.76308 10.9242 6.63252 11.1106 6.57383C11.3568 6.4964 11.5999 6.51585 11.8311 6.63217C11.9902 6.71203 12.0784 6.83877 12.0895 7.02315C12.1027 7.24469 12.287 7.40823 12.4947 7.39573C12.7065 7.38323 12.8857 7.20545 12.8621 6.98704C12.8419 6.80162 12.8055 6.60196 12.7155 6.44293C12.4308 5.9384 11.9488 5.77312 11.3467 5.74083C11.316 5.74616 11.2805 5.75088 11.2419 5.75601C11.1474 5.76858 11.0344 5.78362 10.9266 5.81618C10.4106 5.97278 10.0877 6.31063 10.0196 6.85648C9.9547 7.37941 10.1627 7.78046 10.6085 8.05235C10.755 8.14176 10.9162 8.20891 11.0755 8.27525C11.0839 8.27873 11.0922 8.28221 11.1006 8.28569C11.2017 8.32787 11.3044 8.36668 11.4071 8.40549C11.5597 8.46316 11.7122 8.52081 11.8596 8.58951C12.0728 8.68882 12.1405 8.83987 12.1134 9.05411C12.0891 9.24509 11.9638 9.37773 11.753 9.43398C11.5492 9.48815 11.3478 9.47426 11.1526 9.39856C10.9561 9.32217 10.8321 9.19022 10.8165 8.96452C10.8009 8.74021 10.6148 8.5843 10.4054 8.60062C10.1936 8.61694 10.0349 8.79473 10.0412 9.01695C10.0481 9.26141 10.1109 9.49092 10.2693 9.68155C10.6936 10.192 11.2502 10.3236 11.8759 10.2073ZM7.785 6.52834C7.93629 6.52732 8.08737 6.5263 8.23845 6.52955L8.2388 6.5292C8.47457 6.53441 8.63846 6.68268 8.64054 6.9181C8.64679 7.63826 8.64679 8.35842 8.64054 9.07857C8.63846 9.30809 8.48255 9.45671 8.25095 9.46713C8.05615 9.47581 7.86031 9.47546 7.66552 9.46817C7.41308 9.45879 7.26655 9.30462 7.26447 9.05184C7.26252 8.80293 7.26296 8.55386 7.2634 8.30485C7.26358 8.19815 7.26377 8.09145 7.26377 7.9848C7.26377 7.87207 7.26362 7.75931 7.26346 7.64654C7.26315 7.42096 7.26285 7.19532 7.26377 6.96984C7.26481 6.67851 7.41377 6.53059 7.70475 6.52885C7.73151 6.5287 7.75826 6.52852 7.785 6.52834Z" fill="#F40B0B"/>
</svg>
