<svg width="16" height="16" viewBox="0 0 16 16" fill="none" xmlns="http://www.w3.org/2000/svg">
<g clip-path="url(#clip0_3179_15242)">
<g clip-path="url(#clip1_3179_15242)">
<path d="M13.487 9.62665C13.6836 9.6023 13.8734 9.53937 14.0456 9.44149C14.2178 9.34361 14.3689 9.2127 14.4904 9.05626C14.6119 8.89982 14.7013 8.72094 14.7535 8.52987C14.8055 8.33951 14.8196 8.14078 14.7949 7.94501C14.6092 6.43071 13.92 5.02273 12.838 3.94719C11.5518 2.66132 9.80758 1.93886 7.98883 1.93872C6.16962 1.93858 4.42487 2.66112 3.13839 3.94739C1.85192 5.23366 1.1291 6.9783 1.12896 8.79751C1.12882 10.6167 1.85136 12.3615 3.13763 13.6479L3.13768 13.648C3.23759 13.7479 3.34168 13.8468 3.45173 13.9436L4.00356 13.3161L3.45059 13.9426C3.74984 14.2067 4.14177 14.3411 4.54014 14.3163C4.93852 14.2915 5.31072 14.1094 5.57486 13.8102C5.839 13.5109 5.97344 13.119 5.94861 12.7206C5.92398 12.3254 5.74458 11.9559 5.44953 11.6922C5.41279 11.6585 5.3857 11.6342 5.36417 11.6149C5.32629 11.581 5.30559 11.5624 5.2798 11.5354L5.27278 11.528L5.26557 11.5208C4.54382 10.799 4.13834 9.8201 4.13834 8.79939C4.13834 7.77867 4.54382 6.79976 5.26557 6.07801C5.98733 5.35625 6.96624 4.95077 7.98695 4.95077C9.00767 4.95077 9.98658 5.35625 10.7083 6.07801L10.711 6.08064C11.3177 6.682 11.7042 7.47022 11.8081 8.31816L11.8084 8.32044C11.8334 8.52034 11.898 8.71109 11.9964 8.88249L10.0178 8.03148C9.91247 7.75138 9.74974 7.49425 9.53798 7.27753C9.20356 6.93525 8.76554 6.71289 8.29186 6.64492C7.81818 6.57695 7.33531 6.66717 6.91814 6.9016C6.50096 7.13602 6.17279 7.50154 5.98452 7.94148C5.79624 8.38142 5.75839 8.87119 5.87683 9.33483C5.99527 9.79847 6.26339 10.2101 6.63959 10.5058C7.0158 10.8015 7.47907 10.9649 7.95757 10.9705C8.25994 10.9741 8.55772 10.9145 8.83262 10.7978L11.7456 12.049C12.112 12.2064 12.5259 12.2119 12.8963 12.0643C13.2668 11.9168 13.5635 11.6282 13.7213 11.262L14.2241 10.0957H13.7283C13.658 9.92423 13.5566 9.76728 13.4293 9.63268C13.4486 9.63104 13.4678 9.62904 13.487 9.62665ZM13.487 9.62665L13.3842 8.79738L13.4877 9.62657C13.4874 9.62659 13.4872 9.62662 13.487 9.62665ZM4.72422 14.6532L4.72226 14.6532C4.06461 14.6547 3.43275 14.3977 2.96292 13.9376C1.63468 12.6198 0.872052 10.8364 0.836882 8.9657C0.801699 7.0942 1.49733 5.28268 2.7761 3.91575C4.05486 2.54882 5.81605 1.73412 7.68574 1.64463C9.55376 1.55521 11.3831 2.19675 12.7861 3.43314C13.522 4.09917 14.1129 4.90962 14.522 5.814C14.9317 6.71988 15.1502 7.70054 15.1637 8.69467C15.1773 9.68881 14.9857 10.6751 14.6008 11.5918C14.2168 12.5064 13.6487 13.3323 12.9318 14.0179C12.4799 14.4342 11.8856 14.6616 11.2711 14.6533L11.2711 14.6532H11.2597L4.72422 14.6532Z" fill="#0066FF" stroke="#0066FF" stroke-width="1.67122"/>
</g>
</g>
<defs>
<clipPath id="clip0_3179_15242">
<rect width="16" height="16" fill="white"/>
</clipPath>
<clipPath id="clip1_3179_15242">
<rect width="16" height="16" fill="white"/>
</clipPath>
</defs>
</svg>
