<svg
    width="21"
    height="20"
    viewBox="0 0 21 20"
    fill="none"
    xmlns="http://www.w3.org/2000/svg"
  >
    <path
      d="M15.6687 13.4806C15.6699 14.2795 15.4744 15.0663 15.0996 15.7718C14.7248 16.4772 14.1822 17.0796 13.5196 17.5258C12.8571 17.972 12.0948 18.2483 11.3002 18.3304C10.5056 18.4124 9.70305 18.2977 8.96326 17.9963C8.22348 17.6949 7.56922 17.2161 7.05819 16.6021C6.54716 15.9881 6.19507 15.2578 6.03295 14.4756C5.87084 13.6934 5.90368 12.8833 6.1286 12.1168C6.35352 11.3503 6.76359 10.6509 7.32265 10.0803V5.13456C7.4694 0.537956 14.1324 0.544215 14.2777 5.13456V10.0803C15.1672 10.9889 15.6664 12.2091 15.6687 13.4806ZM12.8867 13.4806C12.8866 13.0492 12.7528 12.6284 12.5037 12.2762C12.2546 11.9239 11.9024 11.6576 11.4957 11.5137V7.22108C11.4957 7.03662 11.4224 6.85971 11.292 6.72928C11.1615 6.59885 10.9846 6.52557 10.8002 6.52557C10.6157 6.52557 10.4388 6.59885 10.3084 6.72928C10.178 6.85971 10.1047 7.03662 10.1047 7.22108V11.5137C9.74401 11.6413 9.42535 11.8655 9.18351 12.1619C8.94168 12.4583 8.78598 12.8154 8.73344 13.1944C8.6809 13.5733 8.73353 13.9593 8.8856 14.3103C9.03766 14.6614 9.28329 14.9638 9.59565 15.1847C9.90801 15.4055 10.2751 15.5362 10.6567 15.5625C11.0383 15.5888 11.4199 15.5097 11.7596 15.3338C12.0993 15.1579 12.3841 14.892 12.5829 14.5652C12.7816 14.2384 12.8868 13.8632 12.8867 13.4806Z"
      fill="#0066FF"
    />
  </svg>
